<svg xmlns="http://www.w3.org/2000/svg" xmlns:xlink="http://www.w3.org/1999/xlink" width="300" height="300" viewBox="0 0 300 300">
  <defs>
    <linearGradient id="linear-gradient" x1="0.5" x2="0.5" y2="1" gradientUnits="objectBoundingBox">
      <stop offset="0" stop-color="#ffa700"/>
      <stop offset="1" stop-color="#ebff00"/>
    </linearGradient>
    <clipPath id="clip-path">
      <rect id="Rectangle_108" data-name="Rectangle 108" width="297.881" height="266.533" fill="none"/>
    </clipPath>
    <clipPath id="clip-path-3">
      <path id="Path_245" data-name="Path 245" d="M65.893,152.056h0M95.226,46.3c1.956-7.532-2.57-24.795-23.1-14.414S58.6,69.14,58.6,69.14s-12.961-8.184-17.582-.473C32.813,82,49.576,92.715,49.576,92.715c-12.169-1.059-27.1-2.484-26.966,7.667.184,14.258,13.683,17.264,13.683,17.264s-14.223.5-16.807,18.223c-3.85,26.393,25.023,12.722,25.023,12.722-.153,3.027-9.238,22.922,4.712,21.948,9.168-.638,15.331-15.084,16.479-17.981-1.254,3.368-7.692,22.435,8.112,20.409,13.142-1.683,14.767-16.161,14.952-18.687-.107,2.467-.119,16.361,12.933,20.063C116.038,178.412,114.5,154,114.5,154c1.305,14.977,16.944,28.182,28.939,25.408s5.714-20.664,5.714-20.664l5.074,7c7.348,11.889,21.686,11.535,25.239,7.06s-4.519-13.842-4.519-13.842c12.555,12.591,20.416,11.7,20.416,11.7,36.714,5.415,12.053-27.615,12.053-27.615s27.223,4.656,32.253-13.766c5.264-19.276-19.355-20.063-19.355-20.063s14.465-4.958,13.492-14.168c-1.955-13.525-19.755-7.522-19.755-7.522s7.787-7.135,3.391-16.563-21.4-5.73-21.4-5.73c5.232-3.286,18.533-14.924-2.579-22.115A57.4,57.4,0,0,0,154,44.49s15.425-17.7-11.514-23.094a32.851,32.851,0,0,0-6.464-.643c-23.661,0-40.792,25.543-40.792,25.543" transform="translate(-19.133 -20.753)" fill="none"/>
    </clipPath>
    <clipPath id="clip-path-4">
      <rect id="Rectangle_80" data-name="Rectangle 80" width="191.95" height="151.924" fill="none"/>
    </clipPath>
    <clipPath id="clip-path-6">
      <path id="Path_250" data-name="Path 250" d="M126.277,100.81c-9.038,6.865-14.971,22.734-11.115,27.813s16.5-3.026,25.539-9.89,8.435-12.188,4.579-17.266c-2.17-2.857-5.055-4.881-8.771-4.881-2.889,0-6.279,1.221-10.233,4.224" transform="translate(-113.966 -96.586)" fill="#ee5228"/>
    </clipPath>
    <clipPath id="clip-path-7">
      <rect id="Rectangle_82" data-name="Rectangle 82" width="31.504" height="43.036" fill="#ee5228"/>
    </clipPath>
    <clipPath id="clip-path-9">
      <path id="Path_255" data-name="Path 255" d="M26.177,106.11c-3.157,5.54-3.054,10.9,6.808,16.512s23.463,11.986,26.618,6.445-4.814-20.492-14.676-26.111c-3.625-2.063-6.691-2.932-9.275-2.932-4.452,0-7.479,2.579-9.475,6.086" transform="translate(-24.338 -100.024)" fill="#ee5228"/>
    </clipPath>
    <clipPath id="clip-path-10">
      <rect id="Rectangle_84" data-name="Rectangle 84" width="34.734" height="40.355" fill="#ee5228"/>
    </clipPath>
    <clipPath id="clip-path-11">
      <path id="Path_259" data-name="Path 259" d="M60.224,133.893s-2.17,21.356,3.417,26.871,13.5,6.181,16.421,3.113,8.414-18.859,8.414-18.859,2.743-8.419-4.549-13.878c-3.714-2.781-8.859-5.029-13.488-5.029-4.459,0-8.442,2.084-10.215,7.782" transform="translate(-59.809 -126.111)" fill="none"/>
    </clipPath>
    <clipPath id="clip-path-12">
      <rect id="Rectangle_85" data-name="Rectangle 85" width="92.817" height="37.255" fill="none"/>
    </clipPath>
    <clipPath id="clip-path-13">
      <path id="Path_263" data-name="Path 263" d="M85.534,131.86c-6.968,5.867-3.749,14.116-3.749,14.116s6.388,15.453,9.479,18.348,10.951,1.778,16.215-4.045,1.878-27.026,1.878-27.026c-1.971-5.257-5.714-7.207-9.858-7.207-4.833,0-10.213,2.655-13.964,5.814" transform="translate(-81.043 -126.046)" fill="none"/>
    </clipPath>
    <clipPath id="clip-path-14">
      <rect id="Rectangle_86" data-name="Rectangle 86" width="69.339" height="46.792" fill="none"/>
    </clipPath>
    <clipPath id="clip-path-15">
      <path id="Path_274" data-name="Path 274" d="M37.485,133.544c-.938,34.249,31.29,52.743,71.641,53.846s73.54-15.6,74.479-49.847-31.053-61.47-71.4-62.573c-.847-.023-1.688-.035-2.53-.035-39.207,0-71.27,25.079-72.187,58.609" transform="translate(-37.465 -74.935)" fill="none"/>
    </clipPath>
    <clipPath id="clip-path-16">
      <rect id="Rectangle_87" data-name="Rectangle 87" width="105.624" height="132.48" fill="none"/>
    </clipPath>
    <clipPath id="clip-path-17">
      <path id="Path_278" data-name="Path 278" d="M48.749,123.018c-.575,20.948,22.9,32.346,52.223,33.149s53.388-9.294,53.96-30.243-22.56-44.812-51.882-45.615q-.762-.021-1.52-.021c-28.639,0-52.218,22.147-52.782,42.73" transform="translate(-48.739 -80.288)" fill="none"/>
    </clipPath>
    <clipPath id="clip-path-19">
      <path id="Path_299" data-name="Path 299" d="M41.334,36.7c-2.773.585-6.5,2.186-5.331,5.7l5.088,16.136L18.251,49.019c-4.257-1.841-7.379,2.031-8.376,5.786a5.507,5.507,0,0,0,2.966,7.2L84.549,91.884C91.54,94.915,97.032,81.725,89.96,78.9L53.933,63.885,46.148,39.2A3.832,3.832,0,0,0,41.334,36.7" transform="translate(-9.45 -36.516)" fill="#ee5228"/>
    </clipPath>
    <clipPath id="clip-path-20">
      <rect id="Rectangle_89" data-name="Rectangle 89" width="33.565" height="26.309" fill="none"/>
    </clipPath>
    <clipPath id="clip-path-21">
      <rect id="Rectangle_90" data-name="Rectangle 90" width="73.467" height="29.375" fill="none"/>
    </clipPath>
    <clipPath id="clip-path-22">
      <rect id="Rectangle_91" data-name="Rectangle 91" width="34.615" height="13.735" fill="none"/>
    </clipPath>
    <clipPath id="clip-path-23">
      <path id="Path_304" data-name="Path 304" d="M25.609,57.309a15.7,15.7,0,0,0-9.732,8.7A136,136,0,0,1,7.593,81.4a1.864,1.864,0,0,0,1.225,2.662c5.928.715,19.856,1.114,24.643-9.345a16.337,16.337,0,0,0,.645-1.7c.7-2.1,3.725-10.206,9.9-13.067.792-.365.439-1.729-.51-1.98a44.28,44.28,0,0,0-11.025-1.564,24.44,24.44,0,0,0-6.863.9" transform="translate(-7.368 -56.411)" fill="none"/>
    </clipPath>
    <clipPath id="clip-path-24">
      <path id="Path_309" data-name="Path 309" d="M108.252,49.637,135.429,36.97,148.1,64.147,120.918,76.813Zm-2.184-34.46a47.183,47.183,0,0,0-25.076,44.3,44.748,44.748,0,0,0,1.1,7.768,47.306,47.306,0,1,0,23.972-52.066" transform="translate(-80.92 -9.645)" fill="url(#linear-gradient)"/>
    </clipPath>
    <clipPath id="clip-path-25">
      <rect id="Rectangle_92" data-name="Rectangle 92" width="105.127" height="108.688" fill="url(#linear-gradient)"/>
    </clipPath>
    <clipPath id="clip-path-26">
      <rect id="Rectangle_93" data-name="Rectangle 93" width="130.117" height="126.907" fill="url(#linear-gradient)"/>
    </clipPath>
    <clipPath id="clip-path-27">
      <rect id="Rectangle_94" data-name="Rectangle 94" width="130.116" height="126.907" fill="url(#linear-gradient)"/>
    </clipPath>
    <clipPath id="clip-path-29">
      <path id="Path_312" data-name="Path 312" d="M105.224,45.8l25.439-11.858L142.52,59.385,117.082,71.243Zm-16.363-5.96a37.249,37.249,0,1,0,35.054-24.522A37.31,37.31,0,0,0,88.862,39.844" transform="translate(-86.609 -15.322)" fill="none"/>
    </clipPath>
    <clipPath id="clip-path-30">
      <rect id="Rectangle_97" data-name="Rectangle 97" width="82.943" height="45.388" fill="none"/>
    </clipPath>
    <clipPath id="clip-path-31">
      <rect id="Rectangle_99" data-name="Rectangle 99" width="86.418" height="52.379" fill="none"/>
    </clipPath>
    <clipPath id="clip-path-32">
      <rect id="Rectangle_101" data-name="Rectangle 101" width="86.418" height="52.378" fill="none"/>
    </clipPath>
    <clipPath id="clip-path-33">
      <rect id="Rectangle_103" data-name="Rectangle 103" width="82.234" height="43.962" fill="none"/>
    </clipPath>
    <clipPath id="clip-path-35">
      <path id="Path_317" data-name="Path 317" d="M95.533,82.248c-.954,19.738,11.651,29.489,34.319,23.008a133.3,133.3,0,0,1,16.094-3.335c11.292-1.362,18.234.648,17.331-8.555-1-10.227-11.255-23.02-24.3-26.414a59.239,59.239,0,0,0-14.7-1.829c-14.312,0-28.164,5.137-28.742,17.125" transform="translate(-95.482 -65.123)" fill="none"/>
    </clipPath>
    <clipPath id="clip-path-36">
      <path id="Path_321" data-name="Path 321" d="M113.705,52.476c-17.429,7.754-35.493,27.1-25.564,40.862,12.1,16.77,28.772,16.524,43.092-3.567a139.372,139.372,0,0,1,10.99-13.232c8.349-8.481,15.34-11.366,8.6-18.306-4.99-5.134-14.079-8.525-23.4-8.525a33.789,33.789,0,0,0-13.715,2.767" transform="translate(-85.314 -49.709)" fill="none"/>
    </clipPath>
    <clipPath id="clip-path-37">
      <path id="Path_325" data-name="Path 325" d="M37.175,88.8c17.085,31.315,48.913,24.742,56.9,4.749s-15.59-15.567-27.152-25.7c-7.836-6.868-18.7-9.24-18.7-9.24s-.125-.005-.353-.005c-3.2,0-26.646.973-10.7,30.2" transform="translate(-31.669 -58.604)" fill="none"/>
    </clipPath>
    <clipPath id="clip-path-38">
      <path id="Path_329" data-name="Path 329" d="M49.51,67.475c-2.117,17.774,6.928,44.986,22.825,44.046C91.7,110.373,97.922,93.963,89.209,72.516c0,0-4.519-8.381-5.387-15.374-1.107-8.918-3.763-16-12.835-16.447-.206-.011-.413-.016-.62-.016-8.913,0-18.786,9.424-20.857,26.8" transform="translate(-49.205 -40.679)" fill="none"/>
    </clipPath>
    <clipPath id="clip-path-39">
      <path id="Path_333" data-name="Path 333" d="M75.667,56.278c-7.9,16.925-8.817,42.821,7.36,46.613,19.713,4.619,31.873-6.276,29.545-30.318,0,0,1.17-10.164,1.623-17.5.719-11.631,2.029-17.586-7.411-18.38q-.8-.066-1.622-.067c-10.343,0-23.953,7.773-29.5,19.654" transform="translate(-70.154 -36.624)" fill="none"/>
    </clipPath>
    <clipPath id="clip-path-41">
      <path id="Path_341" data-name="Path 341" d="M69.33,76.83s-21.6.669-29.254,20.776,18.808,16.972,26.618,11.528c7.576-5.285,22.772-32.378,4.4-32.379-.559,0-1.147.025-1.769.076" transform="translate(-38.702 -76.754)" fill="none"/>
    </clipPath>
    <clipPath id="clip-path-42">
      <path id="Path_345" data-name="Path 345" d="M94.206,87.95s1.376,24.15,23.563,26.878c15.46,1.9,25.587-4.607,23.468-12.248,0,0-.311-1.9-6.545-5.408a22.8,22.8,0,0,1-6.569-5.833c-2.952-3.762-4.152-5.784-7.8-8.81-.388-.323-3.96-2.862-5.731-3.879a20.247,20.247,0,0,0-9.068-2.138c-5.431,0-11.074,2.449-11.32,11.438" transform="translate(-94.206 -76.512)" fill="none"/>
    </clipPath>
    <clipPath id="clip-path-43">
      <path id="Path_349" data-name="Path 349" d="M55.729,76.553c-4.011,22.214,14.687,31.285,26.778,24.433s-2.75-13.652-3.329-23.324A17.873,17.873,0,0,0,74.387,66.61s-4.036-3.38-8.449-3.38c-4,0-8.3,2.769-10.208,13.323" transform="translate(-55.176 -63.23)" fill="none"/>
    </clipPath>
    <clipPath id="clip-path-44">
      <path id="Path_353" data-name="Path 353" d="M89.861,77.655c-10.046,17.2,2.5,27.086,11.38,24.246s5.853-10.554,11.343-15.69,6.459-14.648.5-18.334a15.206,15.206,0,0,0-6.865-1.594c-4.675,0-10.969,2.138-16.361,11.371" transform="translate(-86.145 -66.284)" fill="none"/>
    </clipPath>
    <clipPath id="clip-path-45">
      <path id="Path_357" data-name="Path 357" d="M75.587,68.707c-6.757,11.9-8.442,33.748,3.038,37.791,13.986,4.928,23.226-4.793,23.438-22.484,0,0,.45-6.5,3.691-10.8,3.447-4.572,1.764-13.163-4.493-16.168a12.861,12.861,0,0,0-5.52-1.117C89.2,55.928,80.7,59.7,75.587,68.707" transform="translate(-70.258 -55.928)" fill="none"/>
    </clipPath>
    <clipPath id="clip-path-47">
      <path id="Path_362" data-name="Path 362" d="M82.353,105.6c-4.54.135-8.179,1.659-8.068,5.355s3.786,6.394,8.326,6.258,8.224-3.052,8.114-6.75c-.105-3.525-3.493-4.872-7.743-4.872-.207,0-.418,0-.629.009" transform="translate(-74.283 -105.587)" fill="none"/>
    </clipPath>
    <clipPath id="clip-Artboard_2">
      <rect width="300" height="300"/>
    </clipPath>
  </defs>
  <g id="Artboard_2" data-name="Artboard – 2" clip-path="url(#clip-Artboard_2)">
    <g id="Group_1500" data-name="Group 1500">
      <g id="Group_529" data-name="Group 529" transform="matrix(0.999, 0.035, -0.035, 0.999, 5.801, 11.617)">
        <g id="Group_355" data-name="Group 355" clip-path="url(#clip-path)">
          <g id="Group_246" data-name="Group 246">
            <g id="Group_245" data-name="Group 245" clip-path="url(#clip-path)">
              <path id="Path_241" data-name="Path 241" d="M65.893,152.056s-6.482,17.775-16.672,18.485c-13.95.973-4.865-18.919-4.712-21.948,0,0-28.872,13.669-25.023-12.724,2.585-17.724,16.806-18.222,16.806-18.222s-13.5-3-13.682-17.264c-.132-10.152,14.8-8.727,26.966-7.667,0,0-16.763-10.718-8.562-24.046,4.621-7.711,17.582.471,17.582.471S51.59,42.258,72.122,31.88s25.06,6.886,23.1,14.416c0,0,20.314-30.29,47.254-24.9s11.514,23.1,11.514,23.1a57.4,57.4,0,0,1,39.472-1.37c21.114,7.191,7.813,18.83,2.579,22.115,0,0,17-3.7,21.4,5.73s-3.391,16.563-3.391,16.563,17.8-6,19.755,7.522c.973,9.212-13.492,14.168-13.492,14.168s24.619.787,19.357,20.063c-5.03,18.422-32.255,13.766-32.255,13.766s24.663,33.03-12.053,27.616c0,0-7.862.887-20.418-11.7,0,0,8.072,9.365,4.521,13.84s-17.891,4.83-25.239-7.06l-5.076-7s6.285,17.89-5.712,20.664S115.806,168.975,114.5,154c0,0,1.537,24.413-12.8,20.346s-12.912-20.437-12.912-20.437-.569,17.217-14.973,19.062c-17.329,2.221-7.919-20.913-7.919-20.913" transform="translate(14.483 15.71)" fill="#d3df8d"/>
            </g>
          </g>
          <g id="Group_251" data-name="Group 251" transform="translate(33.616 36.463)">
            <g id="Group_250" data-name="Group 250" clip-path="url(#clip-path-3)">
              <path id="Path_242" data-name="Path 242" d="M68.59,152.044s-6.655,16.473-16.672,18.485a14.832,14.832,0,0,1-16.744-8.692s-23.691,6.443-18.986-16.289S39.006,116.69,39.006,116.69s-23.925,4.66-22.243-9.5S31.771,88.006,43.808,87.356c0,0-15-7.263-6.8-20.592,4.619-7.711,18.454-1.95,18.454-1.95S54.287,42.247,74.819,31.869,98.953,43.017,97.844,47.722c0,0,20.393-31.728,47.333-26.337s11.514,23.1,11.514,23.1a57.4,57.4,0,0,1,39.472-1.37c21.114,7.191,7.813,18.83,2.579,22.115,0,0,17-3.7,21.4,5.73s-3.391,16.563-3.391,16.563,17.8-6,19.755,7.522c.973,9.212-13.492,14.168-13.492,14.168s23.183,1.233,19.218,20.817-22.567,21.012-22.567,21.012,15.114,25.03-21.6,19.617c0,0-7.862.887-20.418-11.7,0,0,8.072,9.365,4.521,13.84s-17.891,4.83-25.239-7.06l-5.076-7s6.285,17.89-5.712,20.664S118.5,168.964,117.2,153.988c0,0,1.537,24.413-12.8,20.346S91.482,153.9,91.482,153.9s-.569,17.217-14.973,19.061c-17.329,2.221-7.919-20.913-7.919-20.913" transform="translate(-21.83 -20.742)" fill="#d3df8d"/>
              <path id="Path_243" data-name="Path 243" d="M67.022,150.8s-4.284,17.5-14.483,18.079c-17.078.973-7.06-19.032-8.119-22.094,0,0-27.349,12.287-23.032-10.523,3.416-18.051,15.263-18.534,15.263-18.534S24.459,115.549,24.4,101.29C24.352,91.614,37.5,93.4,49.54,92.751c0,0-13.174-11.03-6.986-21.994C47.175,63.045,59.3,69.615,59.3,69.615s-4.737-26.6,15.8-36.977,19.727,10.633,18.014,20.2c0,0,7.959-13.683,21.254-22.771C124.556,23.1,138.6,19.69,150.3,22.03c26.938,5.39-4.382,27.079-4.382,27.079s26.875-10.389,48.113-3.581c14.483,4.642,3.593,17.754-1.641,21.042,0,0,18.649-3,23.045,6.427S212.168,87.5,212.168,87.5,231.045,84.145,233,97.67c.972,9.212-16.11,11.777-16.11,11.777s23.823,1.091,17.594,20.077c-5.7,17.391-29.461,11.819-29.461,11.819s28.182,33.481-8.534,28.068c0,0-7.863.887-20.418-11.7,0,0,8.072,9.365,4.521,13.84s-17.891,4.83-25.239-7.06l-5.076-7s6.285,17.89-5.712,20.664-27.634-10.431-28.939-25.408c0,0,1.537,24.413-12.8,20.346s-12.912-20.437-12.912-20.437-.569,17.217-14.973,19.062c-17.329,2.221-7.919-20.913-7.919-20.913" transform="translate(-17.776 -20.342)" fill="#83b92b"/>
              <g id="Group_249" data-name="Group 249" transform="translate(16.286 26.176)" opacity="0.61">
                <g id="Group_248" data-name="Group 248">
                  <g id="Group_247" data-name="Group 247" clip-path="url(#clip-path-4)">
                    <path id="Path_244" data-name="Path 244" d="M71.822,161.156s-4.081,16.676-13.8,17.229c-16.277.928-6.727-18.136-7.738-21.056,0,0-21.964,17.642-17.851-4.094,3.256-17.2,10.445-23.6,10.445-23.6s-14.416,4.3-14.476-9.293c-.04-9.221,15.288-13.894,26.759-14.514,0,0-17.705-9.087-11.807-19.536,4.4-7.349,21.1-2.512,21.1-2.512s-6.348-23.9,12.413-35.243C89.259,41.049,96.591,58.481,94.958,67.6c0,0,3.141-15.516,15.813-24.178,9.716-6.641,15.286-9.532,26.283-6.668,17.424,4.537,1.666,26.919,1.666,26.919s13.527-19.3,33.769-12.815c13.8,4.424-2.488,18.671-7.476,21.8,0,0,32.2-1.339,35.31,8.072,4.665,14.1-20.312,11.554-20.312,11.554s31,4.422,32.864,17.312c2.727,16.9-22.6,15.019-22.6,15.019s35.34,21.006,29.407,39.1c-5.436,16.574-10.5-.513-10.5-.513s21.013,20.847-13.975,15.688c0,0-7.494.845-19.459-11.153,0,0,7.692,8.925,4.308,13.19s-17.05,4.6-24.053-6.727l-4.837-6.668s5.99,17.048-5.443,19.691-26.335-9.941-27.579-24.213c0,0,1.464,23.266-12.2,19.39s-12.3-19.478-12.3-19.478-.543,16.408-14.27,18.167c-16.514,2.115-7.546-19.931-7.546-19.931" transform="translate(-28.402 -35.651)" fill="#79a02d"/>
                  </g>
                </g>
              </g>
            </g>
          </g>
          <g id="Group_253" data-name="Group 253">
            <g id="Group_252" data-name="Group 252" clip-path="url(#clip-path)">
              <path id="Path_246" data-name="Path 246" d="M140.7,118.733c9.038-6.866,8.435-12.188,4.579-17.266s-9.964-7.523-19-.657-14.971,22.735-11.115,27.813,16.5-3.024,25.539-9.89" transform="translate(86.27 73.114)" fill="#f99f7d"/>
            </g>
          </g>
          <g id="Group_258" data-name="Group 258" transform="translate(200.236 169.7)">
            <g id="Group_257" data-name="Group 257" clip-path="url(#clip-path-6)">
              <path id="Path_247" data-name="Path 247" d="M139.892,118.144c9.038-6.866,11.285-10.092,7.429-15.17s-12.814-9.619-21.853-2.753-14.971,22.735-11.115,27.813,16.5-3.024,25.54-9.89" transform="translate(-114.579 -96.475)" fill="#ee5228"/>
              <path id="Path_248" data-name="Path 248" d="M141.358,119.294c9.038-6.866,11.285-10.092,7.429-15.17s-12.814-9.619-21.853-2.753-14.971,22.735-11.115,27.813,16.5-3.024,25.539-9.89" transform="translate(-113.469 -95.604)" fill="#ee5228"/>
              <g id="Group_256" data-name="Group 256" transform="translate(-15.465 5.863)" opacity="0.5">
                <g id="Group_255" data-name="Group 255">
                  <g id="Group_254" data-name="Group 254" clip-path="url(#clip-path-7)">
                    <path id="Path_249" data-name="Path 249" d="M112.262,118.772c-6.035,9.612-9.932,19.764-4.531,23.154s18.317-1.859,24.352-11.471,5.988-26.555.587-29.946-14.372,8.651-20.407,18.264" transform="translate(-105.164 -99.923)" fill="#ee5228"/>
                  </g>
                </g>
              </g>
            </g>
          </g>
          <g id="Group_260" data-name="Group 260">
            <g id="Group_259" data-name="Group 259" clip-path="url(#clip-path)">
              <path id="Path_251" data-name="Path 251" d="M32.986,122.623c-9.864-5.617-9.966-10.972-6.81-16.514s8.889-8.769,18.751-3.152S62.76,123.526,59.6,129.065s-16.755-.826-26.618-6.443" transform="translate(18.423 75.716)" fill="#f99f7d"/>
            </g>
          </g>
          <g id="Group_265" data-name="Group 265" transform="translate(42.762 175.74)">
            <g id="Group_264" data-name="Group 264" clip-path="url(#clip-path-9)">
              <path id="Path_252" data-name="Path 252" d="M34.6,121.981c-9.864-5.617-12.515-8.52-9.359-14.061s11.438-11.222,21.3-5.6,17.833,20.569,14.678,26.109S44.466,127.6,34.6,121.981" transform="translate(-24.607 -100.043)" fill="#ee5228"/>
              <path id="Path_253" data-name="Path 253" d="M33.3,123.314c-9.864-5.617-12.515-8.52-9.359-14.061s11.438-11.222,21.3-5.6,17.833,20.569,14.678,26.109-16.755-.826-26.618-6.443" transform="translate(-25.593 -99.034)" fill="#ee5228"/>
              <g id="Group_263" data-name="Group 263" transform="translate(18.511 4.215)" opacity="0.5">
                <g id="Group_262" data-name="Group 262">
                  <g id="Group_261" data-name="Group 261" clip-path="url(#clip-path-10)">
                    <path id="Path_254" data-name="Path 254" d="M60.145,118.732c7.248,8.736,12.446,18.285,7.539,22.356s-18.4.568-25.65-8.168-9.43-25.538-4.522-29.609S52.9,110,60.145,118.732" transform="translate(-34.874 -102.423)" fill="#ee5228"/>
                  </g>
                </g>
              </g>
            </g>
          </g>
          <g id="Group_270" data-name="Group 270" transform="translate(105.083 221.575)">
            <g id="Group_269" data-name="Group 269" clip-path="url(#clip-path-11)">
              <path id="Path_256" data-name="Path 256" d="M60.224,133.892s-2.172,21.358,3.417,26.871,13.5,6.181,16.419,3.113,8.416-18.859,8.416-18.859,2.743-8.419-4.549-13.878-20.091-8.86-23.7,2.753" transform="translate(-59.809 -126.111)" fill="#f99f7d"/>
              <path id="Path_257" data-name="Path 257" d="M62.506,134.57s-2.172,21.358,3.417,26.871,13.5,6.181,16.419,3.113S90.758,145.7,90.758,145.7s2.743-8.419-4.549-13.878-20.091-8.86-23.7,2.753" transform="translate(-58.082 -125.598)" fill="#f26b39"/>
              <g id="Group_268" data-name="Group 268" transform="translate(-7.864 -6.551)" opacity="0.5">
                <g id="Group_267" data-name="Group 267">
                  <g id="Group_266" data-name="Group 266" clip-path="url(#clip-path-12)">
                    <path id="Path_258" data-name="Path 258" d="M148.144,141.858c-.446,9.47-21.558,18.882-47.186,17.674s-46.065-12.582-45.618-22.05,21.585-16.166,47.21-14.957,46.04,9.864,45.594,19.334" transform="translate(-55.334 -122.383)" fill="#b0331b"/>
                  </g>
                </g>
              </g>
            </g>
          </g>
          <g id="Group_275" data-name="Group 275" transform="translate(142.39 221.461)">
            <g id="Group_274" data-name="Group 274" clip-path="url(#clip-path-13)">
              <path id="Path_260" data-name="Path 260" d="M109.357,133.255s3.386,21.2-1.876,27.024-13.128,6.94-16.217,4.045-9.479-18.348-9.479-18.348-3.219-8.249,3.748-14.116,19.555-9.994,23.825,1.4" transform="translate(-81.043 -126.046)" fill="#d44d37"/>
              <path id="Path_261" data-name="Path 261" d="M105.88,134.508s3.387,21.2-1.876,27.024-13.126,6.94-16.215,4.045-9.479-18.348-9.479-18.348-3.219-8.249,3.748-14.116,19.553-9.994,23.823,1.4" transform="translate(-83.673 -125.097)" fill="#f26b39"/>
              <g id="Group_273" data-name="Group 273" transform="translate(-22.039 -17.3)" opacity="0.5">
                <g id="Group_272" data-name="Group 272">
                  <g id="Group_271" data-name="Group 271" clip-path="url(#clip-path-14)">
                    <path id="Path_262" data-name="Path 262" d="M68.977,145.194c2.012,9.265,16.73,18.995,30.294,17.677,25.534-2.477,40.4-32.877,38.387-42.139s-17.02-2.323-42.092,3.122-28.6,12.076-26.588,21.34" transform="translate(-68.499 -116.2)" fill="#b0331b"/>
                  </g>
                </g>
              </g>
            </g>
          </g>
          <g id="Group_280" data-name="Group 280" transform="translate(65.825 131.659)">
            <g id="Group_279" data-name="Group 279" clip-path="url(#clip-path-15)">
              <path id="Path_264" data-name="Path 264" d="M183.6,142.538c-.938,34.249-34.129,50.951-74.478,49.847s-72.577-19.6-71.639-53.846S72.169,67.255,112.518,68.36s72.022,39.929,71.084,74.178" transform="translate(-37.465 -79.93)" fill="#f99f7d"/>
              <path id="Path_265" data-name="Path 265" d="M187.25,141.808c-.907,33.147-34.084,49.285-74.433,48.18s-72.593-19.032-71.685-52.179,34.621-68.965,74.97-67.86,72.054,38.712,71.147,71.859" transform="translate(-34.703 -78.728)" fill="#ee5228"/>
              <g id="Group_278" data-name="Group 278" transform="translate(62.9 -3.962)" opacity="0.5">
                <g id="Group_277" data-name="Group 277">
                  <g id="Group_276" data-name="Group 276" clip-path="url(#clip-path-16)">
                    <path id="Path_266" data-name="Path 266" d="M126.086,72.68s65.931,91.709-31.334,120.571c-78.708,23.356,84.137,5.157,84.137,5.157l-22.51-105.34Z" transform="translate(-73.265 -72.68)" fill="#e34f22"/>
                  </g>
                </g>
              </g>
              <path id="Path_267" data-name="Path 267" d="M119.414,83.826a58.812,58.812,0,0,1,4.863,12.931A90.154,90.154,0,0,1,126.72,110.4a97.186,97.186,0,0,1,.327,13.847c-.051,2.307-.357,4.6-.539,6.9-.3,2.284-.671,4.561-1.07,6.822.225-4.6.511-9.168.453-13.743-.023-1.144-.037-2.286-.033-3.428l-.153-3.421c-.049-2.282-.307-4.552-.478-6.826a134.179,134.179,0,0,0-2.068-13.522c-.439-2.242-1-4.457-1.625-6.657a67.205,67.205,0,0,0-2.119-6.539" transform="translate(24.57 -68.205)" fill="#b43f20"/>
              <path id="Path_268" data-name="Path 268" d="M42.17,134.244A40.94,40.94,0,0,1,40.181,123.6a58.944,58.944,0,0,1,.278-10.631,61.844,61.844,0,0,1,2.186-10.313c.457-1.7,1.139-3.324,1.71-4.979.673-1.623,1.409-3.224,2.166-4.809-1.023,3.352-2.091,6.668-2.859,10.064-.183.85-.374,1.7-.582,2.542l-.476,2.563c-.365,1.7-.543,3.437-.8,5.155a86.781,86.781,0,0,0-.589,10.463c-.012,1.755.088,3.519.248,5.285a45.566,45.566,0,0,0,.7,5.31" transform="translate(-35.505 -61.365)" fill="#b43f20"/>
              <path id="Path_269" data-name="Path 269" d="M43,130.479a40.885,40.885,0,0,1-.866-10.8,58.871,58.871,0,0,1,1.388-10.545,61.788,61.788,0,0,1,3.25-10.027c.631-1.639,1.479-3.187,2.219-4.775.84-1.544,1.738-3.059,2.657-4.554C50.285,93,48.875,96.19,47.759,99.488c-.272.828-.552,1.65-.845,2.467l-.741,2.5c-.541,1.652-.9,3.359-1.332,5.043a86.951,86.951,0,0,0-1.678,10.343c-.2,1.745-.279,3.51-.306,5.283A45.567,45.567,0,0,0,43,130.479" transform="translate(-33.955 -63.698)" fill="#b43f20"/>
              <path id="Path_270" data-name="Path 270" d="M116.214,135.37a40.934,40.934,0,0,0,2.569-10.524,58.846,58.846,0,0,0,.3-10.631,61.669,61.669,0,0,0-1.618-10.417c-.364-1.718-.954-3.38-1.434-5.065-.583-1.659-1.23-3.3-1.9-4.92.838,3.4,1.724,6.771,2.3,10.2.137.859.281,1.717.443,2.57l.336,2.586c.271,1.717.353,3.459.513,5.192a86.512,86.512,0,0,1,.016,10.479c-.084,1.753-.281,3.509-.536,5.264a45.587,45.587,0,0,1-.994,5.262" transform="translate(20.573 -60.645)" fill="#b43f20"/>
              <path id="Path_271" data-name="Path 271" d="M116.915,131.638a40.967,40.967,0,0,0,1.457-10.735,58.948,58.948,0,0,0-.81-10.605,61.773,61.773,0,0,0-2.7-10.191c-.541-1.671-1.3-3.263-1.956-4.89-.754-1.587-1.567-3.149-2.4-4.693,1.188,3.3,2.421,6.555,3.356,9.908.227.842.46,1.678.71,2.511l.6,2.537c.45,1.68.713,3.405,1.054,5.109a87.179,87.179,0,0,1,1.11,10.419c.1,1.753.086,3.521.016,5.292a45.825,45.825,0,0,1-.439,5.338" transform="translate(17.826 -63.134)" fill="#b43f20"/>
              <path id="Path_272" data-name="Path 272" d="M67.847,141.436a10.353,10.353,0,0,0,2.258-5.329,11.551,11.551,0,0,0-.864-5.853,18.281,18.281,0,0,0-3.171-5.021c-.327-.371-.627-.773-.982-1.116L64.015,123.1a22.093,22.093,0,0,0-2.256-1.938,17.964,17.964,0,0,0-5.341-2.839,13.332,13.332,0,0,0-3.08-.548,9.624,9.624,0,0,0-3.191.411,7.5,7.5,0,0,0-4.758,4.373,8.382,8.382,0,0,0-.58,3.24,10.509,10.509,0,0,0,.6,3.156,14.74,14.74,0,0,0,3.344,5.171,23.282,23.282,0,0,0,4.542,3.944,10.848,10.848,0,0,0,5.954,1.956,5.862,5.862,0,0,0,3.219-1.086,5.342,5.342,0,0,0,1.861-2.831,6.941,6.941,0,0,0,.246-1.636c-.019-.288-.035-.583-.072-.864l-.193-.8a11.689,11.689,0,0,0-1.355-2.774,15.879,15.879,0,0,0-4.171-4.287,8.069,8.069,0,0,0-2.762-1.269,4.317,4.317,0,0,0-3.048.341,2.789,2.789,0,0,0-1.153,1.068,2.981,2.981,0,0,0-.315,1.5,6.223,6.223,0,0,0,.952,2.748,6.1,6.1,0,0,1-.627-2.75,2.646,2.646,0,0,1,.385-1.262,2.268,2.268,0,0,1,1.016-.77c1.687-.708,3.528.095,4.932,1.247a14.807,14.807,0,0,1,3.588,4.173,11.318,11.318,0,0,1,1.059,2.453l.119.613.025.573a5.227,5.227,0,0,1-.241,1.2,3.6,3.6,0,0,1-1.321,1.861,4.1,4.1,0,0,1-2.191.652,9,9,0,0,1-4.788-1.775,22.287,22.287,0,0,1-4.1-3.66,12.661,12.661,0,0,1-2.866-4.466,8.291,8.291,0,0,1-.5-2.486,6.225,6.225,0,0,1,.406-2.412,5.506,5.506,0,0,1,3.435-3.214,7.675,7.675,0,0,1,2.5-.387,11.566,11.566,0,0,1,2.6.4,17.707,17.707,0,0,1,4.9,2.393,20.611,20.611,0,0,1,2.2,1.731l1.063.924c.35.313.654.666.984,1a17.374,17.374,0,0,1,3.252,4.5,10.987,10.987,0,0,1,1.235,5.382,10.645,10.645,0,0,1-1.664,5.375" transform="translate(-31.905 -42.511)" fill="#b43f20"/>
              <path id="Path_273" data-name="Path 273" d="M101.862,141.436a10.353,10.353,0,0,1-2.258-5.329,11.551,11.551,0,0,1,.864-5.853,18.281,18.281,0,0,1,3.171-5.021c.327-.371.627-.773.982-1.116l1.072-1.019a22.088,22.088,0,0,1,2.256-1.938,17.964,17.964,0,0,1,5.341-2.839,13.332,13.332,0,0,1,3.08-.548,9.624,9.624,0,0,1,3.191.411,7.5,7.5,0,0,1,4.758,4.373,8.382,8.382,0,0,1,.58,3.24,10.455,10.455,0,0,1-.6,3.156,14.74,14.74,0,0,1-3.344,5.171,23.282,23.282,0,0,1-4.542,3.944,10.848,10.848,0,0,1-5.954,1.956,5.867,5.867,0,0,1-3.219-1.086,5.342,5.342,0,0,1-1.861-2.831,6.94,6.94,0,0,1-.246-1.636c.019-.288.035-.583.072-.864l.193-.8a11.689,11.689,0,0,1,1.355-2.774,15.879,15.879,0,0,1,4.171-4.287,8.069,8.069,0,0,1,2.762-1.269,4.318,4.318,0,0,1,3.048.341,2.789,2.789,0,0,1,1.153,1.068,2.981,2.981,0,0,1,.314,1.5,6.223,6.223,0,0,1-.952,2.748,6.1,6.1,0,0,0,.627-2.75,2.645,2.645,0,0,0-.385-1.262,2.268,2.268,0,0,0-1.016-.77c-1.687-.708-3.528.095-4.932,1.247a14.807,14.807,0,0,0-3.588,4.173,11.318,11.318,0,0,0-1.059,2.453l-.119.613-.025.573a5.227,5.227,0,0,0,.241,1.2,3.6,3.6,0,0,0,1.321,1.861,4.1,4.1,0,0,0,2.191.652,9,9,0,0,0,4.788-1.775,22.287,22.287,0,0,0,4.1-3.66,12.661,12.661,0,0,0,2.866-4.466,8.29,8.29,0,0,0,.5-2.486,6.225,6.225,0,0,0-.406-2.412,5.506,5.506,0,0,0-3.435-3.214,7.675,7.675,0,0,0-2.5-.387,11.566,11.566,0,0,0-2.6.4,17.707,17.707,0,0,0-4.9,2.393,20.612,20.612,0,0,0-2.2,1.731l-1.063.924c-.35.313-.654.666-.984,1a17.374,17.374,0,0,0-3.252,4.5,10.987,10.987,0,0,0-1.235,5.382,10.645,10.645,0,0,0,1.664,5.375" transform="translate(9.512 -42.511)" fill="#b43f20"/>
            </g>
          </g>
          <g id="Group_282" data-name="Group 282" transform="translate(85.634 141.065)">
            <g id="Group_281" data-name="Group 281" clip-path="url(#clip-path-17)">
              <path id="Path_275" data-name="Path 275" d="M154.933,125.924c-.573,20.947-24.638,31.046-53.959,30.243s-52.8-12.2-52.225-33.149,24.979-43.51,54.3-42.709,52.456,24.668,51.884,45.615" transform="translate(-48.739 -80.288)" fill="#f3d0b3"/>
              <path id="Path_276" data-name="Path 276" d="M151.6,125.833c-.573,20.947-24.638,31.046-53.959,30.243s-52.8-12.2-52.225-33.149,24.979-43.51,54.3-42.709,52.456,24.668,51.884,45.615" transform="translate(-51.258 -80.357)" fill="#ffe6cc"/>
              <path id="Path_277" data-name="Path 277" d="M186.155,120.489s-.33-2.015-6.928-5.728a24.087,24.087,0,0,1-6.954-6.171c-3.122-3.981-4.392-6.123-8.253-9.326-.411-.343-4.19-3.031-6.065-4.106a21.321,21.321,0,0,0-9.1-2.251,14.926,14.926,0,0,0,1.7-3.98,13.86,13.86,0,0,0,.355-1.94c.432-3.771-.752-7.448-3.958-9.431,0,0-11.833-6.655-21.625,7.29a26.214,26.214,0,0,1,1.738-6.5,15.476,15.476,0,0,1,1.84-3.263,8.187,8.187,0,0,0,1.051-1.88c1.9-4.747-.067-11.659-5.545-14.288-6.257-3-18.919-.235-25.675,11.661a44.941,44.941,0,0,0-5.294,19.511,16.077,16.077,0,0,1-1.269-4.985A27.567,27.567,0,0,0,89.052,74.76c-.488-.945-.884-1.6-1.066-1.9-.069-.109-.116-.181-.116-.181S75.536,59.717,69.01,81.326a27.28,27.28,0,0,0-.792,14.291C61.2,96.81,45.925,101.312,39.511,118.17c-3.064,8.047-1.182,12.728,2.871,15.14a14.17,14.17,0,0,0,4.127,1.581c7.479,1.7,17.861-.778,22.44-3.973,4.389-3.062,11.088-12.74,13.557-21.263a17.521,17.521,0,0,0,10.313-1,10.82,10.82,0,0,0,4.649-3.235,13.155,13.155,0,0,0,5.069,3.092c8.175,2.881,12.174,1.01,16.25-4.784,3.547,6.16,7.07,7.715,13.179,7.29A6.639,6.639,0,0,0,135.1,109.9c.137.548,1.121,3.326,1.3,3.923,2.307,7.789,9.676,17.756,24.918,19.633,9.421,1.16,16.965-.636,21.247-3.908a9.821,9.821,0,0,0,3.5-4.586,7.522,7.522,0,0,0,.093-4.47" transform="translate(-56.875 -97.309)" fill="#f3d0b3"/>
            </g>
          </g>
          <g id="Group_284" data-name="Group 284">
            <g id="Group_283" data-name="Group 283" clip-path="url(#clip-path)">
              <path id="Path_279" data-name="Path 279" d="M83.151,126.114a8.772,8.772,0,1,0,8.528,9.008,8.776,8.776,0,0,0-8.528-9.008" transform="translate(56.12 95.464)" fill="#0c5b9f"/>
              <path id="Path_280" data-name="Path 280" d="M82.584,126.815a7.539,7.539,0,1,0,7.33,7.743,7.541,7.541,0,0,0-7.33-7.743m1.172,13.706a2.231,2.231,0,0,1-.445.766.482.482,0,0,1-.334.177.208.208,0,0,1-.132-.047c-.141-.119-.058-.283.042-.476.04-.077.095-.181.148-.3a5.921,5.921,0,0,1-.831.032,6.295,6.295,0,0,1-2.37-12.051l.032-.069c.076-.169.149-.322.225-.459.061-.116.125-.218.177-.311.032-.053.061-.1.091-.142a1.161,1.161,0,0,1,.079-.123c.074-.111.121-.17.123-.174l.144-.188.1.211c.079.16.155.307.232.446.035.063.07.123.1.183s.074.128.111.188a6.039,6.039,0,0,1,1.293-.1,6.3,6.3,0,0,1,1.207,12.438" transform="translate(56.651 95.995)" fill="#ffb900"/>
              <path id="Path_281" data-name="Path 281" d="M80.645,133.1c-1.892-1.673-2.941-1-4.535-2.732,0,0-1.425,6.7,6.137,6.306a4.231,4.231,0,0,0-1.6-3.574m-1.6.35a.318.318,0,0,1,.292.074l.441.392a.336.336,0,0,1,.028.474l-.018.016-.019.028-.365.476a.354.354,0,0,1-.5.069l-.506-.385a.358.358,0,0,1-.068-.5l.385-.5a.349.349,0,0,1,.329-.139" transform="translate(57.533 98.686)" fill="#ffb900"/>
              <path id="Path_282" data-name="Path 282" d="M80.165,133.035a6.023,6.023,0,0,0-2.159-1.232,5.67,5.67,0,0,1-1.745-.912,5.012,5.012,0,0,0,1,3.449c.886,1.042,2.356,1.55,4.366,1.513a4.013,4.013,0,0,0-1.467-2.818m-.55.958-.018.016-.019.028-.365.476a.354.354,0,0,1-.5.069l-.5-.385a.36.36,0,0,1-.07-.5l.385-.5a.349.349,0,0,1,.329-.139.322.322,0,0,1,.293.074l.441.392a.335.335,0,0,1,.026.474" transform="translate(57.723 99.082)" fill="#818181"/>
              <path id="Path_283" data-name="Path 283" d="M81.123,135.741a5,5,0,0,1-3.839-1.49,4.869,4.869,0,0,1-.994-3.293,5.819,5.819,0,0,0,1.66.845,6,6,0,0,1,2.149,1.223,3.967,3.967,0,0,1,1.444,2.716c-.142,0-.283,0-.42,0m-2.332-2.8a.407.407,0,0,0-.339.165l-.385.5a.421.421,0,0,0,.081.583l.5.385a.407.407,0,0,0,.239.084.413.413,0,0,0,.343-.163l.365-.476.021-.032a.388.388,0,0,0-.019-.566l-.441-.394a.37.37,0,0,0-.244-.1.336.336,0,0,0-.1.011c.007,0-.007-.005-.023-.005" transform="translate(57.748 99.134)" fill="#fff"/>
              <path id="Path_284" data-name="Path 284" d="M81.98,131.152c-.764-1.251-2-1.4-3.268-3.987,0,0-2.736,3.526-.2,6.764,1.112,1.515,2.908,1.985,3.04,4.162s-.743,2.8-.576,2.946,1.156-.7,1.023-3.923c-.063-1.5,1.674-3.055-.018-5.963m-1.847,1.927a.309.309,0,0,1-.139.051.389.389,0,0,1-.413-.184l-.1-.165,0-.005-.265-.436a.4.4,0,0,1,.134-.552l.606-.372a.4.4,0,0,1,.488.053.359.359,0,0,1,.188.172l.3.58a.367.367,0,0,1-.158.5l-.3.158Z" transform="translate(58.617 96.262)" fill="#ffb900"/>
              <path id="Path_285" data-name="Path 285" d="M81.535,131.263a7.509,7.509,0,0,0-1.713-1.885c-.035-.039-.072-.077-.112-.114a7.655,7.655,0,0,1-1.221-1.818,6.771,6.771,0,0,0-.453,1.021,6.109,6.109,0,0,0-.318,1.377,5.483,5.483,0,0,0,.13,2.136c.4,1.474,1.745,2.469,3.56,3.973a8.606,8.606,0,0,0,.645-2.6,4.12,4.12,0,0,0-.517-2.094m-1.578,1.6a.31.31,0,0,1-.139.051.389.389,0,0,1-.413-.184l-.1-.165,0-.005-.265-.436a.4.4,0,0,1,.134-.552l.606-.372a.4.4,0,0,1,.488.053.359.359,0,0,1,.188.172l.3.58a.367.367,0,0,1-.158.5l-.3.158Z" transform="translate(58.793 96.474)" fill="#818181"/>
              <path id="Path_286" data-name="Path 286" d="M80.949,135.466c-1.571-1.293-2.708-2.23-3.071-3.556a5.4,5.4,0,0,1-.128-2.114,6.011,6.011,0,0,1,.316-1.363l.011-.028a6.508,6.508,0,0,1,.385-.887,7.509,7.509,0,0,0,1.181,1.732c.04.039.076.077.111.114.153.155.307.288.457.416a5.286,5.286,0,0,1,1.249,1.46,4.044,4.044,0,0,1,.508,2.063,8.429,8.429,0,0,1-.61,2.5Zm-.98-4.436a.457.457,0,0,0-.253.069l-.606.372a.458.458,0,0,0-.207.286.449.449,0,0,0,.054.348l.265.436.107.17a.457.457,0,0,0,.376.221.642.642,0,0,0,.1-.009.374.374,0,0,0,.16-.061l.325-.2.3-.156a.425.425,0,0,0,.183-.58l-.3-.578a.418.418,0,0,0-.218-.2.414.414,0,0,0-.288-.118" transform="translate(58.818 96.528)" fill="#fff"/>
              <path id="Path_287" data-name="Path 287" d="M80.682,130.421l-.48-.784a.665.665,0,0,0-.919-.221l-.784.48a.674.674,0,0,0-.318.48.683.683,0,0,0,.1.443l.021.032v0l.457.745a.675.675,0,0,0,.924.225l.093-.06.072-.042.615-.376a.671.671,0,0,0,.221-.924m-1.11,1.03a.31.31,0,0,1-.139.051.389.389,0,0,1-.413-.184l-.1-.165,0-.005-.265-.436a.4.4,0,0,1,.134-.552l.606-.372a.4.4,0,0,1,.488.053.4.4,0,0,1,.063.081l.372.606a.4.4,0,0,1-.134.552l-.278.17Z" transform="translate(59.179 97.89)" fill="#ffb900"/>
              <path id="Path_288" data-name="Path 288" d="M79.178,132.524l-.648-.5a.606.606,0,0,0-.836.114l-.5.654a.594.594,0,0,0,.119.836l.648.5a.593.593,0,0,0,.833-.118l.5-.645a.6.6,0,0,0-.116-.842m-.223.74-.365.476a.354.354,0,0,1-.5.069l-.506-.385a.358.358,0,0,1-.069-.5l.385-.5a.349.349,0,0,1,.329-.139.368.368,0,0,1,.172.069l.506.388a.353.353,0,0,1,.065.5Z" transform="translate(58.346 99.854)" fill="#ffb900"/>
              <path id="Path_289" data-name="Path 289" d="M83.068,130.025c-.631,1.643-1.539,1.469-2.391,3.152a3.16,3.16,0,0,0-.121,2.925c5.355-1.82,2.512-6.077,2.512-6.077m-.936,3.83-.346-.234a.231.231,0,0,1-.061-.325l.234-.346a.231.231,0,0,1,.325-.062l.346.234a.231.231,0,0,1,.061.325l-.234.346a.231.231,0,0,1-.325.062" transform="translate(60.758 98.427)" fill="#ffb900"/>
              <path id="Path_290" data-name="Path 290" d="M82.879,130.577a4.59,4.59,0,0,1-.866.959,4.3,4.3,0,0,0-1.133,1.42,2.922,2.922,0,0,0-.267,2.172,3.807,3.807,0,0,0,2.437-2.149,3.485,3.485,0,0,0-.17-2.4m-.935,2.86L81.6,133.2a.231.231,0,0,1-.061-.325l.234-.346a.231.231,0,0,1,.325-.062l.346.234a.231.231,0,0,1,.061.325l-.234.346a.231.231,0,0,1-.325.062" transform="translate(60.946 98.845)" fill="#818181"/>
              <path id="Path_291" data-name="Path 291" d="M80.626,134.993a2.913,2.913,0,0,1,.279-2.064,4.263,4.263,0,0,1,1.121-1.4l.026-.025a4.73,4.73,0,0,0,.787-.852,3.368,3.368,0,0,1,.128,2.254,3.709,3.709,0,0,1-2.342,2.089m1.319-2.678a.294.294,0,0,0-.251.128l-.232.348a.282.282,0,0,0-.047.218.294.294,0,0,0,.125.19l.346.232a.279.279,0,0,0,.156.053.3.3,0,0,0,.251-.13l.234-.346a.291.291,0,0,0,.046-.22.288.288,0,0,0-.123-.188l-.348-.234a.29.29,0,0,0-.156-.051" transform="translate(60.972 98.9)" fill="#fff"/>
              <path id="Path_292" data-name="Path 292" d="M82.3,131.863l-.446-.3a.4.4,0,0,0-.546.1l-.3.446a.393.393,0,0,0,.107.546l.446.3a.39.39,0,0,0,.543-.1l.3-.446a.4.4,0,0,0-.1-.546m-.112.473-.234.346a.231.231,0,0,1-.325.062l-.346-.234a.231.231,0,0,1-.061-.325l.234-.346a.231.231,0,0,1,.325-.062l.346.234a.231.231,0,0,1,.061.325" transform="translate(61.265 99.538)" fill="#ffb900"/>
            </g>
          </g>
          <g id="Group_295" data-name="Group 295" transform="translate(16.604 64.158)">
            <g id="Group_294" data-name="Group 294" clip-path="url(#clip-path-19)">
              <path id="Path_293" data-name="Path 293" d="M89.96,78.9,53.933,63.884,46.147,39.2A3.838,3.838,0,0,0,41.333,36.7c-2.773.585-6.5,2.184-5.331,5.7l5.088,16.134L18.252,49.019c-4.259-1.843-7.381,2.031-8.376,5.786A5.5,5.5,0,0,0,12.84,62L84.548,91.884C91.537,94.913,97.031,81.725,89.96,78.9" transform="translate(-9.449 -36.516)" fill="#f26b39"/>
              <path id="Path_294" data-name="Path 294" d="M14.123,44.206s-1.374,6.585,4.19,9.561S86.59,82.348,86.59,82.348s5.469,2.282,9.952-.669-4.783,10.148-4.783,10.148l-35.9-9.366L5.11,56.152Z" transform="translate(-12.735 -30.695)" fill="#d24d29"/>
              <g id="Group_287" data-name="Group 287" transform="translate(1.307 -0.409)" opacity="0.51">
                <g id="Group_286" data-name="Group 286">
                  <g id="Group_285" data-name="Group 285" clip-path="url(#clip-path-20)">
                    <path id="Path_295" data-name="Path 295" d="M10.194,49.187l3.294.529a42.14,42.14,0,0,1,5.385,1.718c7.624,2.62,20.219,8.932,20.92,9.259l3.966,1.9s-9.115-23.378-4.928-25.58-9.012,1.274-9.012,1.274L10.8,45.439Z" transform="translate(-10.194 -36.284)" fill="#f2dbc8"/>
                  </g>
                </g>
              </g>
              <path id="Path_296" data-name="Path 296" d="M28.357,34.854s3.73,19.72,9.872,31.977c0,0,36.84,13.443,40.725,18.162s-1.739-13.4-1.739-13.4l-31.086-11.6Z" transform="translate(4.862 -37.774)" fill="#d24d29"/>
              <g id="Group_290" data-name="Group 290" transform="translate(5.743 17.067)" opacity="0.51">
                <g id="Group_289" data-name="Group 289">
                  <g id="Group_288" data-name="Group 288" clip-path="url(#clip-path-21)">
                    <path id="Path_297" data-name="Path 297" d="M12.719,46.23c6.253,2.11,12.439,4.4,18.613,6.717S43.626,57.722,49.779,60.1c6.095,2.511,12.222,4.953,18.292,7.53l9.092,3.9C80.17,72.892,83.2,74.2,86.184,75.6c-3.136-1.038-6.23-2.184-9.345-3.272l-9.275-3.445c-6.174-2.317-12.292-4.77-18.438-7.154-6.093-2.516-12.218-4.951-18.288-7.532s-12.128-5.185-18.118-7.97" transform="translate(-12.718 -46.23)" fill="#b43f20"/>
                  </g>
                </g>
              </g>
              <g id="Group_293" data-name="Group 293" transform="translate(16.775 24.867)" opacity="0.51">
                <g id="Group_292" data-name="Group 292">
                  <g id="Group_291" data-name="Group 291" clip-path="url(#clip-path-22)">
                    <path id="Path_298" data-name="Path 298" d="M19,50.669a158.438,158.438,0,0,1,17.7,5.86A122.429,122.429,0,0,1,53.612,64.4c-2.966-.968-5.916-1.927-8.832-2.987-2.927-1.03-5.824-2.136-8.718-3.252-5.768-2.284-11.5-4.656-17.064-7.5" transform="translate(-18.998 -50.669)" fill="#b43f20"/>
                  </g>
                </g>
              </g>
            </g>
          </g>
          <g id="Group_297" data-name="Group 297" transform="translate(12.946 99.113)">
            <g id="Group_296" data-name="Group 296" clip-path="url(#clip-path-23)">
              <path id="Path_300" data-name="Path 300" d="M8.817,84.064c5.928.713,19.857,1.114,24.645-9.345a16.337,16.337,0,0,0,.645-1.7c.7-2.1,3.723-10.208,9.9-13.067.791-.367.439-1.729-.511-1.982-4.28-1.135-11.638-2.5-17.888-.664a15.705,15.705,0,0,0-9.732,8.7A135.957,135.957,0,0,1,7.594,81.4a1.863,1.863,0,0,0,1.223,2.662" transform="translate(-7.368 -56.411)" fill="#83b92b"/>
              <path id="Path_301" data-name="Path 301" d="M46.7,60.172C39.924,62.846,36.33,71.216,35.493,73.39a16.99,16.99,0,0,1-.768,1.746C29.149,85.868,14.281,84.629,8,83.531a2.014,2.014,0,0,1-1.462-2.036c.088.035.246.55.343.566,6.241,1.068,11.865-9.286,17.756-15.98.39-.443,4.707-4.069,5.178-4.407,4.979-3.558,7.731-3.656,13.4-3.89a13.653,13.653,0,0,0,2.481.1c.183.054.365.111.538.167,1.014.318,1.335,1.773.467,2.119" transform="translate(-7.999 -55.372)" fill="#58822e"/>
              <path id="Path_302" data-name="Path 302" d="M6.766,82.366a12.551,12.551,0,0,0,5.325-2.451,21.049,21.049,0,0,0,4.259-4.269c1.219-1.639,2.319-3.475,3.6-5.13A44.542,44.542,0,0,1,24,65.81a29.389,29.389,0,0,1,10.231-6.722,23.473,23.473,0,0,1,6.241-1.36,24.675,24.675,0,0,1,6.8.5,24.9,24.9,0,0,0-12.668,1.646,30.435,30.435,0,0,0-9.9,6.808,43.588,43.588,0,0,0-4.067,4.566c-1.293,1.6-2.358,3.43-3.72,5.037a20.806,20.806,0,0,1-4.549,4.113,11.908,11.908,0,0,1-5.61,1.971" transform="translate(-7.824 -55.456)" fill="#3a5221"/>
              <path id="Path_303" data-name="Path 303" d="M7.051,85.768s2.18-.689,5.5-4.927,7.731-17.41,15.064-19.415c7.472-2.043,12.016-2.107,18.206-.935,6.337,1.2-14.089-7.567-14.089-7.567L11.072,62.158,5.552,72.4Z" transform="translate(-8.743 -59.05)" fill="#b2cd54"/>
            </g>
          </g>
          <g id="Group_308" data-name="Group 308" transform="translate(142.175 16.946)">
            <g id="Group_307" data-name="Group 307" clip-path="url(#clip-path-24)">
              <path id="Path_305" data-name="Path 305" d="M144.347,12.511A47.248,47.248,0,0,0,80.993,59.477a44.579,44.579,0,0,0,1.1,7.768,47.236,47.236,0,1,0,62.252-54.734m-23.428,64.3L108.251,49.636,135.428,36.97,148.1,64.145Z" transform="translate(-80.919 -9.645)" fill="url(#linear-gradient)"/>
              <g id="Group_300" data-name="Group 300" transform="translate(-21.189 -15.811)" opacity="0.45">
                <g id="Group_299" data-name="Group 299" transform="translate(0 0)">
                  <g id="Group_298" data-name="Group 298" clip-path="url(#clip-path-25)">
                    <path id="Path_306" data-name="Path 306" d="M173.987,29.425s-40.539-29.1-70.7,5.737,8.593,74.173,8.593,74.173L68.86,57.734,89.979.646l77.428,19.13Z" transform="translate(-68.86 -0.646)" fill="url(#linear-gradient)"/>
                  </g>
                </g>
              </g>
              <g id="Group_303" data-name="Group 303" transform="translate(-18.29 -16.946)" opacity="0.26">
                <g id="Group_302" data-name="Group 302">
                  <g id="Group_301" data-name="Group 301" clip-path="url(#clip-path-26)">
                    <path id="Path_307" data-name="Path 307" d="M154.613,0s39.966,43.021,3.753,83.379-87.856.933-87.856.933l66.6,42.595,63.52-33.093L166.851,6.255Z" transform="translate(-70.51)" fill="url(#linear-gradient)"/>
                  </g>
                </g>
              </g>
              <g id="Group_306" data-name="Group 306" transform="translate(-13.768 -3.864)" opacity="0.26">
                <g id="Group_305" data-name="Group 305">
                  <g id="Group_304" data-name="Group 304" clip-path="url(#clip-path-27)">
                    <path id="Path_308" data-name="Path 308" d="M157.186,7.446s39.966,43.021,3.753,83.379-87.856.933-87.856.933l66.6,42.595L203.2,101.26,169.424,13.7Z" transform="translate(-73.084 -7.446)" fill="url(#linear-gradient)"/>
                  </g>
                </g>
              </g>
            </g>
          </g>
          <g id="Group_310" data-name="Group 310">
            <g id="Group_309" data-name="Group 309" clip-path="url(#clip-path)">
              <path id="Path_310" data-name="Path 310" d="M137.907,16.735a38.927,38.927,0,1,0,23.257,49.9,38.921,38.921,0,0,0-23.257-49.9M117.83,71.867l-11.8-25.313,25.313-11.8,11.8,25.313Z" transform="translate(64.842 10.882)" fill="#a56e1d"/>
            </g>
          </g>
          <g id="Group_324" data-name="Group 324" transform="translate(152.17 26.92)">
            <g id="Group_323" data-name="Group 323" clip-path="url(#clip-path-29)">
              <path id="Path_311" data-name="Path 311" d="M136.625,17.572a37.272,37.272,0,1,0,22.257,47.772,37.309,37.309,0,0,0-22.257-47.772M117.081,71.243,105.223,45.8l25.439-11.856L142.52,59.385Z" transform="translate(-86.609 -15.322)" fill="#ffb900"/>
              <g id="Group_313" data-name="Group 313" transform="translate(-15.89 -7.831)" opacity="0.45">
                <g id="Group_312" data-name="Group 312">
                  <g id="Group_311" data-name="Group 311" clip-path="url(#clip-path-30)">
                    <rect id="Rectangle_96" data-name="Rectangle 96" width="89.546" height="6.184" transform="matrix(0.896, -0.445, 0.445, 0.896, -0.001, 39.847)" fill="#ffe5a1"/>
                  </g>
                </g>
              </g>
              <g id="Group_316" data-name="Group 316" transform="translate(-11.461 2.697)" opacity="0.37">
                <g id="Group_315" data-name="Group 315">
                  <g id="Group_314" data-name="Group 314" clip-path="url(#clip-path-31)">
                    <rect id="Rectangle_98" data-name="Rectangle 98" width="89.547" height="13.991" transform="translate(0 39.851) rotate(-26.427)" fill="#ffe5a1"/>
                  </g>
                </g>
              </g>
              <g id="Group_319" data-name="Group 319" transform="translate(4.881 39.295)" opacity="0.53">
                <g id="Group_318" data-name="Group 318">
                  <g id="Group_317" data-name="Group 317" clip-path="url(#clip-path-32)">
                    <rect id="Rectangle_100" data-name="Rectangle 100" width="89.547" height="13.991" transform="translate(0 39.851) rotate(-26.427)" fill="#df9612"/>
                  </g>
                </g>
              </g>
              <g id="Group_322" data-name="Group 322" transform="translate(-0.48 32.875)" opacity="0.53">
                <g id="Group_321" data-name="Group 321">
                  <g id="Group_320" data-name="Group 320" clip-path="url(#clip-path-33)">
                    <rect id="Rectangle_102" data-name="Rectangle 102" width="89.546" height="4.591" transform="matrix(0.895, -0.445, 0.445, 0.895, 0.001, 39.852)" fill="#df9612"/>
                  </g>
                </g>
              </g>
            </g>
          </g>
          <g id="Group_326" data-name="Group 326">
            <g id="Group_325" data-name="Group 325" clip-path="url(#clip-path)">
              <path id="Path_313" data-name="Path 313" d="M126.378,23.252,94.527,38.088l14.852,31.844,31.84-14.839ZM99.23,39.8,124.67,27.943l11.856,25.439L111.088,65.24Z" transform="translate(71.555 17.601)" fill="#e88211"/>
            </g>
          </g>
          <g id="Group_328" data-name="Group 328" transform="translate(167.761 114.42)">
            <g id="Group_327" data-name="Group 327" clip-path="url(#clip-path-35)">
              <path id="Path_314" data-name="Path 314" d="M133.181,104.627s8.47-1.906,15.2.592c7.153,2.655,17.484-2.773,18.93-11.907s-6.923-24.248-24.689-28.333-46.309,2.1-47.092,18.3c-.954,19.738,14.985,27.825,37.654,21.346" transform="translate(-95.479 -66.156)" fill="#d3df8d"/>
              <path id="Path_315" data-name="Path 315" d="M129.038,107.333s3.375-1.648,10.1.85c7.151,2.655,23.753-2.836,25.2-11.97s-8.094-24.443-25.861-28.528-46.309,2.1-47.092,18.3c-.954,19.738,14.985,27.825,37.654,21.346" transform="translate(-98.615 -64.108)" fill="#83b92b"/>
              <path id="Path_316" data-name="Path 316" d="M124.19,116.977a99.081,99.081,0,0,1,10.737-2.527c7.492-1.437,19.629-1.859,21.073-10.993s-7.074-21.989-24.84-26.074-38.251-.067-39.035,16.133c-.954,19.738,9.4,29.941,32.065,23.461" transform="translate(-98.069 -56.966)" fill="#70a02e"/>
            </g>
          </g>
          <g id="Group_330" data-name="Group 330" transform="translate(149.895 87.338)">
            <g id="Group_329" data-name="Group 329" clip-path="url(#clip-path-36)">
              <path id="Path_318" data-name="Path 318" d="M132.821,88.726s5.686-7.088,12.821-9.432c7.583-2.495,12.494-13.676,7.717-22.092S131.876,41.88,114.675,50.13,78.16,82.065,88.089,95.829c12.1,16.772,30.415,12.989,44.733-7.1" transform="translate(-85.263 -52.2)" fill="#d3df8d"/>
              <path id="Path_319" data-name="Path 319" d="M131.2,93.708s1.685-3.551,8.82-5.9c7.583-2.493,17.582-17.818,12.8-26.233s-22.57-14.716-39.771-6.466-36.515,31.935-26.587,45.7c12.1,16.772,30.415,12.989,44.733-7.1" transform="translate(-86.491 -48.542)" fill="#83b92b"/>
              <path id="Path_320" data-name="Path 320" d="M133.865,103.922A103.462,103.462,0,0,1,141,94.849c5.192-6.063,14.846-14.326,10.069-22.744s-20.133-13.374-37.334-5.123S82.4,91.885,92.324,105.649c12.1,16.772,27.223,18.366,41.54-1.727" transform="translate(-82.495 -39.836)" fill="#70a02e"/>
            </g>
          </g>
          <g id="Group_332" data-name="Group 332" transform="translate(55.642 102.966)">
            <g id="Group_331" data-name="Group 331" clip-path="url(#clip-path-37)">
              <path id="Path_322" data-name="Path 322" d="M49.155,58.579S21.017,57.46,38.1,88.775,87.014,113.516,95,93.522s-15.59-15.565-27.154-25.7c-7.834-6.868-18.7-9.24-18.7-9.24" transform="translate(-30.966 -58.627)" fill="#d3df8d"/>
              <path id="Path_323" data-name="Path 323" d="M51,59.139s-28.138-1.119-11.051,30.2,48.911,24.742,56.9,4.747-15.59-15.565-27.154-25.7c-7.834-6.868-18.7-9.24-18.7-9.24" transform="translate(-29.573 -58.203)" fill="#83b92b"/>
              <path id="Path_324" data-name="Path 324" d="M63.647,60.45S35.509,59.331,52.6,90.646s48.911,24.742,56.9,4.747-15.59-15.565-27.154-25.7c-7.834-6.868-18.7-9.24-18.7-9.24" transform="translate(-19.996 -57.21)" fill="#70a02e"/>
            </g>
          </g>
          <g id="Group_334" data-name="Group 334" transform="translate(86.453 71.472)">
            <g id="Group_333" data-name="Group 333" clip-path="url(#clip-path-38)">
              <path id="Path_326" data-name="Path 326" d="M88.992,72.054s-2.753-8.068-1.023-14.9c1.84-7.262-4.545-16.776-13.617-17.225s-22.941,9.308-25.06,27.084S56.221,112,72.117,111.059C91.487,109.912,97.705,93.5,88.992,72.054" transform="translate(-49.37 -41.258)" fill="#d3df8d"/>
              <path id="Path_327" data-name="Path 327" d="M89.742,74.318s-1.964-3.12-.234-9.952C91.348,57.1,84.175,42.643,75.1,42.193S52.162,51.5,50.043,69.277s6.928,44.986,22.823,44.046c19.371-1.147,25.589-17.558,16.876-39.005" transform="translate(-48.802 -39.544)" fill="#83b92b"/>
              <path id="Path_328" data-name="Path 328" d="M101.781,76.717a97.492,97.492,0,0,1-3.6-10.215C95.991,59.339,94.3,47.535,85.233,47.085S64.513,56.3,62.394,74.078s3.962,37.352,19.857,36.41c19.371-1.146,28.242-12.323,19.529-33.771" transform="translate(-39.53 -35.841)" fill="#70a02e"/>
            </g>
          </g>
          <g id="Group_336" data-name="Group 336" transform="translate(123.259 64.348)">
            <g id="Group_335" data-name="Group 335" clip-path="url(#clip-path-39)">
              <path id="Path_330" data-name="Path 330" d="M112.07,71.074s-.351-8.889,3.412-15.2c4-6.713.446-18.129-8.49-21.279S81.277,37.072,73.868,54.218s-6.46,47.05,9.716,50.842c19.713,4.619,30.816-9.943,28.486-33.985" transform="translate(-70.71 -38.793)" fill="#d3df8d"/>
              <path id="Path_331" data-name="Path 331" d="M114.162,77.188s-.747-3.774,3.493-9.781c4.508-6.387.882-23.93-7.783-27.76s-23.786,1.263-32.5,17.786S67.3,103.845,83.139,108.874c19.3,6.127,31.49-7.536,31.023-31.685" transform="translate(-69.531 -35.251)" fill="#83b92b"/>
              <path id="Path_332" data-name="Path 332" d="M124.145,82.147a101.623,101.623,0,0,1-.557-11.287c-.06-7.815-5.257-19.727-14.193-22.878s-16.445,2.658-23.855,19.8-7.154,38.532,9.022,42.324c19.713,4.619,31.912-3.92,29.582-27.962" transform="translate(-62.052 -28.645)" fill="#70a02e"/>
            </g>
          </g>
          <g id="Group_338" data-name="Group 338">
            <g id="Group_337" data-name="Group 337" clip-path="url(#clip-path)">
              <path id="Path_334" data-name="Path 334" d="M68.874,94.66s2.172.854,5.057,2,5.315-.086,4.979-1.539-3.816-3.02-6.3-2.945-3.978.8-4.4,1.483.666,1,.666,1" transform="translate(51.558 69.774)" fill="#1a1818"/>
              <path id="Path_335" data-name="Path 335" d="M93.35,94.66s-2.172.854-5.057,2-5.315-.086-4.979-1.539,3.816-3.02,6.3-2.945,3.978.8,4.4,1.483-.666,1-.666,1" transform="translate(63.044 69.774)" fill="#1a1818"/>
              <path id="Path_336" data-name="Path 336" d="M77.415,111.432c.111,3.718-4.719,6.879-10.79,7.061s-11.081-2.686-11.192-6.4,4.719-6.879,10.79-7.061,11.081,2.686,11.192,6.4" transform="translate(41.961 79.498)" fill="#f49d9f"/>
              <path id="Path_337" data-name="Path 337" d="M89.228,111.432c-.111,3.718,4.719,6.879,10.79,7.061s11.081-2.686,11.192-6.4-4.719-6.879-10.79-7.061-11.081,2.686-11.192,6.4" transform="translate(67.542 79.498)" fill="#f49d9f"/>
            </g>
          </g>
          <g id="Group_340" data-name="Group 340" transform="translate(67.999 134.855)">
            <g id="Group_339" data-name="Group 339" clip-path="url(#clip-path-41)">
              <path id="Path_338" data-name="Path 338" d="M69.329,76.831s-21.6.669-29.254,20.776,18.81,16.972,26.618,11.526,23.709-34.047,2.635-32.3" transform="translate(-38.702 -76.754)" fill="#d3df8d"/>
              <path id="Path_339" data-name="Path 339" d="M69.876,78.034s-21.6.669-29.254,20.776,18.81,16.972,26.618,11.526,23.709-34.047,2.635-32.3" transform="translate(-38.289 -75.843)" fill="#83b92b"/>
              <path id="Path_340" data-name="Path 340" d="M74.428,76.729s-5,20.69-12.887,28.212-19.875,8.087-19.875,8.087l26.94,4.486L83.888,85.765Z" transform="translate(-36.459 -76.773)" fill="#70a02e"/>
            </g>
          </g>
          <g id="Group_342" data-name="Group 342" transform="translate(165.518 134.43)">
            <g id="Group_341" data-name="Group 341" clip-path="url(#clip-path-42)">
              <path id="Path_342" data-name="Path 342" d="M94.206,87.95s1.376,24.148,23.563,26.878c15.46,1.9,25.589-4.607,23.47-12.246,0,0-.313-1.9-6.545-5.412a22.781,22.781,0,0,1-6.571-5.83,62.053,62.053,0,0,0-7.8-8.811,31.67,31.67,0,0,0-5.73-3.879c-4.219-2.423-19.975-5.853-20.39,9.3" transform="translate(-94.206 -76.512)" fill="#d3df8d"/>
              <path id="Path_343" data-name="Path 343" d="M94.264,89.135s1.376,24.148,23.563,26.878c15.46,1.9,25.589-4.607,23.47-12.246,0,0-.313-1.9-6.545-5.412a22.782,22.782,0,0,1-6.571-5.83,65.283,65.283,0,0,0-7.8-8.811,29.232,29.232,0,0,0-5.73-3.879c-4.219-2.423-19.975-5.853-20.39,9.3" transform="translate(-94.162 -75.615)" fill="#83b92b"/>
              <path id="Path_344" data-name="Path 344" d="M97.659,81.056s9.472,25.829,30.849,28.21,22.4,2.332,22.4,2.332l-37.048,9.692L89.487,102.212Z" transform="translate(-97.778 -73.072)" fill="#70a02e"/>
            </g>
          </g>
          <g id="Group_344" data-name="Group 344" transform="translate(96.943 111.094)">
            <g id="Group_343" data-name="Group 343" clip-path="url(#clip-path-43)">
              <path id="Path_346" data-name="Path 346" d="M73.477,65.975S59.741,54.5,55.73,76.717,70.414,108,82.506,101.15s-1.585-13.794-3.328-23.324c-1.181-6.457-5.7-11.851-5.7-11.851" transform="translate(-55.176 -63.394)" fill="#d3df8d"/>
              <path id="Path_347" data-name="Path 347" d="M74.636,67.059S60.9,55.587,56.889,77.8s14.685,31.285,26.776,24.433S82.08,88.44,80.337,78.91c-1.181-6.457-5.7-11.851-5.7-11.851" transform="translate(-54.299 -62.573)" fill="#83b92b"/>
              <path id="Path_348" data-name="Path 348" d="M82.722,67.412S68.986,55.94,64.975,78.154s14.685,31.285,26.776,24.433-1.585-13.794-3.328-23.324c-1.181-6.457-5.7-11.851-5.7-11.851" transform="translate(-48.178 -62.306)" fill="#70a02e"/>
            </g>
          </g>
          <g id="Group_346" data-name="Group 346" transform="translate(151.355 116.46)">
            <g id="Group_345" data-name="Group 345" clip-path="url(#clip-path-44)">
              <path id="Path_350" data-name="Path 350" d="M113.087,67.878S99.91,60.453,89.862,77.654s2.5,27.087,11.378,24.248,5.853-10.556,11.345-15.69,6.459-14.648.5-18.334" transform="translate(-86.145 -66.284)" fill="#d3df8d"/>
              <path id="Path_351" data-name="Path 351" d="M113.061,68.836s-13.177-7.425-23.226,9.776,2.5,27.087,11.378,24.248,5.853-10.556,11.345-15.69,6.459-14.648.5-18.334" transform="translate(-86.165 -65.559)" fill="#83b92b"/>
              <path id="Path_352" data-name="Path 352" d="M117.758,74.664s-13.177-7.425-23.226,9.776,2.5,27.087,11.378,24.248S111.763,98.132,117.256,93s6.459-14.648.5-18.334" transform="translate(-82.609 -61.147)" fill="#70a02e"/>
            </g>
          </g>
          <g id="Group_348" data-name="Group 348" transform="translate(123.441 98.265)">
            <g id="Group_347" data-name="Group 347" clip-path="url(#clip-path-45)">
              <path id="Path_354" data-name="Path 354" d="M102.063,84.014s.45-6.5,3.691-10.8c3.447-4.572,1.764-13.165-4.493-16.168s-18.921-.235-25.677,11.661-8.441,33.746,3.038,37.791c13.987,4.928,23.227-4.793,23.44-22.484" transform="translate(-70.258 -55.929)" fill="#d3df8d"/>
              <path id="Path_355" data-name="Path 355" d="M102.6,85.371s-.46-2.781,2.781-7.081c3.447-4.572,2.674-16.885-3.583-19.887s-18.921-.235-25.677,11.661-8.441,33.746,3.038,37.791c13.987,4.928,23.227-4.793,23.44-22.484" transform="translate(-69.851 -54.901)" fill="#83b92b"/>
              <path id="Path_356" data-name="Path 356" d="M108.786,91.342a74.445,74.445,0,0,1,.49-8.263c.576-5.694,2.883-14.511-3.375-17.514s-17.331.358-24.085,12.255-8.268,27.49,3.208,31.533c13.987,4.928,23.549-.32,23.761-18.011" transform="translate(-65.48 -49.417)" fill="#70a02e"/>
            </g>
          </g>
          <g id="Group_350" data-name="Group 350">
            <g id="Group_349" data-name="Group 349" clip-path="url(#clip-path)">
              <path id="Path_358" data-name="Path 358" d="M79.423,102.559a7.06,7.06,0,0,0-3.1-2.477,9.146,9.146,0,0,0-3.8-.713,11.3,11.3,0,0,0-3.649.74c-.566.214-1.1.5-1.632.761-.494.33-1,.631-1.464.987a1.227,1.227,0,0,0,1.01,2.172l.132-.028c.515-.114.991-.285,1.478-.425l1.434-.355a14.825,14.825,0,0,1,2.765-.351,9.911,9.911,0,0,1,2.609.3,10.474,10.474,0,0,1,2.37.968l.286.16a1.2,1.2,0,0,0,1.564-1.732" transform="translate(49.427 75.219)" fill="#1a1818"/>
              <path id="Path_359" data-name="Path 359" d="M84.369,102.559a7.06,7.06,0,0,1,3.1-2.477,9.146,9.146,0,0,1,3.8-.713,11.3,11.3,0,0,1,3.649.74c.566.214,1.1.5,1.632.761.494.33,1,.631,1.464.987a1.227,1.227,0,0,1-1.01,2.172L96.875,104c-.515-.114-.991-.285-1.478-.425l-1.434-.355a14.824,14.824,0,0,0-2.765-.351,9.911,9.911,0,0,0-2.609.3,10.474,10.474,0,0,0-2.37.968l-.286.16a1.2,1.2,0,0,1-1.564-1.732" transform="translate(63.699 75.219)" fill="#1a1818"/>
            </g>
          </g>
          <g id="Group_352" data-name="Group 352" transform="translate(130.513 185.515)">
            <g id="Group_351" data-name="Group 351" clip-path="url(#clip-path-47)">
              <path id="Path_360" data-name="Path 360" d="M82.353,105.6c4.54-.135,8.263,1.167,8.372,4.865s-3.574,6.613-8.114,6.749-8.216-2.56-8.326-6.258,3.528-5.22,8.068-5.355" transform="translate(-74.283 -105.587)" fill="#a00e1a"/>
              <path id="Path_361" data-name="Path 361" d="M82.479,117.518c-4.542-.088-8.2-1.339-8.14-4.426s3.876-5.354,8.416-5.267,8.087,2.5,8.029,5.585-3.763,4.2-8.305,4.108" transform="translate(-74.24 -103.895)" fill="#e9333c"/>
            </g>
          </g>
          <g id="Group_354" data-name="Group 354">
            <g id="Group_353" data-name="Group 353" clip-path="url(#clip-path)">
              <path id="Path_363" data-name="Path 363" d="M23.812,23.616l-1.479,8.739a1.539,1.539,0,0,0,.8,1.618l7.852,4.106a1.536,1.536,0,0,1-.487,2.881l-8.767,1.293a1.539,1.539,0,0,0-1.291,1.263l-1.478,8.737a1.537,1.537,0,0,1-2.892.425l-3.939-7.936a1.534,1.534,0,0,0-1.6-.836L1.767,45.2a1.537,1.537,0,0,1-1.3-2.618l6.332-6.2A1.538,1.538,0,0,0,7.1,34.6L3.162,26.663A1.536,1.536,0,0,1,5.251,24.62L13.1,28.726a1.538,1.538,0,0,0,1.787-.264l6.332-6.2a1.536,1.536,0,0,1,2.59,1.353" transform="translate(0 16.517)" fill="#fff"/>
              <path id="Path_364" data-name="Path 364" d="M6.806,40.18l1.622,2.992a.59.59,0,0,0,.627.3l3.345-.618a.591.591,0,0,1,.536.987l-2.344,2.467A.593.593,0,0,0,10.5,47l1.622,2.992a.59.59,0,0,1-.773.813L8.278,49.334a.587.587,0,0,0-.682.126L5.253,51.928a.591.591,0,0,1-1.014-.485l.446-3.373a.591.591,0,0,0-.33-.61L1.284,45.992a.59.59,0,0,1,.148-1.112l3.347-.618a.591.591,0,0,0,.478-.5L5.7,40.384a.59.59,0,0,1,1.1-.2" transform="translate(0.717 30.182)" fill="#fff"/>
              <path id="Path_365" data-name="Path 365" d="M23.9,21.152l2.089,3.855a.761.761,0,0,0,.806.385l4.312-.8a.76.76,0,0,1,.69,1.27l-3.02,3.178a.764.764,0,0,0-.118.887l2.091,3.855a.76.76,0,0,1-1,1.047L25.8,32.945a.759.759,0,0,0-.878.162L21.9,36.285a.761.761,0,0,1-1.305-.624l.575-4.347a.76.76,0,0,0-.425-.785L16.785,28.64a.76.76,0,0,1,.19-1.434l4.312-.8a.759.759,0,0,0,.615-.648l.576-4.345a.76.76,0,0,1,1.421-.264" transform="translate(12.379 15.71)" fill="#fff"/>
              <path id="Path_366" data-name="Path 366" d="M23.788,45.358a.556.556,0,0,1-.4-.163l-9.284-9.286a.555.555,0,0,1,.785-.785l9.286,9.286a.556.556,0,0,1-.392.949" transform="translate(10.557 26.464)" fill="#fff"/>
              <path id="Path_367" data-name="Path 367" d="M164.016,57.845l-1.1,8.564a1.5,1.5,0,0,1-1.207,1.281l-8.484,1.6a1.5,1.5,0,0,0-.362,2.823l7.806,3.691a1.5,1.5,0,0,1,.845,1.544l-1.1,8.564a1.5,1.5,0,0,0,2.574,1.216l5.921-6.281a1.5,1.5,0,0,1,1.731-.327l7.8,3.69A1.5,1.5,0,0,0,180.4,82.14l-4.146-7.574a1.5,1.5,0,0,1,.225-1.745l5.921-6.283a1.5,1.5,0,0,0-1.367-2.5l-8.483,1.6a1.5,1.5,0,0,1-1.592-.752l-4.145-7.574a1.5,1.5,0,0,0-2.8.529" transform="translate(115.067 42.797)" fill="#fff"/>
              <path id="Path_368" data-name="Path 368" d="M158.681,76.118l-2.36,2.33a.579.579,0,0,1-.669.1l-2.945-1.525a.575.575,0,0,0-.778.768l1.486,2.966a.574.574,0,0,1-.111.666l-2.36,2.33a.575.575,0,0,0,.49.979l3.279-.5a.571.571,0,0,1,.6.311l1.486,2.964a.575.575,0,0,0,1.081-.163l.541-3.271a.578.578,0,0,1,.481-.476l3.279-.5a.576.576,0,0,0,.177-1.081L159.415,80.5a.575.575,0,0,1-.3-.6l.541-3.271a.575.575,0,0,0-.972-.5" transform="translate(114.131 57.493)" fill="#fff"/>
              <path id="Path_369" data-name="Path 369" d="M156.094,54.092l-3.279,3.236a.8.8,0,0,1-.929.141L147.8,55.35a.8.8,0,0,0-1.082,1.066l2.064,4.12a.8.8,0,0,1-.153.926l-3.28,3.236a.8.8,0,0,0,.682,1.358l4.554-.69a.8.8,0,0,1,.835.432l2.064,4.118a.8.8,0,0,0,1.5-.228l.75-4.545a.8.8,0,0,1,.669-.659l4.554-.69a.8.8,0,0,0,.248-1.5l-4.09-2.119a.8.8,0,0,1-.42-.84l.75-4.545a.8.8,0,0,0-1.349-.7" transform="translate(109.841 40.771)" fill="#fff"/>
              <path id="Path_370" data-name="Path 370" d="M148.33,73.216a.541.541,0,0,1-.151-1.061l12.288-3.568a.542.542,0,0,1,.3,1.04l-12.288,3.568a.569.569,0,0,1-.151.021" transform="translate(111.874 51.902)" fill="#fff"/>
            </g>
          </g>
        </g>
      </g>
    </g>
  </g>
</svg>
