<svg xmlns="http://www.w3.org/2000/svg" xmlns:xlink="http://www.w3.org/1999/xlink" width="300" height="300" viewBox="0 0 300 300">
  <defs>
    <clipPath id="clip-path">
      <rect id="Rectangle_214" data-name="Rectangle 214" width="344.102" height="365.864" fill="none"/>
    </clipPath>
    <clipPath id="clip-path-3">
      <path id="Path_659" data-name="Path 659" d="M119.749,239.721h0m46.8-166.762C135.18,74.815,121.5,114.218,121.5,114.218c-.023-8.9-10.04-26.681-29.741-9.241s-4.147,45.142-4.147,45.142S70.9,144.829,68.027,154.7c-5.205,17.125,16.449,24.116,16.449,24.116-13.77,2.36-30.7,5.116-27.6,16.308,4.344,15.719,20.145,15.126,20.145,15.126s-15.586,4.678-13.3,25.035c3.4,30.313,31.373,6.81,31.373,6.81.708,3.4-3.566,28.038,11.583,22.913,9.954-3.367,12.58-21.133,13.009-24.674-.411,4.093-2,27.049,14.9,20.222,14.046-5.676,11.645-22.158,11.115-25.01.6,2.761,4.62,18.132,20.13,18.439,17.044.335,8.258-26.224,8.258-26.224,5.79,16.188,26.921,26.257,39.387,19.707s.321-24.516.321-24.516l7.644,6.267c11.58,11.018,27.339,6.464,29.967.483s-9.017-14-9.017-14c17.543,10.283,25.983,7.02,25.983,7.02,42.184-4.667,5.318-34.046,5.318-34.046s31.466-2.75,31.683-24.588c.227-22.851-27.234-16.577-27.234-16.577s14.562-9.681,10.812-19.588c-6.09-14.394-24.037-2.585-24.037-2.585s6.543-10.154-1.055-19.306-25.333-.128-25.333-.128c4.835-5.154,16.17-21.888-9.271-23.715s-43.267,12.97-43.267,12.97,11.058-22.306-16.123-22.306q-1.572,0-3.316.1" transform="translate(-56.503 -72.857)" fill="none"/>
    </clipPath>
    <clipPath id="clip-path-4">
      <rect id="Rectangle_188" data-name="Rectangle 188" width="224.517" height="180.502" fill="none"/>
    </clipPath>
    <clipPath id="clip-path-5">
      <path id="Path_663" data-name="Path 663" d="M102.855,298.166c-1.036,12.94,8.861,18.764,16.132,19.347s8.99-3.573,10.026-16.512,1.038-30.112-6.23-30.7c-.134-.01-.267-.016-.4-.016-7.288,0-18.508,15.174-19.524,27.876" transform="translate(-102.779 -270.29)" fill="none"/>
    </clipPath>
    <clipPath id="clip-path-6">
      <rect id="Rectangle_189" data-name="Rectangle 189" width="31.521" height="52.516" fill="none"/>
    </clipPath>
    <clipPath id="clip-path-8">
      <path id="Path_668" data-name="Path 668" d="M265.5,205.31c-6.5,11.237-5.744,30.6.569,34.248s16.068-10.481,22.568-21.718,3.511-16.583-2.8-20.235a14.4,14.4,0,0,0-7.159-2.135c-4.42,0-9.008,2.634-13.176,9.839" transform="translate(-260.964 -195.471)" fill="none"/>
    </clipPath>
    <clipPath id="clip-path-9">
      <rect id="Rectangle_191" data-name="Rectangle 191" width="27.558" height="54.855" fill="none"/>
    </clipPath>
    <clipPath id="clip-path-10">
      <path id="Path_672" data-name="Path 672" d="M175.609,313.479s9.939,22.449,18.615,24.763,16.912-1.506,18.076-6.206-2.321-23.5-2.321-23.5-2.043-9.918-12.378-11.212a31.023,31.023,0,0,0-3.839-.236c-9.736,0-20.786,4.427-18.153,16.395" transform="translate(-175.214 -297.084)" fill="none"/>
    </clipPath>
    <clipPath id="clip-path-11">
      <rect id="Rectangle_192" data-name="Rectangle 192" width="103.869" height="47.486" fill="none"/>
    </clipPath>
    <clipPath id="clip-path-12">
      <path id="Path_676" data-name="Path 676" d="M227.543,287.69c-2.655,10.073,5.785,15.669,5.785,15.669s16.145,10.247,20.94,10.921,11.414-5.542,12.5-14.455-16.03-26.511-16.03-26.511a12.9,12.9,0,0,0-7.3-2.509c-7.916,0-13.833,9.067-15.894,16.884" transform="translate(-227.026 -270.806)" fill="none"/>
    </clipPath>
    <clipPath id="clip-path-13">
      <rect id="Rectangle_193" data-name="Rectangle 193" width="81.371" height="52.491" fill="none"/>
    </clipPath>
    <clipPath id="clip-path-14">
      <path id="Path_687" data-name="Path 687" d="M176.794,184.274c-44.955,10.49-74.554,48.323-65.65,86.481s49.92,49.26,94.875,38.772,76.822-38.6,67.919-76.757c-7.352-31.509-38.147-51.2-73.968-51.2a102.033,102.033,0,0,0-23.176,2.7" transform="translate(-109.563 -181.57)" fill="none"/>
    </clipPath>
    <clipPath id="clip-path-15">
      <rect id="Rectangle_194" data-name="Rectangle 194" width="115.655" height="160.128" fill="none"/>
    </clipPath>
    <clipPath id="clip-path-16">
      <path id="Path_691" data-name="Path 691" d="M179.211,195.053c-32.668,7.623-53.117,39.664-47.671,63s34.722,29.134,67.391,21.512,56.356-25.777,50.911-49.115c-4.634-19.857-28.859-37.068-56.107-37.066a63.864,63.864,0,0,0-14.524,1.667" transform="translate(-130.665 -193.386)" fill="none"/>
    </clipPath>
    <clipPath id="clip-path-18">
      <path id="Path_712" data-name="Path 712" d="M51.61,134.768c-2.9,1.452-6.557,4.3-4.24,7.858L57.682,159l-28.027-3.9c-5.247-.8-7.575,4.389-7.586,8.831a6.3,6.3,0,0,0,5.37,7.106l87.994,12.237c8.611,1.324,10.86-14.859,2.217-15.936l-44.211-6.147L57.663,136.143a4.387,4.387,0,0,0-6.053-1.375" transform="translate(-22.007 -134.092)" fill="none"/>
    </clipPath>
    <clipPath id="clip-path-19">
      <rect id="Rectangle_196" data-name="Rectangle 196" width="41.434" height="27.851" fill="none"/>
    </clipPath>
    <clipPath id="clip-path-20">
      <rect id="Rectangle_197" data-name="Rectangle 197" width="89.793" height="11.17" fill="none"/>
    </clipPath>
    <clipPath id="clip-path-21">
      <rect id="Rectangle_198" data-name="Rectangle 198" width="42.277" height="5.146" fill="none"/>
    </clipPath>
    <clipPath id="clip-path-22">
      <path id="Path_717" data-name="Path 717" d="M42.967,179.984a17.96,17.96,0,0,0-8.24,12.452,155.112,155.112,0,0,1-4.7,19.429,2.131,2.131,0,0,0,2.127,2.589c6.764-.931,22.289-4.53,24.55-17.491a19.469,19.469,0,0,0,.221-2.064c.16-2.525,1.155-12.372,7.158-17.328.769-.636-.016-2.04-1.14-2.043H62.78c-5.082,0-13.5.652-19.813,4.456" transform="translate(-29.952 -175.528)" fill="none"/>
    </clipPath>
    <clipPath id="clip-path-23">
      <path id="Path_722" data-name="Path 722" d="M187.974,90.655l26.386-21.9,21.9,26.386-26.386,21.9ZM175.554,53.171a53.958,53.958,0,0,0-14.878,56.281,51.126,51.126,0,0,0,3.473,8.274,54.02,54.02,0,1,0,52.976-78.614q-2.551-.237-5.064-.236a53.717,53.717,0,0,0-36.508,14.3" transform="translate(-158.081 -38.875)" fill="none"/>
    </clipPath>
    <clipPath id="clip-path-24">
      <rect id="Rectangle_199" data-name="Rectangle 199" width="108.073" height="115.183" fill="none"/>
    </clipPath>
    <clipPath id="clip-path-25">
      <rect id="Rectangle_200" data-name="Rectangle 200" width="146.692" height="145.463" fill="none"/>
    </clipPath>
    <clipPath id="clip-path-26">
      <rect id="Rectangle_201" data-name="Rectangle 201" width="146.691" height="145.463" fill="none"/>
    </clipPath>
    <clipPath id="clip-path-28">
      <path id="Path_725" data-name="Path 725" d="M189.728,91l24.7-20.5,20.5,24.7-24.7,20.5ZM169.9,89.16a42.612,42.612,0,1,0,46.372-38.5c-1.333-.124-2.66-.185-3.972-.185A42.677,42.677,0,0,0,169.9,89.16" transform="translate(-169.714 -50.476)" fill="none"/>
    </clipPath>
    <clipPath id="clip-path-29">
      <rect id="Rectangle_204" data-name="Rectangle 204" width="81.792" height="72.684" fill="none"/>
    </clipPath>
    <clipPath id="clip-path-30">
      <rect id="Rectangle_206" data-name="Rectangle 206" width="87.664" height="79.408" fill="none"/>
    </clipPath>
    <clipPath id="clip-path-31">
      <rect id="Rectangle_208" data-name="Rectangle 208" width="87.663" height="79.408" fill="none"/>
    </clipPath>
    <clipPath id="clip-path-32">
      <rect id="Rectangle_210" data-name="Rectangle 210" width="80.594" height="71.312" fill="none"/>
    </clipPath>
    <clipPath id="clip-path-34">
      <path id="Path_730" data-name="Path 730" d="M252.261,146.041c-20.85.038-47.457,11.383-43.622,29.53,4.674,22.112,21.448,29.24,44.642,15.492a152.526,152.526,0,0,1,16.834-8.36c12.1-4.785,20.36-4.576,16.689-14.495-4.075-11.006-19.092-22.166-34.483-22.167h-.06" transform="translate(-208.267 -146.041)" fill="none"/>
    </clipPath>
    <clipPath id="clip-path-35">
      <path id="Path_734" data-name="Path 734" d="M207.79,126.19c-17.031,13.635-31.4,40.278-16.42,52.621,18.251,15.042,36.624,9.928,46.631-16.453a159.278,159.278,0,0,1,8.317-17.824c6.775-11.806,13.671-17.026,4.2-22.746-4.441-2.68-10.5-4.109-16.962-4.11-8.859,0-18.482,2.685-25.762,8.513" transform="translate(-185.091 -117.677)" fill="none"/>
    </clipPath>
    <clipPath id="clip-path-36">
      <path id="Path_738" data-name="Path 738" d="M92.264,172.177S60.813,179.1,88.8,208.785s61.287,13.174,64.323-11.263-21.763-12.692-37.5-20.55c-8.894-4.441-19.21-4.809-22.385-4.809-.631,0-.979.015-.979.015" transform="translate(-77.201 -172.162)" fill="none"/>
    </clipPath>
    <clipPath id="clip-path-37">
      <path id="Path_742" data-name="Path 742" d="M123.515,126.069c-10.163,2.135-18.8,15.58-15.984,35.856s20.719,47.753,38.03,42.1c21.094-6.89,23.209-26.848,7.346-48.044,0,0-7.432-7.958-10.422-15.441-3.35-8.384-7.611-14.852-15.487-14.853a16.937,16.937,0,0,0-3.482.383" transform="translate(-106.992 -125.686)" fill="none"/>
    </clipPath>
    <clipPath id="clip-path-38">
      <path id="Path_746" data-name="Path 746" d="M179.354,102.843c-11.861,2.069-25.91,15.164-28.737,30.7-3.824,21.016,2.677,49.928,21.673,49.425,23.146-.612,33.437-16.192,23.882-42.113,0,0-1.657-11.582-3.285-19.831-2.3-11.673-2.772-18.478-10.443-18.478a18.128,18.128,0,0,0-3.09.3" transform="translate(-149.568 -102.545)" fill="none"/>
    </clipPath>
    <clipPath id="clip-path-40">
      <path id="Path_756" data-name="Path 756" d="M131.261,200.338s-23.7,7.011-26.33,31.473,25.733,13.315,32.789,5.026c6.358-7.47,14.528-37.652-.608-37.656a17.813,17.813,0,0,0-5.851,1.157" transform="translate(-104.76 -199.181)" fill="none"/>
    </clipPath>
    <clipPath id="clip-path-41">
      <path id="Path_760" data-name="Path 760" d="M210.286,192.61s8.53,26.313,33.865,22.894c17.653-2.382,26.969-12.523,22.408-20.359,0,0-.9-2.016-8.81-4.085a26.028,26.028,0,0,1-8.961-4.543c-4.356-3.3-6.269-5.194-11.182-7.483-.525-.245-5.211-2.018-7.465-2.628a18.316,18.316,0,0,0-4.526-.494c-7.34,0-18.479,3.205-15.33,16.7" transform="translate(-209.738 -175.911)" fill="none"/>
    </clipPath>
    <clipPath id="clip-path-42">
      <path id="Path_764" data-name="Path 764" d="M127.356,188.528c2.011,25.736,25.326,30.346,36.712,19.254s-7-14.3-10.451-24.835a20.44,20.44,0,0,0-8.507-10.834,19.549,19.549,0,0,0-7.385-1.645c-5.379,0-11.535,3.136-10.369,18.06" transform="translate(-127.213 -170.468)" fill="none"/>
    </clipPath>
    <clipPath id="clip-path-43">
      <path id="Path_768" data-name="Path 768" d="M193.179,175.361c-6.123,21.946,10.625,29.239,19.624,23.52s3.411-13.374,8-20.648,2.891-18.078-4.766-20.427a14.987,14.987,0,0,0-3.461-.359c-5.235,0-15.02,2.239-19.393,17.913" transform="translate(-191.864 -157.448)" fill="none"/>
    </clipPath>
    <clipPath id="clip-path-44">
      <path id="Path_772" data-name="Path 772" d="M158.6,164.183c-4.02,15.12.458,39.779,14.329,40.921,16.9,1.393,24.3-12.043,19.4-31.674,0,0-1.389-7.321.949-13.019,2.485-6.057-1.869-15.076-9.663-16.581a11.907,11.907,0,0,0-2.257-.206c-7.869,0-19.107,6.818-22.76,20.559" transform="translate(-157.184 -143.624)" fill="none"/>
    </clipPath>
    <clipPath id="clip-Artboard_23">
      <rect width="300" height="300"/>
    </clipPath>
  </defs>
  <g id="Artboard_23" data-name="Artboard – 23" clip-path="url(#clip-Artboard_23)">
    <g id="Group_1509" data-name="Group 1509">
      <g id="Group_636" data-name="Group 636" transform="translate(-13.75)">
        <g id="Group_635" data-name="Group 635" clip-path="url(#clip-path)">
          <g id="Group_532" data-name="Group 532">
            <g id="Group_531" data-name="Group 531" clip-path="url(#clip-path)">
              <path id="Path_655" data-name="Path 655" d="M119.749,239.721s-2.01,21.543-13.077,25.287C91.522,270.134,95.8,245.492,95.089,242.1c0,0-27.97,23.5-31.373-6.811-2.285-20.358,13.3-25.035,13.3-25.035s-15.8.593-20.146-15.126c-3.092-11.192,13.834-13.949,27.6-16.308,0,0-21.654-6.991-16.449-24.116,2.872-9.871,19.585-4.581,19.585-4.581s-15.553-27.7,4.147-45.142,29.72.342,29.741,9.241c0,0,13.681-39.4,45.045-41.259s19.439,22.205,19.439,22.205,17.825-14.8,43.267-12.971,14.107,18.561,9.271,23.715c0,0,17.734-9.026,25.333.128s1.054,19.305,1.054,19.305,17.948-11.806,24.037,2.586c3.749,9.908-10.812,19.588-10.812,19.588s27.462-6.273,27.235,16.576c-.217,21.839-31.683,24.589-31.683,24.589s36.866,29.379-5.318,34.047c0,0-8.44,3.263-25.982-7.021,0,0,11.646,8.017,9.017,14s-18.388,10.535-29.968-.483l-7.644-6.267s12.143,17.965-.321,24.516-33.6-3.519-39.387-19.707c0,0,8.785,26.56-8.257,26.223s-20.216-18.86-20.216-18.86,4.368,19.21-11.029,25.433c-18.524,7.485-14.83-20.837-14.83-20.837" transform="translate(-0.999 -1.289)" fill="#d3df8d"/>
            </g>
          </g>
          <g id="Group_537" data-name="Group 537" transform="translate(55.503 71.568)">
            <g id="Group_536" data-name="Group 536" clip-path="url(#clip-path-3)">
              <path id="Path_656" data-name="Path 656" d="M119.617,239.721s-2.581,20.155-13.077,25.287A16.96,16.96,0,0,1,85.5,260.254s-24.337,14-25.73-12.51S76.631,209.2,76.631,209.2s-25.113,12.1-27.364-4.053S60.3,179.57,73.428,175.356c0,0-18.7-3.681-13.5-20.805,2.872-9.871,19.847-7.513,19.847-7.513s-7.854-24.621,11.847-42.061S121.558,110.3,121.7,115.83c0,0,13.352-41.015,44.716-42.871s19.439,22.205,19.439,22.205,17.825-14.8,43.267-12.971,14.107,18.561,9.271,23.715c0,0,17.734-9.026,25.333.128s1.054,19.305,1.054,19.305,17.948-11.806,24.037,2.586C292.564,137.835,278,147.516,278,147.516s26-5.364,27.3,17.449-18.864,29.794-18.864,29.794,23.982,23.3-18.2,27.969c0,0-8.44,3.263-25.982-7.021,0,0,11.646,8.017,9.017,14s-18.388,10.535-29.968-.483l-7.644-6.267s12.143,17.965-.321,24.516-33.6-3.519-39.387-19.707c0,0,8.785,26.56-8.257,26.223s-20.216-18.86-20.216-18.86,4.368,19.21-11.029,25.433c-18.524,7.485-14.83-20.837-14.83-20.837" transform="translate(-56.37 -72.857)" fill="#d3df8d"/>
              <path id="Path_657" data-name="Path 657" d="M122.324,238.042s.341,20.6-10.773,24.2c-18.61,6.034-13.333-19-15.393-22.083,0,0-26.687,21.528-28.533-4.955-1.461-20.96,11.5-24.932,11.5-24.932S65.008,211.4,60.8,195.642c-2.856-10.691,12.209-12.529,25.336-16.743,0,0-17.773-8.379-14.11-22.3,2.872-9.871,18.188-6.121,18.188-6.121s-12.959-28.049,6.742-45.489,24.908,6.035,25.79,17.116c0,0,4.832-17.445,16.9-31.357,9.254-10.668,23.805-18.515,37.417-19.32,31.364-1.855,3.014,31.227,3.014,31.227S206.79,83.359,232.26,84.725c17.368.931,9.127,18.6,4.291,23.752,0,0,19.758-8.732,27.357.421s.6,16.994.6,16.994,19.907-9.193,26,5.2c3.75,9.908-14.4,17.7-14.4,17.7s26.668-5.708,25.29,17.1c-1.262,20.893-29.16,21.627-29.16,21.627s40.892,28.856-1.293,33.524c0,0-8.44,3.263-25.982-7.021,0,0,11.646,8.017,9.017,14s-18.388,10.535-29.968-.483l-7.644-6.267s12.143,17.965-.321,24.516-33.6-3.519-39.387-19.707c0,0,8.785,26.56-8.257,26.223s-20.216-18.86-20.216-18.86,4.368,19.21-11.029,25.433c-18.524,7.485-14.83-20.837-14.83-20.837" transform="translate(-56.572 -72.83)" fill="#83b92b"/>
              <g id="Group_535" data-name="Group 535" transform="translate(23.293 29.102)" opacity="0.61">
                <g id="Group_534" data-name="Group 534">
                  <g id="Group_533" data-name="Group 533" clip-path="url(#clip-path-4)">
                    <path id="Path_658" data-name="Path 658" d="M140.4,259.029s.325,19.631-10.266,23.065c-17.736,5.75-12.706-18.11-14.67-21.045,0,0-19.176,25.89-20.935.65-1.392-19.973,4.706-29.132,4.706-29.132s-14.7,8.937-18.71-6.078C77.806,216.3,93.4,206.682,105.915,202.667c0,0-22.223-4.914-18.733-18.185,2.738-9.408,22.619-8.9,22.619-8.9s-13.959-24.591,3.5-42.588c11.527-11.883,24.7,5.272,25.539,15.832,0,0-1.029-18.077,10.473-31.335,8.82-10.166,14.143-14.981,27.138-15,20.59-.037,9.656,29.295,9.656,29.295s9.36-25.28,33.634-23.977c16.552.887,2.667,21.374-1.941,26.286,0,0,35.226-10.825,41.4-1.318,9.254,14.244-19.115,18.676-19.115,18.676s35.573-4.106,41.378,9.611c7.921,17.9-20.64,23.172-20.64,23.172s45.19,12.981,43.877,34.718c-1.2,19.911-11.761,2.479-11.761,2.479s29.3,16.963-10.907,21.41c0,0-8.043,3.109-24.761-6.691,0,0,11.1,7.64,8.593,13.34s-17.523,10.04-28.56-.461l-7.285-5.972s11.573,17.121-.306,23.363-32.018-3.353-37.535-18.781c0,0,8.372,25.311-7.87,24.991s-19.265-17.974-19.265-17.974,4.163,18.307-10.512,24.238c-17.654,7.133-14.133-19.857-14.133-19.857" transform="translate(-80.215 -102.483)" fill="#79a02d"/>
                  </g>
                </g>
              </g>
            </g>
          </g>
          <g id="Group_542" data-name="Group 542" transform="translate(100.962 265.509)">
            <g id="Group_541" data-name="Group 541" clip-path="url(#clip-path-5)">
              <path id="Path_660" data-name="Path 660" d="M129.013,301c-1.036,12.939-2.757,17.093-10.026,16.512s-17.168-6.407-16.132-19.347,12.658-28.442,19.928-27.859,7.266,17.755,6.23,30.694" transform="translate(-102.779 -270.29)" fill="#f99f7d"/>
              <path id="Path_661" data-name="Path 661" d="M132.461,304.484c-1.036,12.939-2.757,17.093-10.026,16.512s-17.168-6.407-16.132-19.347,12.658-28.442,19.928-27.859,7.266,17.755,6.23,30.694" transform="translate(-102.84 -270.352)" fill="#f26b39"/>
              <g id="Group_540" data-name="Group 540" transform="translate(9.377 -13.371)" opacity="0.5">
                <g id="Group_539" data-name="Group 539">
                  <g id="Group_538" data-name="Group 538" clip-path="url(#clip-path-6)">
                    <path id="Path_662" data-name="Path 662" d="M139.253,281.709c4.828,12.05,7.142,24.267.373,26.979s-20.233-5.829-25.062-17.879-1.318-31.1,5.452-33.816,14.408,12.668,19.237,24.716" transform="translate(-112.325 -256.678)" fill="#b0331b"/>
                  </g>
                </g>
              </g>
            </g>
          </g>
          <g id="Group_544" data-name="Group 544">
            <g id="Group_543" data-name="Group 543" clip-path="url(#clip-path)">
              <path id="Path_664" data-name="Path 664" d="M288.633,217.84c6.5-11.237,3.511-16.583-2.8-20.235s-13.835-3.532-20.334,7.7-5.745,30.6.568,34.249,16.069-10.481,22.568-21.718" transform="translate(-4.616 -3.457)" fill="#f99f7d"/>
            </g>
          </g>
          <g id="Group_549" data-name="Group 549" transform="translate(256.348 192.014)">
            <g id="Group_548" data-name="Group 548" clip-path="url(#clip-path-8)">
              <path id="Path_665" data-name="Path 665" d="M286.89,217.98c6.5-11.237,7.444-15.632,1.132-19.284s-17.768-4.483-24.267,6.752-5.745,30.6.568,34.249,16.069-10.481,22.568-21.718" transform="translate(-260.933 -195.485)" fill="#f99f7d"/>
              <path id="Path_666" data-name="Path 666" d="M290.565,218.99c6.5-11.237,7.444-15.632,1.132-19.284s-17.768-4.483-24.267,6.752-5.744,30.6.568,34.249,16.069-10.481,22.568-21.718" transform="translate(-260.998 -195.503)" fill="#f26b39"/>
              <g id="Group_547" data-name="Group 547" transform="translate(-9.349 12.245)" opacity="0.5">
                <g id="Group_546" data-name="Group 546">
                  <g id="Group_545" data-name="Group 545" clip-path="url(#clip-path-9)">
                    <path id="Path_667" data-name="Path 667" d="M252.573,236.28c-2.117,12.807-1.743,25.236,5.452,26.425s18.5-10.056,20.617-22.862-5.42-30.657-12.615-31.847-11.337,15.476-13.454,28.284" transform="translate(-251.446 -207.936)" fill="#b0331b"/>
                  </g>
                </g>
              </g>
            </g>
          </g>
          <g id="Group_554" data-name="Group 554" transform="translate(172.115 291.829)">
            <g id="Group_553" data-name="Group 553" clip-path="url(#clip-path-10)">
              <path id="Path_669" data-name="Path 669" d="M175.609,313.479s9.938,22.449,18.614,24.763,16.914-1.506,18.078-6.206-2.321-23.5-2.321-23.5-2.043-9.919-12.378-11.213-24.981,2.575-21.992,16.159" transform="translate(-175.214 -297.084)" fill="#f99f7d"/>
              <path id="Path_670" data-name="Path 670" d="M180.35,312.372s9.938,22.449,18.614,24.763,16.914-1.506,18.077-6.206-2.321-23.5-2.321-23.5-2.043-9.919-12.378-11.213-24.981,2.575-21.992,16.159" transform="translate(-175.298 -297.064)" fill="#f26b39"/>
              <g id="Group_552" data-name="Group 552" transform="translate(-14.113 -24.371)" opacity="0.5">
                <g id="Group_551" data-name="Group 551">
                  <g id="Group_550" data-name="Group 550" clip-path="url(#clip-path-11)">
                    <path id="Path_671" data-name="Path 671" d="M264.513,282.815c2.464,10.558-17.827,27.5-46.4,34.17s-54.608.531-57.071-10.026,18.7-24.521,47.276-31.188,53.732-3.513,56.2,7.045" transform="translate(-160.847 -272.274)" fill="#b0331b"/>
                  </g>
                </g>
              </g>
            </g>
          </g>
          <g id="Group_559" data-name="Group 559" transform="translate(223.01 266.016)">
            <g id="Group_558" data-name="Group 558" clip-path="url(#clip-path-12)">
              <path id="Path_673" data-name="Path 673" d="M250.74,273.316s17.12,17.6,16.03,26.51-7.708,15.131-12.5,14.456-20.941-10.922-20.941-10.922-8.44-5.6-5.785-15.669,11.71-22.216,23.2-14.374" transform="translate(-227.026 -270.806)" fill="#d44d37"/>
              <path id="Path_674" data-name="Path 674" d="M246.4,279.5s17.12,17.6,16.03,26.51-7.708,15.131-12.5,14.456-20.941-10.922-20.941-10.922-8.44-5.6-5.785-15.669,11.71-22.216,23.2-14.374" transform="translate(-226.949 -270.915)" fill="#f26b39"/>
              <g id="Group_557" data-name="Group 557" transform="translate(-40.938 -17.824)" opacity="0.5">
                <g id="Group_556" data-name="Group 556">
                  <g id="Group_555" data-name="Group 555" clip-path="url(#clip-path-13)">
                    <path id="Path_675" data-name="Path 675" d="M265.17,261.4c4.725,9.757-1.657,28.9-14.795,37.284-24.733,15.785-59.558-1.09-64.283-10.848s13.682-14.1,40.089-26.886,34.263-9.307,38.988.45" transform="translate(-185.351 -252.661)" fill="#b0331b"/>
                  </g>
                </g>
              </g>
            </g>
          </g>
          <g id="Group_564" data-name="Group 564" transform="translate(107.625 178.359)">
            <g id="Group_563" data-name="Group 563" clip-path="url(#clip-path-14)">
              <path id="Path_677" data-name="Path 677" d="M273.936,232.551c8.9,38.158-22.964,66.267-67.919,76.757s-85.972-.614-94.876-38.772,17.68-88.92,62.634-99.409,91.257,23.266,100.16,61.424" transform="translate(-109.56 -181.351)" fill="#f99f7d"/>
              <path id="Path_678" data-name="Path 678" d="M281.294,231.231c8.617,36.931-23.4,64.411-68.352,74.9s-85.825.016-94.442-36.915,18.283-86.335,63.236-96.825,90.942,21.908,99.558,58.839" transform="translate(-109.692 -181.372)" fill="#f26b39"/>
              <g id="Group_562" data-name="Group 562" transform="translate(90.654 -13.612)" opacity="0.5">
                <g id="Group_561" data-name="Group 561">
                  <g id="Group_560" data-name="Group 560" clip-path="url(#clip-path-15)">
                    <path id="Path_679" data-name="Path 679" d="M222.6,167.713s99.55,82.312.334,142.469C142.65,358.86,317.5,291.465,317.5,291.465L262.029,181.474Z" transform="translate(-201.849 -167.713)" fill="#e34f22"/>
                  </g>
                </g>
              </g>
              <path id="Path_680" data-name="Path 680" d="M156.212,306.069a11.947,11.947,0,0,0,1.133-6.182,12.236,12.236,0,0,0-2.061-5.78,19.31,19.31,0,0,0-4.167-4.561c-.407-.324-.787-.675-1.213-.978l-1.292-.89a22.917,22.917,0,0,0-2.645-1.637,19.736,19.736,0,0,0-5.679-2.026,12.615,12.615,0,0,0-2.884-.115,8.305,8.305,0,0,0-2.65.719,5.919,5.919,0,0,0-3.292,3.831,7.473,7.473,0,0,0,.685,5.26,13.924,13.924,0,0,0,3.659,4.546,24.788,24.788,0,0,0,4.954,3.552,9.874,9.874,0,0,0,5.4,1.394,4.373,4.373,0,0,0,2.241-.923,3.8,3.8,0,0,0,1.2-2.105,5.682,5.682,0,0,0,.128-1.313l-.086-.6-.2-.646a12.68,12.68,0,0,0-1.434-2.569,16.49,16.49,0,0,0-4.424-4.207c-1.681-1.12-3.769-1.795-5.536-.847a2.479,2.479,0,0,0-1.027.942,2.9,2.9,0,0,0-.288,1.423,6.812,6.812,0,0,0,.988,2.989,7.015,7.015,0,0,1-1.431-2.942,3.391,3.391,0,0,1,.158-1.74,3.2,3.2,0,0,1,1.168-1.366,4.925,4.925,0,0,1,3.407-.786,9.189,9.189,0,0,1,3.278,1.069,17.971,17.971,0,0,1,5.232,4.278,13.214,13.214,0,0,1,1.882,2.961l.321.886c.079.319.136.658.2.989a7.941,7.941,0,0,1-.075,1.9,6.2,6.2,0,0,1-1.782,3.5,6.8,6.8,0,0,1-3.573,1.663,12.4,12.4,0,0,1-7.011-1.469,26.184,26.184,0,0,1-5.586-3.874,16.717,16.717,0,0,1-4.412-5.433,11.917,11.917,0,0,1-1.067-3.523,9.618,9.618,0,0,1,.265-3.778,8.632,8.632,0,0,1,4.915-5.6,11.007,11.007,0,0,1,3.587-.855,15.173,15.173,0,0,1,3.556.251,20.155,20.155,0,0,1,6.348,2.567,24.971,24.971,0,0,1,2.755,1.911l1.318,1.018c.436.343.819.761,1.229,1.138a20.648,20.648,0,0,1,4.132,5.274,13.007,13.007,0,0,1,1.627,6.473,11.564,11.564,0,0,1-1.945,6.207" transform="translate(-109.895 -183.332)" fill="#b43f20"/>
              <path id="Path_681" data-name="Path 681" d="M251.2,283.878a11.557,11.557,0,0,1-4.491-4.705,13.009,13.009,0,0,1-1.407-6.525,20.628,20.628,0,0,1,1.371-6.557c.2-.52.359-1.064.6-1.565l.732-1.5a25.121,25.121,0,0,1,1.625-2.932,20.146,20.146,0,0,1,4.557-5.111,15.18,15.18,0,0,1,3.078-1.8,11.014,11.014,0,0,1,3.594-.821,8.632,8.632,0,0,1,6.887,2.846,9.645,9.645,0,0,1,1.911,3.271,11.954,11.954,0,0,1,.6,3.632,16.7,16.7,0,0,1-1.551,6.823,26.151,26.151,0,0,1-3.295,5.948,12.4,12.4,0,0,1-5.636,4.418,6.8,6.8,0,0,1-3.941.09,6.2,6.2,0,0,1-3.147-2.351,8,8,0,0,1-.909-1.674c-.093-.323-.192-.652-.262-.974l-.1-.936a13.16,13.16,0,0,1,.377-3.488,17.973,17.973,0,0,1,2.8-6.151,9.175,9.175,0,0,1,2.467-2.409,4.926,4.926,0,0,1,3.4-.8,3.208,3.208,0,0,1,1.651.708,3.379,3.379,0,0,1,.912,1.491,7,7,0,0,1,.019,3.271,6.806,6.806,0,0,0-.436-3.119,2.911,2.911,0,0,0-.888-1.148,2.477,2.477,0,0,0-1.337-.39c-2-.069-3.58,1.461-4.59,3.209a16.483,16.483,0,0,0-2.106,5.731,12.673,12.673,0,0,0-.148,2.938l.11.666.189.578a5.761,5.761,0,0,0,.7,1.121,3.805,3.805,0,0,0,2,1.358,4.367,4.367,0,0,0,2.417-.164,9.857,9.857,0,0,0,4.225-3.64,24.786,24.786,0,0,0,2.87-5.377,13.927,13.927,0,0,0,1.269-5.7,7.465,7.465,0,0,0-1.714-5.019,5.915,5.915,0,0,0-4.647-1.979,8.283,8.283,0,0,0-2.695.528,12.669,12.669,0,0,0-2.535,1.379,19.72,19.72,0,0,0-4.2,4.33,23.034,23.034,0,0,0-1.647,2.639l-.764,1.37c-.248.46-.433.943-.655,1.415a19.324,19.324,0,0,0-1.718,5.934,12.244,12.244,0,0,0,.71,6.1,11.937,11.937,0,0,0,3.751,5.041" transform="translate(-111.963 -182.822)" fill="#b43f20"/>
              <path id="Path_682" data-name="Path 682" d="M260.589,181.414a67.3,67.3,0,0,1,9.134,12.893,103.233,103.233,0,0,1,6.66,14.379,111,111,0,0,1,4.379,15.222c.615,2.567.941,5.193,1.407,7.784.331,2.616.581,5.241.8,7.859-1.085-5.153-2.1-10.291-3.487-15.334-.358-1.259-.705-2.518-1.032-3.782l-1.161-3.741c-.716-2.511-1.662-4.945-2.511-7.412a153.388,153.388,0,0,0-6.211-14.357c-1.137-2.353-2.4-4.64-3.731-6.893a76.561,76.561,0,0,0-4.242-6.619" transform="translate(-112.234 -181.567)" fill="#b43f20"/>
              <path id="Path_683" data-name="Path 683" d="M122.714,285.62a46.846,46.846,0,0,1-5.292-11.2,67.343,67.343,0,0,1-2.777-11.843,70.508,70.508,0,0,1-.576-12.042c.013-2.009.294-4.007.444-6,.274-1.991.623-3.975,1-5.948-.157,4-.377,7.982-.24,11.962.043,1,.078,1.988.093,2.981l.217,2.975c.089,1.985.4,3.957.615,5.933a99.143,99.143,0,0,0,2.385,11.744c.5,1.946,1.12,3.868,1.808,5.776a52.08,52.08,0,0,0,2.32,5.668" transform="translate(-109.641 -182.578)" fill="#b43f20"/>
              <path id="Path_684" data-name="Path 684" d="M123.651,278.04a46.827,46.827,0,0,1-4.092-11.693,67.3,67.3,0,0,1-1.526-12.068,70.552,70.552,0,0,1,.686-12.036c.222-2,.71-3.955,1.069-5.926.48-1.951,1.035-3.888,1.617-5.809-.575,3.966-1.209,7.9-1.488,11.871-.061.993-.13,1.984-.218,2.974l-.1,2.981c-.118,1.983-.017,3.977-.008,5.966a99.352,99.352,0,0,0,1.145,11.928c.29,1.987.709,3.964,1.195,5.933a52.231,52.231,0,0,0,1.716,5.879" transform="translate(-109.712 -182.436)" fill="#b43f20"/>
              <path id="Path_685" data-name="Path 685" d="M270.2,251.214a46.822,46.822,0,0,0-.212-12.387,67.287,67.287,0,0,0-2.751-11.849,70.534,70.534,0,0,0-4.814-11.054c-.9-1.795-2.036-3.463-3.055-5.188-1.128-1.664-2.318-3.289-3.531-4.89,1.914,3.521,3.871,6.99,5.509,10.62.4.911.81,1.817,1.236,2.715l1.122,2.763c.8,1.82,1.395,3.725,2.075,5.593a99.092,99.092,0,0,1,3.059,11.586c.417,1.965.708,3.965.935,5.979a52.343,52.343,0,0,1,.427,6.11" transform="translate(-112.15 -181.999)" fill="#b43f20"/>
              <path id="Path_686" data-name="Path 686" d="M265.971,244.846a46.812,46.812,0,0,0-1.5-12.3,67.3,67.3,0,0,0-3.973-11.5,70.582,70.582,0,0,0-5.942-10.49c-1.083-1.692-2.387-3.232-3.581-4.841-1.295-1.537-2.649-3.028-4.022-4.494,2.271,3.3,4.581,6.547,6.588,9.986.494.864,1,1.723,1.512,2.571l1.4,2.632c.984,1.727,1.776,3.559,2.648,5.346a99.3,99.3,0,0,1,4.251,11.2c.619,1.911,1.118,3.869,1.554,5.85a52.083,52.083,0,0,1,1.064,6.031" transform="translate(-111.993 -181.918)" fill="#b43f20"/>
            </g>
          </g>
          <g id="Group_566" data-name="Group 566" transform="translate(128.354 189.965)">
            <g id="Group_565" data-name="Group 565" clip-path="url(#clip-path-16)">
              <path id="Path_688" data-name="Path 688" d="M249.842,230.452c5.446,23.338-18.244,41.493-50.911,49.115s-61.946,1.827-67.391-21.511,15-55.381,47.671-63,65.185,12.061,70.631,35.4" transform="translate(-130.665 -193.386)" fill="#f3d0b3"/>
              <path id="Path_689" data-name="Path 689" d="M243.209,232c5.446,23.338-18.243,41.493-50.911,49.115s-61.946,1.827-67.39-21.511,15-55.381,47.67-63,65.185,12.061,70.631,35.4" transform="translate(-130.547 -193.413)" fill="#ffe6cc"/>
              <path id="Path_690" data-name="Path 690" d="M268.415,198.1s-.95-2.134-9.325-4.324a27.57,27.57,0,0,1-9.484-4.808c-4.61-3.5-6.636-5.5-11.836-7.921-.555-.258-5.516-2.136-7.9-2.782a24.421,24.421,0,0,0-10.714.149,17.011,17.011,0,0,0,.727-4.895,15.9,15.9,0,0,0-.17-2.248c-.616-4.3-2.993-8.021-7.117-9.285,0,0-15.021-3.926-21.8,14.34a30,30,0,0,1,.036-7.689,17.7,17.7,0,0,1,1.087-4.142,9.285,9.285,0,0,0,.617-2.384c.729-5.805-3.459-12.879-10.28-14.2-7.793-1.506-21,5.232-25.018,20.352a51.4,51.4,0,0,0-.193,23.12,18.361,18.361,0,0,1-2.85-5.147,31.531,31.531,0,0,0-6.463-10.538c-.814-.9-1.444-1.518-1.731-1.788l-.18-.167s-17.409-10.762-18.354,15.034a31.2,31.2,0,0,0,3.27,16.039c-7.418,3.357-23.007,12.768-25.21,33.279-1.052,9.792,2.386,14.422,7.57,15.914a16.254,16.254,0,0,0,5.025.551c8.766-.295,19.532-6.045,23.671-10.908,3.967-4.66,8.568-17.309,8.825-27.456a20.037,20.037,0,0,0,11.12-4.094,12.384,12.384,0,0,0,4.2-4.928,15.043,15.043,0,0,0,6.5,1.95c9.88.813,13.76-2.415,16.587-10.01,5.712,5.786,10.06,6.482,16.7,4.24a7.573,7.573,0,0,0,3.136-2.155c.31.568,2.205,3.354,2.575,3.965,4.813,7.946,15.857,16.833,33.263,14.483,10.757-1.452,18.581-5.627,22.369-10.489a11.231,11.231,0,0,0,2.541-6.089,8.6,8.6,0,0,0-1.193-4.97" transform="translate(-130.217 -192.578)" fill="#f3d0b3"/>
            </g>
          </g>
          <g id="Group_568" data-name="Group 568">
            <g id="Group_567" data-name="Group 567" clip-path="url(#clip-path)">
              <path id="Path_692" data-name="Path 692" d="M202.968,285.918a10.033,10.033,0,1,0,12.048,7.489,10.035,10.035,0,0,0-12.048-7.489" transform="translate(-3.453 -5.052)" fill="#0c5b9f"/>
              <path id="Path_693" data-name="Path 693" d="M203.313,287.318a8.622,8.622,0,1,0,10.355,6.436,8.624,8.624,0,0,0-10.355-6.436m5.274,14.821a2.587,2.587,0,0,1-.269.977.555.555,0,0,1-.317.293.248.248,0,0,1-.16-.014c-.191-.092-.146-.3-.091-.54.023-.1.052-.227.076-.378a6.777,6.777,0,0,1-.91.278,7.2,7.2,0,0,1-6.121-12.644c.006-.028.01-.057.015-.084.035-.208.073-.4.116-.573.035-.147.076-.278.106-.4.019-.066.039-.128.059-.183s.035-.114.052-.16c.051-.142.084-.223.085-.227l.105-.25.178.2c.132.153.259.295.385.425.057.06.112.116.167.172s.12.122.178.176a6.921,6.921,0,0,1,1.4-.484,7.2,7.2,0,0,1,4.944,13.409" transform="translate(-3.478 -5.078)" fill="#ffb900"/>
              <path id="Path_694" data-name="Path 694" d="M204.79,297.709c-2.58-1.3-3.546-.258-5.809-1.706,0,0,.369,7.827,8.619,5.194a4.84,4.84,0,0,0-2.809-3.488m-1.67.851a.366.366,0,0,1,.345,0l.6.307a.382.382,0,0,1,.167.516l-.015.023-.013.036-.266.633a.407.407,0,0,1-.53.221l-.67-.279a.413.413,0,0,1-.223-.535l.279-.669a.4.4,0,0,1,.324-.249" transform="translate(-3.519 -5.235)" fill="#ffb900"/>
              <path id="Path_695" data-name="Path 695" d="M204.576,298.176a6.9,6.9,0,0,0-2.747-.735,6.476,6.476,0,0,1-2.195-.5,5.744,5.744,0,0,0,2.113,3.524c1.283.9,3.055,1.03,5.268.407a4.579,4.579,0,0,0-2.44-2.694m-.33,1.22-.015.023-.013.036-.266.634a.406.406,0,0,1-.53.22l-.67-.279a.411.411,0,0,1-.222-.535l.278-.669a.4.4,0,0,1,.324-.248.366.366,0,0,1,.345,0l.6.306a.381.381,0,0,1,.167.516" transform="translate(-3.531 -5.252)" fill="#818181"/>
              <path id="Path_696" data-name="Path 696" d="M206.467,300.943a5.7,5.7,0,0,1-4.679-.533,5.559,5.559,0,0,1-2.056-3.354,6.623,6.623,0,0,0,2.083.453,6.868,6.868,0,0,1,2.733.73,4.535,4.535,0,0,1,2.384,2.586q-.234.066-.465.119m-3.392-2.422a.466.466,0,0,0-.327.28l-.279.67a.482.482,0,0,0,.258.624l.67.279a.479.479,0,0,0,.29.024.469.469,0,0,0,.33-.282l.266-.632.014-.041a.436.436,0,0,0,.039-.357.449.449,0,0,0-.225-.263l-.6-.307a.438.438,0,0,0-.408,0c.007,0-.011,0-.027,0" transform="translate(-3.533 -5.254)" fill="#fff"/>
              <path id="Path_697" data-name="Path 697" d="M206.23,292.041c-1.207-1.162-2.62-.972-4.771-3.461,0,0-2,4.695,1.741,7.539,1.671,1.354,3.792,1.353,4.572,3.723s-.01,3.317.216,3.426,1.076-1.111-.008-4.636c-.5-1.644.967-3.867-1.749-6.592m-1.483,2.668a.358.358,0,0,1-.139.1.449.449,0,0,1-.511-.084l-.162-.154,0,0-.42-.407a.457.457,0,0,1-.013-.648l.563-.588a.452.452,0,0,1,.555-.082.4.4,0,0,1,.257.136l.5.553a.419.419,0,0,1-.03.6l-.291.263Z" transform="translate(-3.554 -5.104)" fill="#ffb900"/>
              <path id="Path_698" data-name="Path 698" d="M206.034,292.487a8.6,8.6,0,0,0-2.443-1.589c-.05-.032-.1-.064-.156-.094a8.668,8.668,0,0,1-1.878-1.657,7.53,7.53,0,0,0-.205,1.262,6.987,6.987,0,0,0,.046,1.616,6.292,6.292,0,0,0,.765,2.326c.874,1.513,2.646,2.223,5.09,3.36a9.811,9.811,0,0,0-.04-3.057,4.706,4.706,0,0,0-1.179-2.167m-1.28,2.232a.36.36,0,0,1-.138.1.449.449,0,0,1-.511-.084l-.162-.154,0,0-.42-.407a.457.457,0,0,1-.013-.648l.563-.588a.452.452,0,0,1,.555-.082.4.4,0,0,1,.257.136l.5.553a.419.419,0,0,1-.03.6l-.291.263Z" transform="translate(-3.561 -5.114)" fill="#818181"/>
              <path id="Path_699" data-name="Path 699" d="M206.652,297.36c-2.115-.975-3.643-1.68-4.43-3.041a6.169,6.169,0,0,1-.755-2.3,6.868,6.868,0,0,1-.047-1.6l0-.036a7.53,7.53,0,0,1,.169-1.091,8.594,8.594,0,0,0,1.808,1.573c.056.031.106.063.156.094.213.127.422.23.625.329a6.043,6.043,0,0,1,1.806,1.251,4.616,4.616,0,0,1,1.161,2.135,9.652,9.652,0,0,1,.05,2.941Zm-2.373-4.623a.524.524,0,0,0-.259.149l-.563.587a.53.53,0,0,0-.146.377.511.511,0,0,0,.161.368l.42.406.168.157a.517.517,0,0,0,.479.136.476.476,0,0,0,.108-.039.408.408,0,0,0,.159-.113l.3-.316.288-.26a.486.486,0,0,0,.034-.693l-.5-.554a.476.476,0,0,0-.3-.157.469.469,0,0,0-.353-.047" transform="translate(-3.562 -5.117)" fill="#fff"/>
              <path id="Path_700" data-name="Path 700" d="M205.712,293.315l-.757-.727a.761.761,0,0,0-1.081.022l-.728.756a.762.762,0,0,0,.023,1.086l.032.028v0l.723.693a.771.771,0,0,0,1.086-.02l.087-.094.067-.067.57-.594a.767.767,0,0,0-.023-1.086m-.929,1.461a.359.359,0,0,1-.138.1.449.449,0,0,1-.511-.084l-.162-.154,0,0-.42-.407a.457.457,0,0,1-.013-.648l.563-.588a.452.452,0,0,1,.555-.082.4.4,0,0,1,.094.069l.587.563a.457.457,0,0,1,.013.649l-.259.269Z" transform="translate(-3.589 -5.171)" fill="#ffb900"/>
              <path id="Path_701" data-name="Path 701" d="M204.3,298.594l-.862-.359a.69.69,0,0,0-.892.368l-.358.866a.679.679,0,0,0,.373.891l.862.359a.677.677,0,0,0,.887-.371l.361-.858a.689.689,0,0,0-.371-.9m-.033.883-.266.633a.407.407,0,0,1-.53.221l-.67-.279a.412.412,0,0,1-.222-.535l.278-.669a.4.4,0,0,1,.324-.249.423.423,0,0,1,.211.025l.672.283a.4.4,0,0,1,.216.533Z" transform="translate(-3.575 -5.274)" fill="#ffb900"/>
              <path id="Path_702" data-name="Path 702" d="M210.237,292.317c-.22,2-1.275,2.071-1.729,4.182a3.611,3.611,0,0,0,.714,3.27c5.395-3.568,1.015-7.452,1.015-7.452m.077,4.509-.451-.157a.266.266,0,0,1-.162-.343l.157-.451a.265.265,0,0,1,.342-.162l.452.157a.268.268,0,0,1,.162.343l-.158.451a.265.265,0,0,1-.342.162" transform="translate(-3.686 -5.17)" fill="#ffb900"/>
              <path id="Path_703" data-name="Path 703" d="M210.527,293.41a5.238,5.238,0,0,1-.681,1.312,4.967,4.967,0,0,0-.842,1.9,3.339,3.339,0,0,0,.336,2.478,4.36,4.36,0,0,0,2.073-3.083,4,4,0,0,0-.886-2.607m-.2,3.435-.451-.157a.267.267,0,0,1-.162-.343l.157-.451a.265.265,0,0,1,.342-.162l.452.157a.268.268,0,0,1,.162.343l-.158.451a.265.265,0,0,1-.342.162" transform="translate(-3.695 -5.19)" fill="#818181"/>
              <path id="Path_704" data-name="Path 704" d="M209.362,299a3.317,3.317,0,0,1-.291-2.364,4.894,4.894,0,0,1,.832-1.877l.023-.033a5.465,5.465,0,0,0,.624-1.171,3.854,3.854,0,0,1,.8,2.456,4.248,4.248,0,0,1-1.984,2.99m.682-3.345a.336.336,0,0,0-.24.215l-.158.451a.328.328,0,0,0,.013.256.333.333,0,0,0,.192.172l.451.158a.333.333,0,0,0,.428-.2l.158-.452a.335.335,0,0,0-.2-.428l-.451-.157a.325.325,0,0,0-.189-.012" transform="translate(-3.696 -5.192)" fill="#fff"/>
              <path id="Path_705" data-name="Path 705" d="M210.817,295.713l-.58-.2a.453.453,0,0,0-.576.273l-.2.581a.449.449,0,0,0,.277.574l.58.2a.448.448,0,0,0,.572-.271l.2-.581a.453.453,0,0,0-.273-.576m.014.556-.157.451a.266.266,0,0,1-.343.162l-.451-.157a.265.265,0,0,1-.162-.342l.157-.452a.267.267,0,0,1,.343-.162l.451.158a.265.265,0,0,1,.162.342" transform="translate(-3.704 -5.226)" fill="#ffb900"/>
            </g>
          </g>
          <g id="Group_579" data-name="Group 579" transform="translate(21.618 131.72)">
            <g id="Group_578" data-name="Group 578" clip-path="url(#clip-path-18)">
              <path id="Path_706" data-name="Path 706" d="M117.648,167.337l-44.21-6.148L57.662,136.143a4.388,4.388,0,0,0-6.052-1.375c-2.9,1.452-6.557,4.3-4.241,7.858L57.681,159l-28.026-3.9c-5.248-.8-7.575,4.389-7.586,8.831a6.3,6.3,0,0,0,5.369,7.105l87.995,12.238c8.611,1.324,10.86-14.859,2.216-15.936" transform="translate(-22.007 -134.092)" fill="#f26b39"/>
              <path id="Path_707" data-name="Path 707" d="M21.624,158.8s.391,7.686,7.411,9.36,83.822,11.8,83.822,11.8,6.714.939,10.813-3.629-2.344,12.615-2.344,12.615l-42.432.058L15.12,174.632Z" transform="translate(-21.885 -134.529)" fill="#d24d29"/>
              <g id="Group_571" data-name="Group 571" transform="translate(-1.059 0.411)" opacity="0.51">
                <g id="Group_570" data-name="Group 570">
                  <g id="Group_569" data-name="Group 569" clip-path="url(#clip-path-19)">
                    <path id="Path_708" data-name="Path 708" d="M21.343,157.273l3.8-.372a48.549,48.549,0,0,1,6.455.338c9.194.687,24.96,4.013,25.829,4.171l4.938.951S45.5,139.146,49.488,135.5s-9.6,4.024-9.6,4.024l-18.96,13.432Z" transform="translate(-20.929 -134.51)" fill="#f2dbc8"/>
                  </g>
                </g>
              </g>
              <path id="Path_709" data-name="Path 709" d="M52.731,130.9s9.851,20.731,20.2,32.506c0,0,44.652,4.18,50.32,8.271s-5.815-14.321-5.815-14.321l-37.755-3.809Z" transform="translate(-22.55 -134.035)" fill="#d24d29"/>
              <g id="Group_574" data-name="Group 574" transform="translate(5.588 26.945)" opacity="0.51">
                <g id="Group_573" data-name="Group 573">
                  <g id="Group_572" data-name="Group 572" clip-path="url(#clip-path-20)">
                    <path id="Path_710" data-name="Path 710" d="M27.7,161.522c7.506.73,15,1.566,22.493,2.419l22.465,2.679,22.436,2.9,11.207,1.532,11.192,1.635-11.255-1.157-11.241-1.26-22.461-2.681L50.1,164.688c-7.472-1.009-14.944-2.034-22.4-3.166" transform="translate(-27.696 -161.522)" fill="#b43f20"/>
                  </g>
                </g>
              </g>
              <g id="Group_577" data-name="Group 577" transform="translate(20.056 32.37)" opacity="0.51">
                <g id="Group_576" data-name="Group 576">
                  <g id="Group_575" data-name="Group 575" clip-path="url(#clip-path-21)">
                    <path id="Path_711" data-name="Path 711" d="M42.424,167.045c3.551.169,7.091.456,10.629.767s7.068.688,10.6,1.085c3.526.423,7.05.863,10.562,1.4s7.024,1.1,10.49,1.893l-10.586-1.143c-3.53-.36-7.054-.774-10.58-1.175-3.523-.422-7.047-.834-10.565-1.313s-7.037-.943-10.546-1.515" transform="translate(-42.424 -167.045)" fill="#b43f20"/>
                  </g>
                </g>
              </g>
            </g>
          </g>
          <g id="Group_581" data-name="Group 581" transform="translate(29.422 172.423)">
            <g id="Group_580" data-name="Group 580" clip-path="url(#clip-path-22)">
              <path id="Path_713" data-name="Path 713" d="M32.157,214.454c6.764-.931,22.289-4.53,24.55-17.491a19.189,19.189,0,0,0,.221-2.064c.16-2.526,1.156-12.372,7.158-17.328.77-.636-.016-2.04-1.14-2.043-5.063-.014-13.6.61-19.979,4.456a17.956,17.956,0,0,0-8.239,12.452,155.457,155.457,0,0,1-4.7,19.429,2.131,2.131,0,0,0,2.126,2.589" transform="translate(-29.952 -175.528)" fill="#83b92b"/>
              <path id="Path_714" data-name="Path 714" d="M66.7,178.373c-6.715,4.924-8.264,15.228-8.56,17.873A19.578,19.578,0,0,1,57.8,198.4c-3.056,13.49-19.861,16.435-27.13,17.045a2.307,2.307,0,0,1-2.209-1.828c.108.012.432.535.543.526,7.214-.628,10.43-13.716,15.006-22.829.3-.6,4.024-5.868,4.447-6.377,4.476-5.381,7.492-6.29,13.7-8.194a15.3,15.3,0,0,0,2.772-.607c.218.009.436.017.645.028,1.215.057,1.991,1.575,1.131,2.209" transform="translate(-29.925 -175.539)" fill="#58822e"/>
              <path id="Path_715" data-name="Path 715" d="M29.155,214.366a14.34,14.34,0,0,0,5.179-4.256,24.052,24.052,0,0,0,3.472-5.96c.873-2.167,1.558-4.517,2.489-6.719a50.97,50.97,0,0,1,3.122-6.382,33.628,33.628,0,0,1,9.366-10.406,26.882,26.882,0,0,1,6.509-3.315,28.163,28.163,0,0,1,7.673-1.426,28.461,28.461,0,0,0-13.536,5.5,34.768,34.768,0,0,0-8.975,10.4,49.741,49.741,0,0,0-3.175,6.231c-.968,2.14-1.613,4.477-2.651,6.651a23.847,23.847,0,0,1-3.839,5.871,13.625,13.625,0,0,1-5.634,3.808" transform="translate(-29.937 -175.535)" fill="#3a5221"/>
              <path id="Path_716" data-name="Path 716" d="M28.284,214.246s2.211-1.394,4.65-7.045,3.5-21.5,11.028-25.849c7.672-4.429,12.681-5.818,19.868-6.317,7.359-.511-17.782-4.283-17.782-4.283L25.88,186.961,22.745,199.89Z" transform="translate(-29.824 -175.444)" fill="#b2cd54"/>
            </g>
          </g>
          <g id="Group_592" data-name="Group 592" transform="translate(155.285 38.187)">
            <g id="Group_591" data-name="Group 591" clip-path="url(#clip-path-23)">
              <path id="Path_718" data-name="Path 718" d="M217.125,39.111a54.036,54.036,0,0,0-56.45,70.34,51.258,51.258,0,0,0,3.474,8.274,54.02,54.02,0,1,0,52.975-78.614m-7.251,77.93-21.9-26.386,26.386-21.9,21.9,26.386Z" transform="translate(-158.081 -38.875)" fill="#e88211"/>
              <g id="Group_584" data-name="Group 584" transform="translate(-23.408 -3.306)" opacity="0.45">
                <g id="Group_583" data-name="Group 583">
                  <g id="Group_582" data-name="Group 582" clip-path="url(#clip-path-24)">
                    <path id="Path_719" data-name="Path 719" d="M242.325,44.272s-53.29-20.427-76.541,26.866,31.034,79.554,31.034,79.554L134.252,106.1l6.792-69.28,91.2-1.311Z" transform="translate(-134.252 -35.509)" fill="#f1b276"/>
                  </g>
                </g>
              </g>
              <g id="Group_587" data-name="Group 587" transform="translate(-12.629 -22.372)" opacity="0.26">
                <g id="Group_586" data-name="Group 586">
                  <g id="Group_585" data-name="Group 585" clip-path="url(#clip-path-25)">
                    <path id="Path_720" data-name="Path 720" d="M213.787,16.1s56.7,35.99,28.352,91.144-96.915,26.531-96.915,26.531l86.03,27.788,60.662-55.043L229.139,19.468Z" transform="translate(-145.225 -16.1)" fill="#ae591b"/>
                  </g>
                </g>
              </g>
              <g id="Group_590" data-name="Group 590" transform="translate(-3.83 -9.212)" opacity="0.26">
                <g id="Group_589" data-name="Group 589">
                  <g id="Group_588" data-name="Group 588" clip-path="url(#clip-path-26)">
                    <path id="Path_721" data-name="Path 721" d="M222.744,29.5s56.7,35.99,28.352,91.144-96.915,26.531-96.915,26.531l86.03,27.788,60.662-55.043L238.1,32.865Z" transform="translate(-154.182 -29.497)" fill="#ae591b"/>
                  </g>
                </g>
              </g>
            </g>
          </g>
          <g id="Group_594" data-name="Group 594">
            <g id="Group_593" data-name="Group 593" clip-path="url(#clip-path)">
              <path id="Path_723" data-name="Path 723" d="M216.406,48.743a44.518,44.518,0,1,0,40.209,48.445,44.511,44.511,0,0,0-40.209-48.445M210.2,115.556,189.8,90.98l24.575-20.4,20.4,24.576Z" transform="translate(-2.968 -0.859)" fill="#a56e1d"/>
            </g>
          </g>
          <g id="Group_608" data-name="Group 608" transform="translate(166.712 49.583)">
            <g id="Group_607" data-name="Group 607" clip-path="url(#clip-path-28)">
              <path id="Path_724" data-name="Path 724" d="M216.27,50.66a42.625,42.625,0,1,0,38.487,46.384A42.668,42.668,0,0,0,216.27,50.66M210.228,115.7,189.729,91l24.7-20.5,20.5,24.7Z" transform="translate(-169.714 -50.476)" fill="#ffb900"/>
              <g id="Group_597" data-name="Group 597" transform="translate(-17.708 -15.114)" opacity="0.45">
                <g id="Group_596" data-name="Group 596">
                  <g id="Group_595" data-name="Group 595" clip-path="url(#clip-path-29)">
                    <rect id="Rectangle_203" data-name="Rectangle 203" width="102.408" height="7.073" transform="matrix(0.753, -0.658, 0.658, 0.753, 0, 67.356)" fill="#ffe5a1"/>
                  </g>
                </g>
              </g>
              <g id="Group_600" data-name="Group 600" transform="translate(-9.753 -4.753)" opacity="0.37">
                <g id="Group_599" data-name="Group 599">
                  <g id="Group_598" data-name="Group 598" clip-path="url(#clip-path-30)">
                    <rect id="Rectangle_205" data-name="Rectangle 205" width="102.408" height="16" transform="translate(0 67.357) rotate(-41.127)" fill="#ffe5a1"/>
                  </g>
                </g>
              </g>
              <g id="Group_603" data-name="Group 603" transform="translate(18.946 30.987)" opacity="0.53">
                <g id="Group_602" data-name="Group 602">
                  <g id="Group_601" data-name="Group 601" clip-path="url(#clip-path-31)">
                    <rect id="Rectangle_207" data-name="Rectangle 207" width="102.408" height="16" transform="matrix(0.753, -0.658, 0.658, 0.753, 0, 67.356)" fill="#df9612"/>
                  </g>
                </g>
              </g>
              <g id="Group_606" data-name="Group 606" transform="translate(11.152 25.441)" opacity="0.53">
                <g id="Group_605" data-name="Group 605">
                  <g id="Group_604" data-name="Group 604" clip-path="url(#clip-path-32)">
                    <rect id="Rectangle_209" data-name="Rectangle 209" width="102.408" height="5.251" transform="matrix(0.753, -0.658, 0.658, 0.753, -0.001, 67.355)" fill="#df9612"/>
                  </g>
                </g>
              </g>
            </g>
          </g>
          <g id="Group_610" data-name="Group 610">
            <g id="Group_609" data-name="Group 609" clip-path="url(#clip-path)">
              <path id="Path_726" data-name="Path 726" d="M215.213,65.075,184.286,90.732l25.671,30.914L240.87,95.988ZM189.986,91.261l24.7-20.5,20.5,24.7-24.7,20.5Z" transform="translate(-3.26 -1.151)" fill="#e88211"/>
            </g>
          </g>
          <g id="Group_612" data-name="Group 612" transform="translate(204.584 143.458)">
            <g id="Group_611" data-name="Group 611" clip-path="url(#clip-path-34)">
              <path id="Path_727" data-name="Path 727" d="M256.486,188.177s8.817-4.568,16.984-3.756c8.683.861,18.534-8.141,17.482-18.666s-14.693-24.813-35.533-24.176-50.616,15.767-46.78,33.913c4.673,22.113,24.651,26.432,47.846,12.685" transform="translate(-208.268 -145.962)" fill="#d3df8d"/>
              <path id="Path_728" data-name="Path 728" d="M249.693,195.683s3.254-2.8,11.421-1.992c8.683.862,25.452-10.03,24.4-20.555s-16.048-24.688-36.888-24.051S198.011,164.852,201.847,183c4.673,22.113,24.651,26.432,47.847,12.685" transform="translate(-208.148 -146.094)" fill="#83b92b"/>
              <path id="Path_729" data-name="Path 729" d="M249.9,215.869a113.462,113.462,0,0,1,11.143-5.912c7.871-3.764,21.175-7.752,20.123-18.277s-14.206-22.271-35.046-21.633-42.335,11.028-38.5,29.176c4.673,22.112,19.083,30.394,42.279,16.646" transform="translate(-208.248 -146.465)" fill="#70a02e"/>
            </g>
          </g>
          <g id="Group_614" data-name="Group 614" transform="translate(181.817 115.596)">
            <g id="Group_613" data-name="Group 613" clip-path="url(#clip-path-35)">
              <path id="Path_731" data-name="Path 731" d="M238.791,157.842s4.232-9.49,11.444-14.155c7.665-4.96,9.851-18.753,2.124-26.677s-28.21-10.714-44.844,3.4-31.123,45.924-16.144,58.268c18.25,15.041,37.412,5.54,47.42-20.841" transform="translate(-185.091 -117.549)" fill="#d3df8d"/>
              <path id="Path_732" data-name="Path 732" d="M238.131,168.405s.832-4.416,8.043-9.082c7.666-4.96,14.279-24.811,6.551-32.736s-29.238-9.728-45.871,4.391-31.122,45.924-16.143,58.268c18.249,15.041,37.412,5.54,47.42-20.841" transform="translate(-185.079 -117.727)" fill="#83b92b"/>
              <path id="Path_733" data-name="Path 733" d="M251.245,187.778a118.642,118.642,0,0,1,5.259-12.107c3.983-8.215,12.265-20.158,4.538-28.082s-26.154-8.951-42.787,5.168-27.439,36.644-12.462,48.988c18.251,15.041,35.444,12.414,45.451-13.967" transform="translate(-185.331 -118.104)" fill="#70a02e"/>
            </g>
          </g>
          <g id="Group_616" data-name="Group 616" transform="translate(75.835 169.117)">
            <g id="Group_615" data-name="Group 615" clip-path="url(#clip-path-36)">
              <path id="Path_735" data-name="Path 735" d="M94.085,171.635s-31.452,6.929-3.462,36.61,61.287,13.173,64.322-11.264-21.762-12.692-37.5-20.55c-10.659-5.323-23.363-4.8-23.363-4.8" transform="translate(-77.233 -172.152)" fill="#d3df8d"/>
              <path id="Path_736" data-name="Path 736" d="M98.018,171.788s-31.452,6.928-3.462,36.609,61.287,13.173,64.322-11.263-21.762-12.693-37.5-20.551c-10.659-5.323-23.363-4.795-23.363-4.795" transform="translate(-77.302 -172.155)" fill="#83b92b"/>
              <path id="Path_737" data-name="Path 737" d="M123.73,167.814s-31.452,6.928-3.462,36.609,61.287,13.173,64.322-11.264-21.762-12.693-37.5-20.55c-10.659-5.323-23.363-4.795-23.363-4.795" transform="translate(-77.757 -172.085)" fill="#70a02e"/>
            </g>
          </g>
          <g id="Group_618" data-name="Group 618" transform="translate(105.099 123.463)">
            <g id="Group_617" data-name="Group 617" clip-path="url(#clip-path-37)">
              <path id="Path_739" data-name="Path 739" d="M152.173,154.9s-5.387-8.127-5.455-16.185c-.073-8.567-9.9-17.237-20.062-15.1s-22.677,16.956-19.86,37.233,20.719,47.752,38.031,42.1c21.094-6.89,23.208-26.848,7.346-48.044" transform="translate(-106.981 -125.643)" fill="#d3df8d"/>
              <path id="Path_740" data-name="Path 740" d="M154.833,158.99s-3.08-2.882-3.147-10.94c-.072-8.567-12.205-22.481-22.369-20.347s-22.677,16.956-19.86,37.233,20.719,47.752,38.031,42.1c21.094-6.89,23.208-26.848,7.346-48.044" transform="translate(-107.028 -125.718)" fill="#83b92b"/>
              <path id="Path_741" data-name="Path 741" d="M180.651,159.625a111.166,111.166,0,0,1-6.944-10.255c-4.5-7.288-9.8-19.855-19.961-17.721s-20.246,16.213-17.429,36.489,15.222,40.167,32.534,34.513c21.094-6.89,27.662-21.829,11.8-43.025" transform="translate(-107.502 -125.787)" fill="#70a02e"/>
            </g>
          </g>
          <g id="Group_620" data-name="Group 620" transform="translate(146.923 100.731)">
            <g id="Group_619" data-name="Group 619" clip-path="url(#clip-path-38)">
              <path id="Path_743" data-name="Path 743" d="M193.875,137.027s-2.969-9.731-.638-17.809c2.477-8.589-4.768-20.185-15.568-21.075s-27.726,10.208-30.944,31.324,6.508,53.923,25.5,53.421c23.146-.612,31.2-19.942,21.646-45.861" transform="translate(-149.507 -102.466)" fill="#d3df8d"/>
              <path id="Path_744" data-name="Path 744" d="M200.409,146.905s-1.921-3.959,1.026-11.834c3.133-8.372-5.969-26.727-16.669-28.448s-25.943,8.3-30.783,29.106,2.327,54.264,21.3,55.23c23.126,1.176,32.647-17.474,25.122-44.054" transform="translate(-149.62 -102.614)" fill="#83b92b"/>
              <path id="Path_745" data-name="Path 745" d="M223.5,154.892a116.251,116.251,0,0,1-3.892-12.323c-2.335-8.629-11.541-20.3-22.341-21.187s-17.419,7.713-20.638,28.829,3.268,44.7,22.264,44.2c23.146-.612,34.162-13.6,24.607-39.517" transform="translate(-150.033 -102.877)" fill="#70a02e"/>
            </g>
          </g>
          <g id="Group_622" data-name="Group 622">
            <g id="Group_621" data-name="Group 621" clip-path="url(#clip-path)">
              <path id="Path_747" data-name="Path 747" d="M173.37,241.866a6.47,6.47,0,1,1-7.771-4.831,6.47,6.47,0,0,1,7.771,4.831" transform="translate(-2.841 -4.189)" fill="#1a1818"/>
              <path id="Path_748" data-name="Path 748" d="M161.6,227.933s2.649.314,6.174.746,5.856-1.637,5.062-3.147-5.1-2.234-7.824-1.428-4.168,2.04-4.438,2.917,1.026.913,1.026.913" transform="translate(-2.839 -3.958)" fill="#1a1818"/>
              <path id="Path_749" data-name="Path 749" d="M203.936,214.542s-1.836,1.736-4.27,4.056-5.381,1.925-5.636.246,2.608-4.676,5.138-5.537,4.326-.653,5.029-.085-.262,1.321-.262,1.321" transform="translate(-3.432 -3.763)" fill="#1a1818"/>
              <path id="Path_750" data-name="Path 750" d="M169.55,261.505c1.2,4.08-3.224,8.979-9.886,10.942s-13.037.246-14.24-3.835,3.225-8.979,9.886-10.942,13.037-.246,14.24,3.835" transform="translate(-2.569 -4.543)" fill="#f49d9f"/>
              <path id="Path_751" data-name="Path 751" d="M242.615,232.318c1.413,4.013-2.753,9.135-9.3,11.44s-13.007.921-14.419-3.091,2.753-9.135,9.3-11.44,13.007-.921,14.419,3.091" transform="translate(-3.867 -4.035)" fill="#f49d9f"/>
              <path id="Path_752" data-name="Path 752" d="M165.091,240.369a1.32,1.32,0,1,1-1.586-.986,1.32,1.32,0,0,1,1.586.986" transform="translate(-2.874 -4.233)" fill="#fff"/>
            </g>
          </g>
          <g id="Group_624" data-name="Group 624" transform="translate(102.907 195.658)">
            <g id="Group_623" data-name="Group 623" clip-path="url(#clip-path-40)">
              <path id="Path_753" data-name="Path 753" d="M131.26,200.339s-23.7,7.01-26.329,31.472,25.733,13.315,32.789,5.025,16.345-44.545-6.46-36.5" transform="translate(-104.76 -199.181)" fill="#d3df8d"/>
              <path id="Path_754" data-name="Path 754" d="M132.966,202.437s-23.7,7.01-26.329,31.472,25.733,13.315,32.789,5.026,16.345-44.545-6.46-36.5" transform="translate(-104.79 -199.218)" fill="#83b92b"/>
              <path id="Path_755" data-name="Path 755" d="M139.507,198.055s.474,24.338-6.068,34.949S113.8,247.717,113.8,247.717l31.1-2.857,7.69-39.555Z" transform="translate(-104.92 -199.161)" fill="#70a02e"/>
            </g>
          </g>
          <g id="Group_626" data-name="Group 626" transform="translate(206.029 172.8)">
            <g id="Group_625" data-name="Group 625" clip-path="url(#clip-path-41)">
              <path id="Path_757" data-name="Path 757" d="M210.286,192.61s8.53,26.313,33.865,22.894c17.653-2.382,26.968-12.523,22.407-20.359,0,0-.9-2.016-8.81-4.085a26.036,26.036,0,0,1-8.959-4.542,71.155,71.155,0,0,0-11.184-7.484,36.2,36.2,0,0,0-7.465-2.628c-5.37-1.456-23.795-.677-19.855,16.205" transform="translate(-209.738 -175.911)" fill="#d3df8d"/>
              <path id="Path_758" data-name="Path 758" d="M211.017,194.925s8.531,26.313,33.866,22.894c17.653-2.382,26.968-12.523,22.407-20.359,0,0-.9-2.016-8.81-4.085a26.049,26.049,0,0,1-8.96-4.542,74.6,74.6,0,0,0-11.183-7.484,33.386,33.386,0,0,0-7.465-2.628c-5.37-1.456-23.795-.677-19.856,16.205" transform="translate(-209.751 -175.952)" fill="#83b92b"/>
              <path id="Path_759" data-name="Path 759" d="M209.089,189.057s17.974,25.823,42.313,22.252,25.45-3.922,25.45-3.922l-38.167,21.474-32.5-14.029Z" transform="translate(-209.676 -176.143)" fill="#70a02e"/>
            </g>
          </g>
          <g id="Group_628" data-name="Group 628" transform="translate(124.963 167.453)">
            <g id="Group_627" data-name="Group 627" clip-path="url(#clip-path-42)">
              <path id="Path_761" data-name="Path 761" d="M143.871,171.486s-18.524-8.7-16.515,17.034,25.326,30.345,36.712,19.255-5.756-14.8-10.451-24.836c-3.181-6.8-9.746-11.454-9.746-11.454" transform="translate(-127.213 -170.461)" fill="#d3df8d"/>
              <path id="Path_762" data-name="Path 762" d="M146.726,173.029s-18.524-8.7-16.515,17.034,25.326,30.345,36.712,19.255-5.756-14.8-10.451-24.836c-3.181-6.8-9.747-11.454-9.747-11.454" transform="translate(-127.263 -170.488)" fill="#83b92b"/>
              <path id="Path_763" data-name="Path 763" d="M162.907,169.531s-18.524-8.7-16.515,17.034,25.326,30.345,36.712,19.255-5.756-14.8-10.451-24.836c-3.181-6.8-9.746-11.454-9.746-11.454" transform="translate(-127.549 -170.426)" fill="#70a02e"/>
            </g>
          </g>
          <g id="Group_630" data-name="Group 630" transform="translate(188.471 154.663)">
            <g id="Group_629" data-name="Group 629" clip-path="url(#clip-path-43)">
              <path id="Path_765" data-name="Path 765" d="M216.033,157.807s-16.732-4.39-22.854,17.556S203.8,204.6,212.8,198.882s3.411-13.375,8-20.648,2.891-18.078-4.766-20.427" transform="translate(-191.864 -157.448)" fill="#d3df8d"/>
              <path id="Path_766" data-name="Path 766" d="M216.478,159.716s-16.732-4.39-22.854,17.556,10.625,29.238,19.624,23.52,3.411-13.375,8-20.648,2.891-18.078-4.766-20.427" transform="translate(-191.872 -157.482)" fill="#83b92b"/>
              <path id="Path_767" data-name="Path 767" d="M228.8,168.808s-16.732-4.39-22.853,17.556,10.625,29.238,19.624,23.52,3.411-13.375,8-20.648,2.891-18.078-4.766-20.427" transform="translate(-192.09 -157.643)" fill="#70a02e"/>
            </g>
          </g>
          <g id="Group_632" data-name="Group 632" transform="translate(154.404 141.084)">
            <g id="Group_631" data-name="Group 631" clip-path="url(#clip-path-44)">
              <path id="Path_769" data-name="Path 769" d="M192.33,173.429s-1.389-7.32.949-13.018c2.486-6.057-1.869-15.076-9.663-16.58s-21,5.231-25.018,20.352.458,39.779,14.329,40.922c16.9,1.391,24.3-12.044,19.4-31.676" transform="translate(-157.184 -143.624)" fill="#d3df8d"/>
              <path id="Path_770" data-name="Path 770" d="M194.1,175.835s-1.316-2.942,1.023-8.639c2.485-6.058-1.943-19.455-9.737-20.96s-21,5.232-25.018,20.352.458,39.78,14.329,40.922c16.9,1.392,24.3-12.043,19.4-31.675" transform="translate(-157.215 -143.667)" fill="#83b92b"/>
              <path id="Path_771" data-name="Path 771" d="M209.364,185.651a85.035,85.035,0,0,1-1.856-9.282c-1.015-6.469-1.024-16.89-8.816-18.4s-19.065,5.428-23.085,20.548-1.168,32.807,12.7,33.95c16.9,1.392,25.954-7.189,21.054-26.82" transform="translate(-157.48 -143.874)" fill="#70a02e"/>
            </g>
          </g>
          <g id="Group_634" data-name="Group 634">
            <g id="Group_633" data-name="Group 633" clip-path="url(#clip-path)">
              <path id="Path_773" data-name="Path 773" d="M200.6,232.882a7.968,7.968,0,0,1,1.928-3.784,10.331,10.331,0,0,1,3.36-2.48,13.166,13.166,0,0,1,3.926-1.083c.664-.078,1.329-.078,1.988-.1.657.056,1.309.087,1.956.171a.914.914,0,0,1,.031,1.809l-.086.014c-.6.1-1.19.143-1.777.214-.577.115-1.157.193-1.721.308a15.521,15.521,0,0,0-3.2,1.051,10.738,10.738,0,0,0-2.7,1.8,8.987,8.987,0,0,0-1.091,1.2,9.16,9.16,0,0,0-.846,1.321l-.094.171a.9.9,0,0,1-1.675-.613" transform="translate(-3.548 -3.987)" fill="#1a1818"/>
              <path id="Path_774" data-name="Path 774" d="M186.214,254.246l10.108.948,5.911-6.932" transform="translate(-3.294 -4.391)" fill="none" stroke="#1a1818" stroke-linecap="round" stroke-miterlimit="10" stroke-width="2"/>
            </g>
          </g>
        </g>
      </g>
    </g>
  </g>
</svg>
