<svg xmlns="http://www.w3.org/2000/svg" xmlns:xlink="http://www.w3.org/1999/xlink" width="300" height="300" viewBox="0 0 300 300">
  <defs>
    <clipPath id="clip-path">
      <rect id="Rectangle_400" data-name="Rectangle 400" width="264.495" height="279.606" fill="none"/>
    </clipPath>
    <clipPath id="clip-path-3">
      <path id="Path_2391" data-name="Path 2391" d="M98.37,22.318C70.077,30.815,88.381,48.2,88.381,48.2S67.86,40.9,45.986,50.732s-6.458,20.948-.522,23.935c0,0-18.576-2.24-22.326,8.3s5.305,17.385,5.305,17.385S8.784,95.723,8.057,110.4c-.109,9.958,15.875,13.8,15.875,13.8s-26.273,3.332-18.689,23.434c7.246,19.212,35.918,11.475,35.918,11.475s-23.058,37.851,15.7,28.341c0,0,8.506.155,20.674-14.593,0,0-7.693,10.842-3.439,15.274s19.638,3.361,26.3-10.111l4.724-8s-4.917,19.784,8.206,21.541,28.524-13.963,28.408-30.126c0,.1.853,26.279,15.764,20.485,13.6-5.283,12.181-20.156,11.817-22.784.453,2.688,3.659,18.019,17.9,18.493,17.124.568,8.3-19.194,6.619-22.672,1.521,2.984,9.58,17.825,19.458,17.583,15.032-.368,3.295-20.746,2.825-23.972,0,0,32.289,11.715,25.5-16.151-4.562-18.715-19.836-17.807-19.836-17.807s14.146-4.582,12.9-19.864c-.884-10.881-16.721-7.847-29.64-5.481,0,0,16.859-13.171,6.732-26.608-5.727-7.788-18.774,2.285-18.774,2.285s4.782-29.486-18.249-38.517-26.129,9.9-23.275,17.768c0,0-19.1-23.373-42.883-23.375a35.333,35.333,0,0,0-10.218,1.5" transform="translate(-3.869 -20.818)" fill="none"/>
    </clipPath>
    <clipPath id="clip-path-4">
      <rect id="Rectangle_376" data-name="Rectangle 376" width="201.702" height="164.136" fill="none"/>
    </clipPath>
    <clipPath id="clip-path-5">
      <path id="Path_2395" data-name="Path 2395" d="M101.764,119.792c-1.376,6.719,11.758,19.342,23.713,21.791s18.526-6.116,19.9-12.834-2.3-8.8-14.257-11.249a97.973,97.973,0,0,0-18.345-2.292c-5.82,0-10.313,1.167-11.014,4.584" transform="translate(-101.664 -115.208)" fill="none"/>
    </clipPath>
    <clipPath id="clip-path-6">
      <rect id="Rectangle_377" data-name="Rectangle 377" width="50.84" height="27.309" fill="none"/>
    </clipPath>
    <clipPath id="clip-path-7">
      <path id="Path_2399" data-name="Path 2399" d="M66.384,136.582s-8.208,16-8.426,20.546,6.169,10.207,14.608,10.463S96.007,150.3,96.007,150.3c6.354-11.428-5.794-18.861-15.452-20.481a14.544,14.544,0,0,0-2.434-.209c-7.984,0-11.737,6.97-11.737,6.97" transform="translate(-57.952 -129.612)" fill="none"/>
    </clipPath>
    <clipPath id="clip-path-8">
      <rect id="Rectangle_378" data-name="Rectangle 378" width="39.819" height="37.981" fill="none"/>
    </clipPath>
    <clipPath id="clip-path-9">
      <rect id="Rectangle_379" data-name="Rectangle 379" width="88.706" height="59.902" fill="none"/>
    </clipPath>
    <clipPath id="clip-path-10">
      <path id="Path_2403" data-name="Path 2403" d="M89.739,130.455c-9.689,1.424-21.987,8.611-15.866,20.167,0,0,14.647,17.842,23.09,17.758s14.945-5.614,14.817-10.165-8.008-20.711-8.008-20.711-3.7-7.211-11.876-7.211a14.719,14.719,0,0,0-2.157.161" transform="translate(-72.234 -130.294)" fill="none"/>
    </clipPath>
    <clipPath id="clip-path-11">
      <rect id="Rectangle_380" data-name="Rectangle 380" width="89.523" height="58.696" fill="none"/>
    </clipPath>
    <clipPath id="clip-path-12">
      <path id="Path_2414" data-name="Path 2414" d="M102.02,75.8c-43.083,5.263-74.571,37.639-70.105,74.206S73.6,201.1,116.685,195.835s75.71-28.321,71.243-64.887c-4.055-33.171-36-55.871-74.053-55.872a97.835,97.835,0,0,0-11.856.727" transform="translate(-31.493 -75.076)" fill="none"/>
    </clipPath>
    <clipPath id="clip-path-13">
      <path id="Path_2418" data-name="Path 2418" d="M99.867,78.944C68.558,82.77,46.209,110.656,48.941,133.02s29.514,30.741,60.821,26.915,55.284-18.4,52.552-40.767C159.794,98.545,135.445,78.5,107.124,78.5a59.868,59.868,0,0,0-7.257.442" transform="translate(-48.715 -78.502)" fill="none"/>
    </clipPath>
    <clipPath id="clip-path-15">
      <path id="Path_2439" data-name="Path 2439" d="M136.453,34.47,130.678,61.4,94.013,80.908c-7.209,3.707-.068,17.126,7.033,13.217L174.022,55.3a5.857,5.857,0,0,0,2.418-7.925c-1.43-3.879-5.124-7.669-9.453-5.292L143.745,54.446l3.776-17.6c.886-3.848-3.224-5.168-6.219-5.511a4.026,4.026,0,0,0-.86-.092,4.087,4.087,0,0,0-3.988,3.228" transform="translate(-91.01 -31.242)" fill="none"/>
    </clipPath>
    <clipPath id="clip-path-16">
      <rect id="Rectangle_382" data-name="Rectangle 382" width="34.215" height="28.339" fill="none"/>
    </clipPath>
    <clipPath id="clip-path-17">
      <rect id="Rectangle_383" data-name="Rectangle 383" width="74.889" height="38.473" fill="none"/>
    </clipPath>
    <clipPath id="clip-path-18">
      <rect id="Rectangle_384" data-name="Rectangle 384" width="35.297" height="18.015" fill="none"/>
    </clipPath>
    <clipPath id="clip-path-19">
      <path id="Path_2444" data-name="Path 2444" d="M120.236,53.467c-.982.363-1.221,1.841-.344,2.151,6.828,2.41,10.847,10.7,11.795,12.851a17.944,17.944,0,0,0,.855,1.733c6.119,10.6,20.835,8.781,27.043,7.433a1.981,1.981,0,0,0,1.03-2.941A144.819,144.819,0,0,1,150.3,59.218a16.7,16.7,0,0,0-11.18-8.245,23.459,23.459,0,0,0-4.471-.407,43.621,43.621,0,0,0-14.41,2.9" transform="translate(-119.35 -50.566)" fill="none"/>
    </clipPath>
    <clipPath id="clip-path-20">
      <path id="Path_2449" data-name="Path 2449" d="M40.4,72.2l10.81-30.374L81.585,52.635,70.773,83.01ZM39.19,16.543a50.79,50.79,0,1,0,72.175,52.3,48.028,48.028,0,0,0,.394-8.428A50.788,50.788,0,0,0,39.19,16.543" transform="translate(-10.181 -11.617)" fill="none"/>
    </clipPath>
    <clipPath id="clip-path-21">
      <rect id="Rectangle_385" data-name="Rectangle 385" width="115.399" height="118.564" fill="none"/>
    </clipPath>
    <clipPath id="clip-path-22">
      <rect id="Rectangle_386" data-name="Rectangle 386" width="138.326" height="134.08" fill="none"/>
    </clipPath>
    <clipPath id="clip-path-25">
      <path id="Path_2452" data-name="Path 2452" d="M36.776,66.645,46.895,38.213,75.327,48.331,65.206,76.765Zm2.081-45.356a40.072,40.072,0,1,0,17.122-3.872,40.115,40.115,0,0,0-17.122,3.872" transform="translate(-15.988 -17.417)" fill="none"/>
    </clipPath>
    <clipPath id="clip-path-26">
      <rect id="Rectangle_390" data-name="Rectangle 390" width="92.26" height="40.754" fill="none"/>
    </clipPath>
    <clipPath id="clip-path-27">
      <rect id="Rectangle_392" data-name="Rectangle 392" width="95.271" height="48.588" fill="none"/>
    </clipPath>
    <clipPath id="clip-path-28">
      <rect id="Rectangle_394" data-name="Rectangle 394" width="95.271" height="48.587" fill="none"/>
    </clipPath>
    <clipPath id="clip-path-29">
      <rect id="Rectangle_396" data-name="Rectangle 396" width="91.645" height="39.156" fill="none"/>
    </clipPath>
    <clipPath id="clip-path-31">
      <path id="Path_2457" data-name="Path 2457" d="M38.583,72.108C24.966,77.062,15.288,91.79,15.247,102.841c-.03,7.969,4.606,7.717,12.742,7.466,2.016-.061,4.245-.122,6.676-.061a143.447,143.447,0,0,1,17.566,1.942c24.921,4.643,37.428-7.068,34.411-28.1-1.6-11.164-13.526-15.7-26.734-15.7a64.144,64.144,0,0,0-21.325,3.724" transform="translate(-15.247 -68.384)" fill="none"/>
    </clipPath>
    <clipPath id="clip-path-32">
      <path id="Path_2461" data-name="Path 2461" d="M25.455,64.189C18.937,72.3,26.713,74.682,36.508,82.917a149.673,149.673,0,0,1,13.1,13.051c17.361,20.06,35.236,18.637,46.49-.54,9.236-15.738-12.057-34.62-31.5-41.155a35.06,35.06,0,0,0-11.171-1.757c-11.33,0-22.544,4.917-27.973,11.674" transform="translate(-23.054 -52.515)" fill="none"/>
    </clipPath>
    <clipPath id="clip-path-33">
      <path id="Path_2465" data-name="Path 2465" d="M129.48,52.718S118.093,56.358,110.4,64.5c-11.352,12.02-37.043,9.665-26.467,30.261s45.308,24.41,60.432-10.838c12.3-28.672-5.257-31.347-12.239-31.347a21.947,21.947,0,0,0-2.647.141" transform="translate(-81.433 -52.577)" fill="none"/>
    </clipPath>
    <clipPath id="clip-path-34">
      <path id="Path_2469" data-name="Path 2469" d="M93.473,36.471c-9.664,1.4-11.791,9.245-12.074,18.9-.222,7.573-4.214,17-4.214,17-7.157,23.841,1.16,40.778,22.011,40.045,17.111-.6,24.04-30.644,19.976-49.457C115.378,45.411,104.7,36.328,95.441,36.33a13.658,13.658,0,0,0-1.968.141" transform="translate(-74.665 -36.33)" fill="none"/>
    </clipPath>
    <clipPath id="clip-path-35">
      <path id="Path_2473" data-name="Path 2473" d="M58.277,37.748c-10.028,1.8-8.023,8.045-6.075,20.424,1.228,7.81,3.507,18.57,3.507,18.57-.061,25.974,14.059,36.407,34.694,29.468,16.933-5.694,13.334-33.325,3.165-50.645-6.663-11.351-20.494-18.158-31.31-18.156a22.511,22.511,0,0,0-3.981.339" transform="translate(-50.611 -37.409)" fill="none"/>
    </clipPath>
    <clipPath id="clip-path-37">
      <path id="Path_2486" data-name="Path 2486" d="M102.372,74.538c-22.734.263-2.819,29.274,6.09,34.313s37.552,5.718,27.326-15.032c-8.957-18.178-27.866-19.3-32.415-19.3-.644,0-1,.022-1,.022" transform="translate(-91.865 -74.516)" fill="none"/>
    </clipPath>
    <clipPath id="clip-path-38">
      <path id="Path_2490" data-name="Path 2490" d="M59.177,81.757c-1.794,1.269-5.357,4.349-5.742,4.734-3.6,3.607-4.676,5.9-7.455,10.22a24.454,24.454,0,0,1-6.445,6.905c-6.317,4.386-6.46,6.456-6.46,6.456-1.495,8.391,10.008,14.336,26.364,10.736,23.474-5.168,22.5-31.159,22.5-31.159-1.058-8.668-6.291-11.18-11.58-11.18a21.811,21.811,0,0,0-11.186,3.287" transform="translate(-32.945 -78.47)" fill="none"/>
    </clipPath>
    <clipPath id="clip-path-39">
      <path id="Path_2494" data-name="Path 2494" d="M91.292,65.723a19.215,19.215,0,0,0-4.01,12.313c.359,10.413-14.839,19.192-1.2,25.3s32.733-5.488,26.192-28.861c-2.906-10.387-7.37-13.271-11.436-13.271-5.083,0-9.543,4.515-9.543,4.515" transform="translate(-80.387 -61.208)" fill="none"/>
    </clipPath>
    <clipPath id="clip-path-40">
      <path id="Path_2498" data-name="Path 2498" d="M52.171,70.253c-6,4.549-4.007,14.636,2.39,19.577s3.94,13.506,13.733,15.646,22.224-9.708,9.726-27.107C71.975,69.952,65.728,67.78,60.891,67.78a16.534,16.534,0,0,0-8.72,2.473" transform="translate(-48.573 -67.78)" fill="none"/>
    </clipPath>
    <clipPath id="clip-path-41">
      <path id="Path_2502" data-name="Path 2502" d="M65.914,57.853C59.519,61.7,58.589,71.07,62.74,75.615c3.905,4.275,5.043,11.19,5.043,11.19,2.018,18.915,12.893,28.386,27.366,21.7,11.878-5.49,7.864-28.711-.57-40.761C88.73,59.384,80.287,56.012,73.528,56.014a14.915,14.915,0,0,0-7.614,1.839" transform="translate(-60.222 -56.014)" fill="none"/>
    </clipPath>
    <clipPath id="clip-path-43">
      <path id="Path_2507" data-name="Path 2507" d="M31,132.084c-5.633,10.827.808,19.494,6.889,22.659s9.094.2,14.728-10.629,11.922-25.7,5.838-28.863a6.419,6.419,0,0,0-2.975-.633c-7.211,0-19.614,8.117-24.481,17.466" transform="translate(-28.833 -114.618)" fill="none"/>
    </clipPath>
    <clipPath id="clip-Artboard_7">
      <rect width="300" height="300"/>
    </clipPath>
  </defs>
  <g id="Artboard_7" data-name="Artboard – 7" clip-path="url(#clip-Artboard_7)">
    <g id="Group_1334" data-name="Group 1334" transform="translate(17.753 0)" clip-path="url(#clip-path)">
      <g id="Group_1236" data-name="Group 1236">
        <g id="Group_1235" data-name="Group 1235" clip-path="url(#clip-path)">
          <path id="Path_2387" data-name="Path 2387" d="M193.571,154.439s8.735,18.373,19.716,18.1c15.032-.37,3.295-20.746,2.823-23.974,0,0,32.293,11.715,25.5-16.151-4.56-18.713-19.834-17.806-19.834-17.806s14.144-4.582,12.9-19.864c-.886-10.881-16.719-7.847-29.64-5.481,0,0,16.858-13.169,6.732-26.608-5.727-7.786-18.774,2.285-18.774,2.285s4.78-29.485-18.249-38.517-26.129,9.9-23.275,17.768c0,0-24.808-30.371-53.1-21.874S88.381,48.2,88.381,48.2,67.862,40.9,45.988,50.732s-6.46,20.948-.525,23.935c0,0-18.574-2.24-22.326,8.3s5.309,17.387,5.309,17.387S8.784,95.725,8.055,110.4c-.107,9.959,15.877,13.8,15.877,13.8s-26.273,3.333-18.689,23.436c7.248,19.211,35.918,11.473,35.918,11.473s-23.06,37.851,15.7,28.343c0,0,8.506.154,20.672-14.593,0,0-7.693,10.842-3.439,15.272s19.64,3.361,26.3-10.109l4.724-8s-4.917,19.786,8.2,21.541,28.528-13.961,28.408-30.126c0,0,.825,26.29,15.766,20.487s11.752-23.186,11.752-23.186,2.353,18.373,17.956,18.892c18.778.623,6.363-23.19,6.363-23.19" transform="translate(3.288 17.692)" fill="#d3df8d"/>
        </g>
      </g>
      <g id="Group_1241" data-name="Group 1241" transform="translate(7.157 38.51)">
        <g id="Group_1240" data-name="Group 1240" clip-path="url(#clip-path-3)">
          <path id="Path_2388" data-name="Path 2388" d="M193.3,154.411s8.792,16.961,19.716,18.1a15.947,15.947,0,0,0,17.044-11s26.012,4.5,18.676-19.359-27.346-28.584-27.346-28.584,26.083,2.569,22.851-12.42-18-19.018-30.957-18.5c0,0,15.322-9.292,5.194-22.731-5.725-7.786-19.954-.22-19.954-.22S197.5,35.429,174.474,26.4s-24.706,14.373-23.043,19.3c0,0-25.039-31.9-53.333-23.4s-9.989,25.887-9.989,25.887S67.59,40.87,45.716,50.7s-6.46,20.948-.525,23.935c0,0-18.574-2.24-22.326,8.3s5.309,17.387,5.309,17.387S8.512,95.7,7.783,110.374c-.107,9.959,15.877,13.8,15.877,13.8S-1.029,127.84,5.2,148.4s26.282,20.211,26.282,20.211-13.648,28.321,25.11,18.813c0,0,8.506.154,20.672-14.593,0,0-7.693,10.842-3.439,15.272s19.64,3.361,26.3-10.109l4.724-8s-4.917,19.786,8.2,21.541,28.528-13.961,28.408-30.126c0,0,.825,26.29,15.766,20.487s11.752-23.186,11.752-23.186,2.353,18.373,17.956,18.892c18.778.623,6.363-23.19,6.363-23.19" transform="translate(-3.597 -20.79)" fill="#d3df8d"/>
          <path id="Path_2389" data-name="Path 2389" d="M189.1,152.977s6.354,18.3,17.331,17.888c18.382-.684,5.633-21.086,6.456-24.471,0,0,30.52,10.385,23.593-13.594-5.483-18.977-18.213-18.3-18.213-18.3s12.83-3.57,11.456-18.841c-.932-10.361-14.828-7.118-27.779-6.6,0,0,12.984-13.141,5.252-24.251-5.725-7.788-18.038.472-18.038.472S191.534,36.334,168.5,27.3s-20.041,13.376-17.24,23.445c0,0-9.9-13.842-25.056-22.226-11.619-6.428-27-8.655-39.279-4.969C58.635,32.048,94.357,52.1,94.357,52.1s-29.819-8.4-51.868,1.034c-15.034,6.434-2.048,19.37,3.887,22.357,0,0-20.267-1.324-24.018,9.212s4.959,15.2,4.959,15.2S6.771,98.215,6.044,112.889c-.109,9.96,18.435,10.979,18.435,10.979s-25.391,3.576-16.8,23.269c7.865,18.04,32.735,9.673,32.735,9.673S13.628,195.5,52.384,185.993c0,0,8.506.154,20.672-14.593,0,0-7.693,10.842-3.439,15.272s19.64,3.361,26.3-10.109l4.724-8s-4.917,19.786,8.2,21.541,28.528-13.961,28.41-30.126c0,0,.825,26.29,15.764,20.487s11.754-23.186,11.754-23.186,2.351,18.373,17.956,18.892c18.776.623,6.362-23.19,6.362-23.19" transform="translate(-2.141 -20.007)" fill="#83b92b"/>
          <g id="Group_1239" data-name="Group 1239" transform="translate(18.667 28.114)" opacity="0.61">
            <g id="Group_1238" data-name="Group 1238">
              <g id="Group_1237" data-name="Group 1237" clip-path="url(#clip-path-4)">
                <path id="Path_2390" data-name="Path 2390" d="M173.2,164.646s6.056,17.438,16.517,17.048c17.518-.653,5.366-20.1,6.153-23.323,0,0,25.3,16.663,18.694-6.19-5.224-18.086-13.569-24.2-13.569-24.2s15.866,3.141,14.556-11.412c-.89-9.874-17.77-13.328-30.113-12.83,0,0,18.034-11.519,10.664-22.109-5.457-7.422-22.847-.553-22.847-.553S177.633,54.853,156.4,44.6c-14.018-6.767-20.1,12.636-17.435,22.231,0,0-4.932-16.293-19.371-24.283-11.073-6.127-17.329-8.657-28.809-4.48-18.193,6.621.938,28.987.938,28.987s-16.432-19.3-37.444-10.3c-14.327,6.13,4.552,19.734,10.207,22.581,0,0-34.6,1.824-36.98,12.214-3.568,15.566,22.91,10.313,22.91,10.313S17.684,109.734,16.99,123.72C15.78,142.084,42.7,137.511,42.7,137.511S7,163.573,15.179,182.341c7.5,17.192,11.186-1.611,11.186-1.611S5.978,205.172,42.912,196.11c0,0,8.106.146,19.7-13.907,0,0-7.331,10.331-3.276,14.554s18.717,3.2,25.067-9.636l4.5-7.627s-4.686,18.855,7.819,20.529,27.187-13.306,27.074-28.709c0,0,.786,25.052,15.023,19.521s11.2-22.094,11.2-22.094,2.24,17.509,17.113,18c17.892.6,6.062-22.1,6.062-22.1" transform="translate(-13.96 -36.016)" fill="#79a02d"/>
              </g>
            </g>
          </g>
        </g>
      </g>
      <g id="Group_1246" data-name="Group 1246" transform="translate(188.062 213.116)">
        <g id="Group_1245" data-name="Group 1245" clip-path="url(#clip-path-5)">
          <path id="Path_2392" data-name="Path 2392" d="M131.123,117.5c11.954,2.451,15.633,4.534,14.259,11.251s-7.951,15.285-19.906,12.834-25.089-15.074-23.713-21.791,17.4-4.745,29.361-2.294" transform="translate(-101.665 -115.208)" fill="#d44e26"/>
          <path id="Path_2393" data-name="Path 2393" d="M132.353,115.875c11.955,2.451,15.635,4.534,14.259,11.251s-7.949,15.285-19.9,12.834-25.089-15.074-23.713-21.791,17.4-4.745,29.359-2.294" transform="translate(-100.619 -116.589)" fill="#f26b39"/>
          <g id="Group_1244" data-name="Group 1244" transform="translate(-25.42 -1.58)" opacity="0.5">
            <g id="Group_1243" data-name="Group 1243">
              <g id="Group_1242" data-name="Group 1242" clip-path="url(#clip-path-6)">
                <path id="Path_2394" data-name="Path 2394" d="M113.333,116.677c11.8-3.124,23.465-3.883,25.219,2.745s-7.76,18.212-19.558,21.336-29.177-2.336-30.933-8.964,13.474-11.992,25.272-15.117" transform="translate(-87.923 -114.354)" fill="#b0331b"/>
              </g>
            </g>
          </g>
        </g>
      </g>
      <g id="Group_1254" data-name="Group 1254" transform="translate(107.202 239.761)">
        <g id="Group_1253" data-name="Group 1253" clip-path="url(#clip-path-7)">
          <path id="Path_2396" data-name="Path 2396" d="M96.008,150.3s-15,17.54-23.443,17.287-14.828-5.916-14.608-10.465,8.426-20.544,8.426-20.544,4.515-8.382,14.173-6.761,21.806,9.053,15.452,20.483" transform="translate(-57.953 -129.612)" fill="#ab3727"/>
          <g id="Group_1249" data-name="Group 1249" transform="translate(-3.904 -2.235)" opacity="0.5">
            <g id="Group_1248" data-name="Group 1248">
              <g id="Group_1247" data-name="Group 1247" clip-path="url(#clip-path-8)">
                <path id="Path_2397" data-name="Path 2397" d="M93.9,149.1s-15,17.54-23.443,17.287-14.828-5.916-14.608-10.464,8.426-20.544,8.426-20.544,4.515-8.382,14.173-6.761S100.253,137.666,93.9,149.1" transform="translate(-55.842 -128.404)" fill="#b0331b"/>
              </g>
            </g>
          </g>
          <g id="Group_1252" data-name="Group 1252" transform="translate(-35.15 -35.292)" opacity="0.5">
            <g id="Group_1251" data-name="Group 1251">
              <g id="Group_1250" data-name="Group 1250" clip-path="url(#clip-path-9)">
                <path id="Path_2398" data-name="Path 2398" d="M40,115.257c-5.065,8.846,8.642,29.579,32.581,43.286s49.045,15.2,54.109,6.356-10.235-27.13-34.174-40.837S45.062,106.411,40,115.257" transform="translate(-38.95 -110.534)" fill="#b0331b"/>
              </g>
            </g>
          </g>
        </g>
      </g>
      <g id="Group_1259" data-name="Group 1259" transform="translate(133.621 241.022)">
        <g id="Group_1258" data-name="Group 1258" clip-path="url(#clip-path-10)">
          <path id="Path_2400" data-name="Path 2400" d="M73.874,150.622s14.645,17.842,23.088,17.758,14.945-5.614,14.817-10.167-8.008-20.711-8.008-20.711-4.343-8.472-14.033-7.048-21.985,8.611-15.864,20.167" transform="translate(-72.233 -130.294)" fill="#d44d37"/>
          <path id="Path_2401" data-name="Path 2401" d="M77.185,148.814s14.645,17.842,23.088,17.758,14.945-5.614,14.817-10.167-8.008-20.711-8.008-20.711-4.343-8.472-14.033-7.048-21.985,8.611-15.864,20.167" transform="translate(-69.419 -131.831)" fill="#f26b39"/>
          <g id="Group_1257" data-name="Group 1257" transform="translate(-16.075 -33.159)" opacity="0.5">
            <g id="Group_1256" data-name="Group 1256">
              <g id="Group_1255" data-name="Group 1255" clip-path="url(#clip-path-11)">
                <path id="Path_2402" data-name="Path 2402" d="M64.436,165.213c4.885,8.946,29.83,7.969,54.043-5.252S157,126.285,152.114,117.338s-28.473-5.481-52.685,7.74-39.879,31.19-34.993,40.136" transform="translate(-63.544 -112.368)" fill="#b0331b"/>
              </g>
            </g>
          </g>
        </g>
      </g>
      <g id="Group_1261" data-name="Group 1261" transform="translate(58.257 138.878)">
        <g id="Group_1260" data-name="Group 1260" clip-path="url(#clip-path-12)">
          <path id="Path_2404" data-name="Path 2404" d="M31.924,155.6c4.467,36.568,41.688,51.091,84.769,45.826s75.71-28.321,71.243-64.888-44.341-72.8-87.421-67.534-73.057,50.029-68.59,86.6" transform="translate(-31.501 -80.669)" fill="#d44d37"/>
          <path id="Path_2405" data-name="Path 2405" d="M28.229,155.1c4.325,35.393,41.471,49.311,84.552,44.046s75.784-27.716,71.459-63.109S140.2,65.711,97.12,70.974,23.9,119.7,28.229,155.1" transform="translate(-34.618 -79.011)" fill="#f26b39"/>
          <path id="Path_2406" data-name="Path 2406" d="M65.808,75.4s-61.3,104.841,45.739,125.9C198.164,218.336,22,215.326,22,215.326L35.443,100.287Z" transform="translate(-39.559 -74.803)" fill="#f99f7d"/>
          <path id="Path_2407" data-name="Path 2407" d="M107.574,143.307a11.182,11.182,0,0,1-3.065-5.07,11.589,11.589,0,0,1-.1-5.812A18.226,18.226,0,0,1,106.589,127c.253-.424.475-.862.753-1.269l.851-1.215A21.559,21.559,0,0,1,110,122.187a18.636,18.636,0,0,1,4.4-3.685,12.048,12.048,0,0,1,2.56-1.064,7.982,7.982,0,0,1,2.649-.239,5.793,5.793,0,0,1,4.325,2.412,6.555,6.555,0,0,1,1.027,2.362,8.744,8.744,0,0,1,.118,2.667,13.344,13.344,0,0,1-1.8,5.289,23.424,23.424,0,0,1-3.265,4.782,9.509,9.509,0,0,1-4.443,3.028,4.32,4.32,0,0,1-2.4-.111,3.792,3.792,0,0,1-1.822-1.567,5.58,5.58,0,0,1-.549-1.167l-.122-.592-.031-.657a12.075,12.075,0,0,1,.459-2.775,15.653,15.653,0,0,1,2.61-5.174c1.141-1.534,2.819-2.821,4.723-2.525a2.4,2.4,0,0,1,1.234.529,2.8,2.8,0,0,1,.712,1.193,6.4,6.4,0,0,1,.057,2.967,6.6,6.6,0,0,0,.276-3.05,3.15,3.15,0,0,0-.7-1.456,2.954,2.954,0,0,0-1.45-.8,4.546,4.546,0,0,0-3.2.424,8.522,8.522,0,0,0-2.5,2,16.749,16.749,0,0,0-3.174,5.438,12.275,12.275,0,0,0-.683,3.178l.006.864c.035.3.093.6.144.9a7.377,7.377,0,0,0,.668,1.609,5.639,5.639,0,0,0,2.618,2.421,6.209,6.209,0,0,0,3.568.294,11.439,11.439,0,0,0,5.587-3.509,24.429,24.429,0,0,0,3.64-5.183,15.448,15.448,0,0,0,2.105-6.129,10.95,10.95,0,0,0-.185-3.378,8.853,8.853,0,0,0-1.413-3.163,7.889,7.889,0,0,0-5.973-3.263,10.143,10.143,0,0,0-3.365.388,14.056,14.056,0,0,0-3.008,1.341,18.852,18.852,0,0,0-4.737,4.255,23.182,23.182,0,0,0-1.817,2.553L106,124.91c-.272.44-.477.927-.721,1.387a19.321,19.321,0,0,0-1.966,5.936,12.182,12.182,0,0,0,.6,6.2,10.9,10.9,0,0,0,3.659,4.872" transform="translate(29.412 -41.111)" fill="#b43f20"/>
          <path id="Path_2408" data-name="Path 2408" d="M71.115,149.751a10.9,10.9,0,0,0,2.377-5.611,12.162,12.162,0,0,0-.91-6.162,19.248,19.248,0,0,0-3.339-5.287c-.344-.39-.66-.814-1.034-1.175l-1.128-1.073a23.263,23.263,0,0,0-2.375-2.04,18.913,18.913,0,0,0-5.623-2.989,14.035,14.035,0,0,0-3.243-.577,10.132,10.132,0,0,0-3.359.433,7.891,7.891,0,0,0-5.009,4.6,8.825,8.825,0,0,0-.61,3.411,11.064,11.064,0,0,0,.631,3.322,15.52,15.52,0,0,0,3.52,5.444,24.513,24.513,0,0,0,4.782,4.153,11.421,11.421,0,0,0,6.269,2.059,6.172,6.172,0,0,0,3.389-1.143,5.625,5.625,0,0,0,1.959-2.98,7.307,7.307,0,0,0,.259-1.722c-.02-.3-.037-.614-.076-.91l-.2-.84a12.308,12.308,0,0,0-1.426-2.921,16.719,16.719,0,0,0-4.392-4.514,8.5,8.5,0,0,0-2.908-1.336,4.546,4.546,0,0,0-3.209.359,2.936,2.936,0,0,0-1.214,1.125,3.138,3.138,0,0,0-.331,1.583,6.552,6.552,0,0,0,1,2.893,6.42,6.42,0,0,1-.66-2.895,2.785,2.785,0,0,1,.405-1.328,2.387,2.387,0,0,1,1.069-.81c1.776-.745,3.714.1,5.192,1.313a15.589,15.589,0,0,1,3.777,4.393,11.914,11.914,0,0,1,1.115,2.582l.126.646.026.6a5.5,5.5,0,0,1-.253,1.265,3.789,3.789,0,0,1-1.391,1.959,4.314,4.314,0,0,1-2.307.686,9.471,9.471,0,0,1-5.041-1.868,23.465,23.465,0,0,1-4.321-3.853,13.33,13.33,0,0,1-3.017-4.7,8.728,8.728,0,0,1-.527-2.618,6.554,6.554,0,0,1,.427-2.54,5.8,5.8,0,0,1,3.616-3.383,8.08,8.08,0,0,1,2.63-.407,12.176,12.176,0,0,1,2.74.416,18.644,18.644,0,0,1,5.155,2.519,21.7,21.7,0,0,1,2.312,1.822l1.119.973c.368.329.688.7,1.036,1.051a18.292,18.292,0,0,1,3.424,4.743,11.568,11.568,0,0,1,1.3,5.666,11.207,11.207,0,0,1-1.752,5.659" transform="translate(-18.434 -32.792)" fill="#b43f20"/>
          <path id="Path_2409" data-name="Path 2409" d="M32.757,88.275a63.188,63.188,0,0,0-3.9,14.334,96.875,96.875,0,0,0-1.236,14.849,104.362,104.362,0,0,0,1.053,14.854c.287,2.466.847,4.889,1.273,7.327.553,2.416,1.18,4.815,1.837,7.2-.707-4.9-1.474-9.762-1.876-14.665-.091-1.226-.191-2.451-.311-3.672l-.183-3.677c-.178-2.449-.131-4.9-.178-7.355a144.349,144.349,0,0,1,.845-14.686c.244-2.444.622-4.872,1.066-7.29a72.026,72.026,0,0,1,1.608-7.214" transform="translate(-34.781 -63.859)" fill="#b43f20"/>
          <path id="Path_2410" data-name="Path 2410" d="M117.771,133.945a44.028,44.028,0,0,0,1.053-11.6,63.219,63.219,0,0,0-1.374-11.354,66.276,66.276,0,0,0-3.383-10.818c-.659-1.768-1.554-3.443-2.331-5.159-.886-1.669-1.835-3.308-2.806-4.926,1.434,3.483,2.912,6.924,4.077,10.483.283.892.573,1.78.881,2.662l.77,2.7c.562,1.781.927,3.624,1.374,5.439a93.251,93.251,0,0,1,1.689,11.14c.191,1.878.261,3.777.27,5.683a49.294,49.294,0,0,1-.218,5.755" transform="translate(34.315 -62.319)" fill="#b43f20"/>
          <path id="Path_2411" data-name="Path 2411" d="M118.14,130.011a44.01,44.01,0,0,0-.165-11.647,63.312,63.312,0,0,0-2.553-11.149,66.323,66.323,0,0,0-4.5-10.405c-.84-1.691-1.905-3.261-2.858-4.887-1.054-1.567-2.17-3.1-3.3-4.606,1.789,3.315,3.62,6.584,5.148,10,.376.856.757,1.711,1.154,2.555l1.047,2.6c.745,1.713,1.3,3.505,1.935,5.265a93.31,93.31,0,0,1,2.843,10.9c.387,1.848.655,3.729.862,5.624a49.2,49.2,0,0,1,.385,5.746" transform="translate(30.777 -64.673)" fill="#b43f20"/>
          <path id="Path_2412" data-name="Path 2412" d="M44.679,142.988a44.041,44.041,0,0,1-3.814-11,63.4,63.4,0,0,1-1.4-11.351,66.224,66.224,0,0,1,.679-11.315c.215-1.876.679-3.716,1.021-5.568.457-1.835.984-3.653,1.537-5.459-.553,3.727-1.16,7.423-1.434,11.158-.059.932-.128,1.865-.213,2.8l-.1,2.8c-.117,1.865-.028,3.74-.024,5.609a93.274,93.274,0,0,0,1.043,11.219c.266,1.868.655,3.729,1.106,5.581a49.161,49.161,0,0,0,1.6,5.533" transform="translate(-24.723 -55.348)" fill="#b43f20"/>
          <path id="Path_2413" data-name="Path 2413" d="M44.508,139.259a43.949,43.949,0,0,1-2.643-11.343,63.227,63.227,0,0,1-.207-11.436A66.18,66.18,0,0,1,43.515,105.3c.409-1.842,1.064-3.624,1.6-5.431.647-1.776,1.36-3.529,2.1-5.266-.94,3.648-1.929,7.261-2.592,10.945-.157.923-.322,1.842-.5,2.758l-.39,2.778c-.311,1.842-.418,3.716-.61,5.575a93.352,93.352,0,0,0-.135,11.266c.07,1.887.263,3.777.518,5.666a49.254,49.254,0,0,0,1.01,5.67" transform="translate(-22.992 -58.484)" fill="#b43f20"/>
        </g>
      </g>
      <g id="Group_1263" data-name="Group 1263" transform="translate(90.114 145.216)">
        <g id="Group_1262" data-name="Group 1262" clip-path="url(#clip-path-13)">
          <path id="Path_2415" data-name="Path 2415" d="M48.941,133.02c2.732,22.366,29.514,30.741,60.821,26.915s55.284-18.4,52.552-40.767-31.14-44.05-62.447-40.225-53.658,31.71-50.926,54.076" transform="translate(-48.715 -78.502)" fill="#f3d0b3"/>
          <path id="Path_2416" data-name="Path 2416" d="M46.159,132.608c2.732,22.366,29.514,30.741,60.821,26.915s55.284-18.4,52.552-40.767-31.14-44.05-62.447-40.225-53.658,31.71-50.926,54.076" transform="translate(-51.079 -78.852)" fill="#ffe6cc"/>
          <path id="Path_2417" data-name="Path 2417" d="M33.778,131.682s.15-2.19,6.837-6.831a25.949,25.949,0,0,0,6.82-7.311c2.939-4.578,4.083-7,7.89-10.818.407-.407,4.181-3.666,6.079-5.009a22.94,22.94,0,0,1,9.508-3.33A15.99,15.99,0,0,1,68.686,94.3a15.127,15.127,0,0,1-.575-2.04c-.845-3.994.052-8.049,3.283-10.5,0,0,11.994-8.321,23.885,5.616A28.25,28.25,0,0,0,92.764,80.6a16.658,16.658,0,0,0-2.3-3.307,8.73,8.73,0,0,1-1.315-1.905c-2.519-4.891-1.106-12.488,4.49-15.857,6.395-3.846,20.23-2.164,28.665,9.887a48.328,48.328,0,0,1,7.642,20.35A17.337,17.337,0,0,0,130.8,84.3a29.63,29.63,0,0,1,2.3-11.393c.427-1.062.784-1.807.951-2.138.061-.124.1-.205.1-.205s11.893-15.128,21.064,7.344a29.345,29.345,0,0,1,2.294,15.219c7.634.566,24.44,3.84,33.012,21.238,4.094,8.3,2.553,13.5-1.543,16.5a15.258,15.258,0,0,1-4.256,2.111c-7.836,2.571-19.2.973-24.425-1.983-5.008-2.834-13.158-12.516-16.663-21.39a18.847,18.847,0,0,1-11.142-.022,11.637,11.637,0,0,1-5.3-2.995,14.143,14.143,0,0,1-5.115,3.824c-8.459,3.911-12.928,2.314-17.879-3.478-3.174,6.954-6.787,8.974-13.371,9.138a7.125,7.125,0,0,1-3.465-.89c-.092.6-.864,3.674-.993,4.332-1.683,8.57-8.563,19.986-24.69,23.535-9.967,2.194-18.223,1.036-23.14-2.035a10.542,10.542,0,0,1-4.21-4.554,8.082,8.082,0,0,1-.553-4.774" transform="translate(-61.525 -96.189)" fill="#f3d0b3"/>
        </g>
      </g>
      <g id="Group_1265" data-name="Group 1265">
        <g id="Group_1264" data-name="Group 1264" clip-path="url(#clip-path)">
          <path id="Path_2419" data-name="Path 2419" d="M87.969,125.858a9.433,9.433,0,1,1-8.217,10.505,9.433,9.433,0,0,1,8.217-10.505" transform="translate(67.715 106.898)" fill="#0c5b9f"/>
          <path id="Path_2420" data-name="Path 2420" d="M80.459,135.593a8.107,8.107,0,1,0,7.063-9.029,8.106,8.106,0,0,0-7.063,9.029m1.33-.133a6.772,6.772,0,0,1,5.9-7.542,6.66,6.66,0,0,1,1.395-.026c.033-.065.067-.137.1-.211s.061-.135.092-.207c.068-.155.135-.322.2-.5l.091-.239.174.187s.059.065.15.174c.03.035.063.076.1.124s.074.091.113.142c.065.094.142.2.22.316.094.139.191.3.289.468l.041.07a6.769,6.769,0,0,1-1.319,13.141,6.327,6.327,0,0,1-.893.048c.068.126.137.231.189.311.128.2.233.363.094.505a.22.22,0,0,1-.137.063.514.514,0,0,1-.376-.155,2.4,2.4,0,0,1-.553-.775,6.774,6.774,0,0,1-5.866-5.9" transform="translate(68.325 107.507)" fill="#f4b03a"/>
          <path id="Path_2421" data-name="Path 2421" d="M84.649,137.213c8.134-.34,5.931-7.37,5.931-7.37-1.53,2.009-2.719,1.4-4.578,3.383a4.547,4.547,0,0,0-1.352,3.986m3.468-3.661.462.5a.387.387,0,0,1-.024.544l-.5.462a.383.383,0,0,1-.54-.022l-.438-.474-.024-.028-.02-.015a.362.362,0,0,1-.018-.511l.433-.464a.342.342,0,0,1,.305-.109.381.381,0,0,1,.366.115" transform="translate(71.884 110.345)" fill="#f4b03a"/>
          <path id="Path_2422" data-name="Path 2422" d="M84.845,136.25c2.157-.165,3.677-.856,4.521-2.061a5.4,5.4,0,0,0,.727-3.8,6.063,6.063,0,0,1-1.776,1.152,6.507,6.507,0,0,0-2.187,1.537,4.311,4.311,0,0,0-1.286,3.167m1.952-2.706.433-.464a.342.342,0,0,1,.305-.109.377.377,0,0,1,.366.115l.462.5a.387.387,0,0,1-.024.544l-.5.462a.384.384,0,0,1-.54-.022l-.438-.474-.024-.028-.02-.017a.36.36,0,0,1-.018-.509" transform="translate(72.101 110.812)" fill="#818181"/>
          <path id="Path_2423" data-name="Path 2423" d="M84.878,136.118a4.261,4.261,0,0,1,1.269-3.052,6.457,6.457,0,0,1,2.177-1.528,6.283,6.283,0,0,0,1.693-1.073,5.232,5.232,0,0,1-.733,3.626,5.355,5.355,0,0,1-3.959,1.983c-.146.017-.3.033-.448.044m2.636-3.272a.444.444,0,0,0-.111,0,.406.406,0,0,0-.25.129l-.433.466a.416.416,0,0,0-.113.305.408.408,0,0,0,.15.3l.026.031.438.474a.44.44,0,0,0,.383.141.429.429,0,0,0,.248-.115l.5-.462a.453.453,0,0,0,.026-.634l-.461-.5a.441.441,0,0,0-.381-.142c-.015,0-.031.006-.024.007" transform="translate(72.131 110.874)" fill="#fff"/>
          <path id="Path_2424" data-name="Path 2424" d="M84.557,137.773c.183,3.461,1.323,4.26,1.491,4.1s-.838-.751-.916-3.095,1.8-3.03,2.834-4.765c2.386-3.722-.9-7.22-.9-7.22-1.1,2.9-2.4,3.182-3.095,4.6-1.519,3.283.5,4.771.585,6.386m1.215-4.693-.342-.139a.4.4,0,0,1-.22-.518l.263-.651a.377.377,0,0,1,.183-.2.424.424,0,0,1,.516-.107l.688.337a.431.431,0,0,1,.2.577l-.24.5,0,0-.092.189a.422.422,0,0,1-.424.239.318.318,0,0,1-.154-.041Z" transform="translate(70.883 107.75)" fill="#f4b03a"/>
          <path id="Path_2425" data-name="Path 2425" d="M83.714,133.76a9.235,9.235,0,0,0,.953,2.714c1.791-1.794,3.124-2.993,3.407-4.613a5.893,5.893,0,0,0-.076-2.3,6.5,6.5,0,0,0-.481-1.443,6.987,6.987,0,0,0-.588-1.047,8.222,8.222,0,0,1-1.123,2.07c-.039.044-.074.089-.109.133a8.1,8.1,0,0,0-1.643,2.192,4.419,4.419,0,0,0-.34,2.294m1.82-.919-.342-.139a.4.4,0,0,1-.22-.518l.263-.651a.378.378,0,0,1,.183-.2.424.424,0,0,1,.516-.107l.688.337a.431.431,0,0,1,.2.577l-.24.5,0,0-.092.189a.422.422,0,0,1-.424.239.317.317,0,0,1-.154-.041Z" transform="translate(71.12 107.989)" fill="#818181"/>
          <path id="Path_2426" data-name="Path 2426" d="M84.654,136.3a9.071,9.071,0,0,1-.9-2.612,4.32,4.32,0,0,1,.335-2.26,5.658,5.658,0,0,1,1.189-1.689c.146-.152.3-.311.446-.492.033-.044.068-.087.107-.133a8.018,8.018,0,0,0,1.088-1.974,7.027,7.027,0,0,1,.5.91l.015.03a6.505,6.505,0,0,1,.475,1.428,5.83,5.83,0,0,1,.076,2.275c-.255,1.458-1.376,2.573-2.928,4.118Zm.707-5.093a.452.452,0,0,0-.215.235l-.261.651a.457.457,0,0,0,.255.6l.337.137.37.181a.374.374,0,0,0,.176.048.358.358,0,0,0,.109,0,.484.484,0,0,0,.379-.274l.1-.194.239-.494a.478.478,0,0,0,.024-.377.5.5,0,0,0-.252-.285l-.686-.337a.464.464,0,0,0-.277-.048.441.441,0,0,0-.3.155" transform="translate(71.15 108.051)" fill="#fff"/>
          <path id="Path_2427" data-name="Path 2427" d="M84.553,131.315l.7.34.081.037.105.055a.727.727,0,0,0,.967-.335l.413-.844v-.006l.02-.033a.716.716,0,0,0-.331-.967l-.886-.433a.718.718,0,0,0-.964.331l-.433.886a.723.723,0,0,0,.331.967m.59-.161L84.827,131a.431.431,0,0,1-.2-.577l.337-.688a.39.39,0,0,1,.061-.091.424.424,0,0,1,.516-.107l.688.337a.431.431,0,0,1,.2.577l-.24.5,0,0-.092.189a.422.422,0,0,1-.424.239.317.317,0,0,1-.154-.041Z" transform="translate(71.512 109.676)" fill="#f4b03a"/>
          <path id="Path_2428" data-name="Path 2428" d="M85.819,133.242l.6.64a.637.637,0,0,0,.9.041l.646-.6a.638.638,0,0,0,.043-.906l-.6-.649a.65.65,0,0,0-.908-.037l-.644.6a.648.648,0,0,0-.039.912m.329-.172a.379.379,0,0,1,.019-.54l.5-.466a.407.407,0,0,1,.179-.093.382.382,0,0,1,.366.115l.462.5a.387.387,0,0,1-.024.544l-.5.462a.381.381,0,0,1-.54-.022l-.438-.474Z" transform="translate(72.788 111.811)" fill="#f4b03a"/>
          <path id="Path_2429" data-name="Path 2429" d="M85.468,136.3a3.4,3.4,0,0,0-.425-3.119c-1.082-1.717-2.037-1.439-2.878-3.134,0,0-2.612,4.845,3.3,6.252M83.2,134.025l-.285-.348a.252.252,0,0,1,.031-.355l.348-.285a.25.25,0,0,1,.355.033l.285.348a.251.251,0,0,1-.033.355l-.346.285a.25.25,0,0,1-.355-.033" transform="translate(69.338 110.523)" fill="#f4b03a"/>
          <path id="Path_2430" data-name="Path 2430" d="M82.106,133.2a4.1,4.1,0,0,0,2.827,2.051,3.139,3.139,0,0,0-.5-2.3,4.69,4.69,0,0,0-1.358-1.406,4.977,4.977,0,0,1-1.025-.938,3.766,3.766,0,0,0,.059,2.588m.877.346L82.7,133.2a.252.252,0,0,1,.031-.355l.348-.285a.251.251,0,0,1,.355.033l.285.348a.251.251,0,0,1-.033.355l-.346.285a.25.25,0,0,1-.355-.033" transform="translate(69.555 111)" fill="#818181"/>
          <path id="Path_2431" data-name="Path 2431" d="M82.136,133.113a3.633,3.633,0,0,1-.091-2.427,5.167,5.167,0,0,0,.93.832l.03.022a4.591,4.591,0,0,1,1.341,1.387,3.123,3.123,0,0,1,.509,2.183,4,4,0,0,1-2.719-2m.873-.664-.348.285a.314.314,0,0,0-.041.444l.285.348a.311.311,0,0,0,.444.041l.348-.285a.308.308,0,0,0,.113-.213.313.313,0,0,0-.072-.231l-.285-.348a.316.316,0,0,0-.281-.111.308.308,0,0,0-.163.07" transform="translate(69.584 111.061)" fill="#fff"/>
          <path id="Path_2432" data-name="Path 2432" d="M82.23,132.553,82.6,133a.422.422,0,0,0,.592.055l.446-.368a.423.423,0,0,0,.059-.6l-.368-.448a.426.426,0,0,0-.6-.055l-.446.368a.426.426,0,0,0-.055.6m.255-.455.348-.285a.25.25,0,0,1,.355.033l.285.346a.25.25,0,0,1-.033.355l-.348.285a.25.25,0,0,1-.353-.031l-.285-.348a.249.249,0,0,1,.031-.355" transform="translate(69.8 111.747)" fill="#f4b03a"/>
        </g>
      </g>
      <g id="Group_1276" data-name="Group 1276" transform="translate(168.353 57.793)">
        <g id="Group_1275" data-name="Group 1275" clip-path="url(#clip-path-15)">
          <path id="Path_2433" data-name="Path 2433" d="M94.014,80.908,130.677,61.4l5.775-26.93a4.084,4.084,0,0,1,4.85-3.135c2.995.34,7.105,1.663,6.217,5.511l-3.776,17.6,23.243-12.368c4.329-2.377,8.021,1.413,9.453,5.291a5.861,5.861,0,0,1-2.42,7.927l-72.974,38.83c-7.1,3.909-14.242-9.512-7.033-13.217" transform="translate(-91.009 -31.242)" fill="#f26b39"/>
          <path id="Path_2434" data-name="Path 2434" d="M175.374,37.276s2.116,6.839-3.481,10.548-69.469,37.113-69.469,37.113-5.568,2.965-10.611.287S97.9,95.5,97.9,95.5l37.095-13.517,51.128-32.951Z" transform="translate(-91.441 -26.114)" fill="#d24d29"/>
          <g id="Group_1268" data-name="Group 1268" transform="translate(49.702 -0.699)" opacity="0.51">
            <g id="Group_1267" data-name="Group 1267">
              <g id="Group_1266" data-name="Group 1266" clip-path="url(#clip-path-16)">
                <path id="Path_2435" data-name="Path 2435" d="M152.093,41.641l-3.437.89a44.932,44.932,0,0,0-5.533,2.359c-7.814,3.541-20.526,11.487-21.236,11.9l-4.01,2.41s7.316-25.679,2.66-27.592,9.675.448,9.675.448l20.861,5.673Z" transform="translate(-117.879 -30.864)" fill="#f2dbc8"/>
              </g>
            </g>
          </g>
          <path id="Path_2436" data-name="Path 2436" d="M140.273,29.59s-1.979,21.264-7.259,34.864c0,0-37.681,17.93-41.325,23.317s.5-14.373.5-14.373L123.963,58Z" transform="translate(-91.705 -32.646)" fill="#d24d29"/>
          <g id="Group_1271" data-name="Group 1271" transform="translate(4.788 15.367)" opacity="0.51">
            <g id="Group_1270" data-name="Group 1270">
              <g id="Group_1269" data-name="Group 1269" clip-path="url(#clip-path-17)">
                <path id="Path_2437" data-name="Path 2437" d="M168.487,39.549c-12.61,6.156-25.06,12.633-37.6,18.939C118.462,65.006,105.946,71.353,93.6,78.022c12.616-6.156,25.062-12.633,37.6-18.939,12.425-6.519,24.939-12.866,37.291-19.534" transform="translate(-93.598 -39.549)" fill="#b43f20"/>
              </g>
            </g>
          </g>
          <g id="Group_1274" data-name="Group 1274" transform="translate(33.473 24.734)" opacity="0.51">
            <g id="Group_1273" data-name="Group 1273">
              <g id="Group_1272" data-name="Group 1272" clip-path="url(#clip-path-18)">
                <path id="Path_2438" data-name="Path 2438" d="M144.4,44.613c-6.053,2.658-11.98,5.577-17.9,8.515-5.87,3.026-11.78,6-17.4,9.5,2.928-1.532,5.892-2.986,8.842-4.467l8.855-4.436c5.881-3.006,11.787-5.958,17.6-9.112" transform="translate(-109.104 -44.613)" fill="#b43f20"/>
              </g>
            </g>
          </g>
        </g>
      </g>
      <g id="Group_1278" data-name="Group 1278" transform="translate(220.778 93.539)">
        <g id="Group_1277" data-name="Group 1277" clip-path="url(#clip-path-19)">
          <path id="Path_2440" data-name="Path 2440" d="M159.584,77.635c-6.208,1.35-20.923,3.169-27.045-7.434a17.7,17.7,0,0,1-.853-1.731c-.947-2.155-4.967-10.44-11.795-12.851-.877-.311-.64-1.789.342-2.151,4.419-1.63,12.078-3.814,18.883-2.5a16.71,16.71,0,0,1,11.18,8.247,144.54,144.54,0,0,0,10.317,15.476,1.983,1.983,0,0,1-1.03,2.941" transform="translate(-119.35 -50.566)" fill="#83b92b"/>
          <path id="Path_2441" data-name="Path 2441" d="M118.814,55.524c7.442,2.155,12.091,10.662,13.195,12.88A17.829,17.829,0,0,0,133,70.178c6.985,10.809,22.611,8.01,29.155,6.217a2.146,2.146,0,0,0,1.347-2.3c-.091.044-.205.607-.307.633-6.5,1.757-13.5-8.65-20.411-15.15-.457-.429-5.392-3.84-5.925-4.149-5.631-3.271-8.557-3.1-14.586-2.78a14.4,14.4,0,0,1-2.618.355c-.189.078-.376.154-.555.231-1.043.438-1.236,2.013-.281,2.292" transform="translate(-120.331 -48.936)" fill="#58822e"/>
          <path id="Path_2442" data-name="Path 2442" d="M163.324,75.081a13.34,13.34,0,0,1-5.886-2.063,22.322,22.322,0,0,1-4.939-4.1c-1.458-1.615-2.806-3.448-4.323-5.076a47.508,47.508,0,0,0-4.769-4.576,31.307,31.307,0,0,0-11.512-6.1,25.036,25.036,0,0,0-6.748-.816,26.286,26.286,0,0,0-7.161,1.208,26.473,26.473,0,0,1,13.587.475,32.391,32.391,0,0,1,11.169,6.221,46.491,46.491,0,0,1,4.765,4.43c1.53,1.559,2.841,3.4,4.443,4.963a22.156,22.156,0,0,0,5.233,3.9,12.689,12.689,0,0,0,6.14,1.526" transform="translate(-120.509 -49.05)" fill="#3a5221"/>
          <path id="Path_2443" data-name="Path 2443" d="M163.472,79.343s-2.377-.511-6.315-4.669-9.932-17.67-17.9-19.059c-8.119-1.417-12.941-1.03-19.381.832-6.593,1.907,14.17-9.429,14.17-9.429l22.807,7.714,6.872,10.3Z" transform="translate(-120.004 -53.58)" fill="#b2cd54"/>
        </g>
      </g>
      <g id="Group_1289" data-name="Group 1289" transform="translate(18.833 21.49)">
        <g id="Group_1288" data-name="Group 1288" clip-path="url(#clip-path-20)">
          <path id="Path_2445" data-name="Path 2445" d="M15.105,84.212a50.789,50.789,0,0,0,96.26-15.374,48.02,48.02,0,0,0,.394-8.428,50.8,50.8,0,1,0-96.654,23.8M40.4,72.2,51.21,41.825l30.374,10.81L70.772,83.007Z" transform="translate(-10.18 -11.617)" fill="#e88211"/>
          <g id="Group_1281" data-name="Group 1281" transform="translate(8.075 -21.49)" opacity="0.45">
            <g id="Group_1280" data-name="Group 1280">
              <g id="Group_1279" data-name="Group 1279" clip-path="url(#clip-path-21)">
                <path id="Path_2446" data-name="Path 2446" d="M14.546,39.305S55,4.051,90.807,38.3s-1.7,80.268-1.7,80.268l40.833-59.589L101.564,0,20.613,28.31Z" transform="translate(-14.546)" fill="#f1b276"/>
              </g>
            </g>
          </g>
          <g id="Group_1284" data-name="Group 1284" transform="translate(-15.316 -16.04)" opacity="0.26">
            <g id="Group_1283" data-name="Group 1283" transform="translate(0 0)">
              <g id="Group_1282" data-name="Group 1282" clip-path="url(#clip-path-22)">
                <path id="Path_2447" data-name="Path 2447" d="M41.669,2.946s-38.432,50.1,4.416,89.636,94.144-7.89,94.144-7.89L73.247,137.026l-71.346-29L29.2,10.88Z" transform="translate(-1.901 -2.946)" fill="#ae591b"/>
              </g>
            </g>
          </g>
          <g id="Group_1287" data-name="Group 1287" transform="translate(-18.833 -1.578)" opacity="0.26">
            <g id="Group_1286" data-name="Group 1286">
              <g id="Group_1285" data-name="Group 1285" clip-path="url(#clip-path-22)">
                <path id="Path_2448" data-name="Path 2448" d="M39.768,10.764S1.336,60.861,44.183,100.4s94.144-7.89,94.144-7.89L71.346,144.844,0,115.844,27.3,18.7Z" transform="translate(0 -10.764)" fill="#ae591b"/>
              </g>
            </g>
          </g>
        </g>
      </g>
      <g id="Group_1291" data-name="Group 1291">
        <g id="Group_1290" data-name="Group 1290" clip-path="url(#clip-path)">
          <path id="Path_2450" data-name="Path 2450" d="M19.075,76.27A41.851,41.851,0,1,0,38.923,20.5,41.851,41.851,0,0,0,19.075,76.27M37.7,67.422l10.069-28.29L76.063,49.2l-10.07,28.29Z" transform="translate(12.761 13.978)" fill="#a56e1d"/>
        </g>
      </g>
      <g id="Group_1305" data-name="Group 1305" transform="translate(29.576 32.219)">
        <g id="Group_1304" data-name="Group 1304" clip-path="url(#clip-path-25)">
          <path id="Path_2451" data-name="Path 2451" d="M19.863,74.678a40.063,40.063,0,1,0,18.994-53.39,40.117,40.117,0,0,0-18.994,53.39m16.913-8.034L46.9,38.212l28.43,10.12L65.208,76.765Z" transform="translate(-15.988 -17.417)" fill="#ffb900"/>
          <g id="Group_1294" data-name="Group 1294" transform="translate(4.171 -5.476)" opacity="0.45">
            <g id="Group_1293" data-name="Group 1293">
              <g id="Group_1292" data-name="Group 1292" clip-path="url(#clip-path-26)">
                <rect id="Rectangle_389" data-name="Rectangle 389" width="6.65" height="96.285" transform="matrix(0.359, -0.933, 0.933, 0.359, 0.001, 6.203)" fill="#ffe5a1"/>
              </g>
            </g>
          </g>
          <g id="Group_1297" data-name="Group 1297" transform="translate(-2.516 6.243)" opacity="0.37">
            <g id="Group_1296" data-name="Group 1296">
              <g id="Group_1295" data-name="Group 1295" clip-path="url(#clip-path-27)">
                <rect id="Rectangle_391" data-name="Rectangle 391" width="15.044" height="96.285" transform="translate(0 14.041) rotate(-68.973)" fill="#ffe5a1"/>
              </g>
            </g>
          </g>
          <g id="Group_1300" data-name="Group 1300" transform="translate(-16.308 47.073)" opacity="0.53">
            <g id="Group_1299" data-name="Group 1299">
              <g id="Group_1298" data-name="Group 1298" clip-path="url(#clip-path-28)">
                <rect id="Rectangle_393" data-name="Rectangle 393" width="15.044" height="96.285" transform="translate(0 14.041) rotate(-68.973)" fill="#df9612"/>
              </g>
            </g>
          </g>
          <g id="Group_1303" data-name="Group 1303" transform="translate(-7.592 39.657)" opacity="0.53">
            <g id="Group_1302" data-name="Group 1302">
              <g id="Group_1301" data-name="Group 1301" clip-path="url(#clip-path-29)">
                <rect id="Rectangle_395" data-name="Rectangle 395" width="4.938" height="96.285" transform="matrix(0.359, -0.933, 0.933, 0.359, 0.002, 4.602)" fill="#df9612"/>
              </g>
            </g>
          </g>
        </g>
      </g>
      <g id="Group_1307" data-name="Group 1307">
        <g id="Group_1306" data-name="Group 1306" clip-path="url(#clip-path)">
          <path id="Path_2453" data-name="Path 2453" d="M24.6,61.622,60.189,74.288,72.868,38.7l-35.6-12.66Zm33.282,7.816L29.454,59.317l10.12-28.43L68.007,41.006Z" transform="translate(20.909 22.127)" fill="#e88211"/>
        </g>
      </g>
      <g id="Group_1309" data-name="Group 1309" transform="translate(28.204 126.499)">
        <g id="Group_1308" data-name="Group 1308" clip-path="url(#clip-path-31)">
          <path id="Path_2454" data-name="Path 2454" d="M50.741,111.622s-9.26-1.184-16.21,2.172c-7.386,3.566-18.994-1.2-21.467-10.833S18.021,76.3,36.627,70.133,86.411,67.7,88.888,84.962c3.019,21.034-13.224,31.3-38.147,26.66" transform="translate(-17.494 -69.26)" fill="#d3df8d"/>
          <path id="Path_2455" data-name="Path 2455" d="M55.759,113.976s-3.779-1.424-10.729,1.931c-7.386,3.566-25.713-.633-28.184-10.265s6.193-26.984,24.8-33.155,49.785-2.433,52.262,14.828c3.019,21.034-13.224,31.3-38.147,26.66" transform="translate(-14.239 -67.26)" fill="#83b92b"/>
          <path id="Path_2456" data-name="Path 2456" d="M57.578,123.7a106.328,106.328,0,0,0-11.748-1.619c-8.167-.781-21.2,0-23.672-9.636S27.5,88.19,46.109,82.021s40.942-3.942,43.419,13.321c3.019,21.033-7.028,33-31.95,28.358" transform="translate(-9.752 -59.453)" fill="#70a02e"/>
        </g>
      </g>
      <g id="Group_1311" data-name="Group 1311" transform="translate(42.645 97.144)">
        <g id="Group_1310" data-name="Group 1310" clip-path="url(#clip-path-32)">
          <path id="Path_2458" data-name="Path 2458" d="M48.458,95.036s-6.8-7.011-14.678-8.8c-8.371-1.9-14.758-13.374-10.5-22.868s21.449-18.576,40.7-11.484S106.3,82.377,97.062,98.116c-11.254,19.177-31.246,16.98-48.6-3.08" transform="translate(-24.013 -55.203)" fill="#d3df8d"/>
          <path id="Path_2459" data-name="Path 2459" d="M50.921,99.92s-2.162-3.631-10.037-5.42c-8.37-1.9-20.624-17.294-16.362-26.787S47.2,49.676,66.443,56.768,108.762,87.261,99.525,103c-11.254,19.177-31.246,16.98-48.6-3.08" transform="translate(-22.549 -51.126)" fill="#83b92b"/>
          <path id="Path_2460" data-name="Path 2460" d="M45.944,110.652a111.515,111.515,0,0,0-8.555-8.99c-6.171-5.968-17.342-13.833-13.08-23.328s20.2-16.354,39.448-9.262S99.822,92.561,90.586,108.3c-11.254,19.177-27.283,22.413-44.642,2.353" transform="translate(-22.791 -40.932)" fill="#70a02e"/>
        </g>
      </g>
      <g id="Group_1313" data-name="Group 1313" transform="translate(150.638 97.259)">
        <g id="Group_1312" data-name="Group 1312" clip-path="url(#clip-path-33)">
          <path id="Path_2462" data-name="Path 2462" d="M128.535,52.777s30.008-4.046,14.884,31.2S93.562,115.416,82.988,94.82,98.1,76.58,109.454,64.56c7.692-8.145,19.081-11.783,19.081-11.783" transform="translate(-82.238 -52.527)" fill="#d3df8d"/>
          <path id="Path_2463" data-name="Path 2463" d="M126.716,53.524s30.008-4.046,14.886,31.2S91.745,116.163,81.17,95.567s15.113-18.239,26.467-30.26c7.692-8.145,19.079-11.783,19.079-11.783" transform="translate(-83.782 -51.892)" fill="#83b92b"/>
          <path id="Path_2464" data-name="Path 2464" d="M113.979,56.072s30.008-4.046,14.886,31.2S79.008,118.711,68.433,98.115,83.546,79.875,94.9,67.855c7.692-8.145,19.079-11.783,19.079-11.783" transform="translate(-94.607 -49.727)" fill="#70a02e"/>
        </g>
      </g>
      <g id="Group_1315" data-name="Group 1315" transform="translate(138.117 67.204)">
        <g id="Group_1314" data-name="Group 1314" clip-path="url(#clip-path-34)">
          <path id="Path_2466" data-name="Path 2466" d="M77.35,71.736s2.131-8.916-.413-16.053c-2.7-7.586,3.169-18.417,12.832-19.815s25.5,7.644,29.566,26.456-2.864,48.858-19.976,49.459c-20.851.733-29.166-16.206-22.009-40.047" transform="translate(-74.524 -36.843)" fill="#d3df8d"/>
          <path id="Path_2467" data-name="Path 2467" d="M76.8,74.11s1.787-3.539-.757-10.677c-2.7-7.586,3.513-23.793,13.176-25.191s25.5,7.644,29.566,26.456-2.864,48.858-19.976,49.459C77.962,114.89,69.647,97.951,76.8,74.11" transform="translate(-74.988 -34.825)" fill="#83b92b"/>
          <path id="Path_2468" data-name="Path 2468" d="M64.671,77.67a104.756,104.756,0,0,0,2.817-11.3c1.622-7.89,2.235-20.7,11.9-22.1s23.114,7.775,27.18,26.588-.462,40.382-17.573,40.983c-20.851.733-31.479-10.335-24.322-34.176" transform="translate(-85.049 -29.696)" fill="#70a02e"/>
        </g>
      </g>
      <g id="Group_1317" data-name="Group 1317" transform="translate(93.621 69.2)">
        <g id="Group_1316" data-name="Group 1316" clip-path="url(#clip-path-35)">
          <path id="Path_2470" data-name="Path 2470" d="M57.3,75.373s-.523-9.551-5.191-15.931c-4.963-6.783-2.312-19.362,6.937-23.637s27.777.054,37.442,17.659,11.676,49.714-5.257,55.408c-20.635,6.939-33.993-7.527-33.932-33.5" transform="translate(-51.433 -40.071)" fill="#d3df8d"/>
          <path id="Path_2471" data-name="Path 2471" d="M55.966,81.843s.418-4.116-4.728-10.117c-5.472-6.38-3.367-25.528,5.524-30.5s25.591-1.054,36.586,15.751,15.478,48.665-.966,55.649c-20.039,8.511-34.474-4.88-36.416-30.779" transform="translate(-52.628 -35.874)" fill="#83b92b"/>
          <path id="Path_2472" data-name="Path 2472" d="M43.228,88.029a109.484,109.484,0,0,0-.546-12.139c-.727-8.372,3.631-21.65,12.88-25.925S73.434,51.147,83.1,68.75s11.558,40.524-5.376,46.22c-20.635,6.937-34.557-.969-34.5-26.941" transform="translate(-57.415 -27.915)" fill="#70a02e"/>
        </g>
      </g>
      <g id="Group_1319" data-name="Group 1319">
        <g id="Group_1318" data-name="Group 1318" clip-path="url(#clip-path)">
          <path id="Path_2474" data-name="Path 2474" d="M88.434,101.183a6.084,6.084,0,1,0,5.3-6.776,6.081,6.081,0,0,0-5.3,6.776" transform="translate(75.116 80.192)" fill="#1a1818"/>
          <path id="Path_2475" data-name="Path 2475" d="M78.543,106.38a7.173,7.173,0,0,0,3.733,3.687,9.783,9.783,0,0,0,4,.662,7.389,7.389,0,0,0,5.766-2.445" transform="translate(66.749 90.405)" fill="none" stroke="#1a1818" stroke-linecap="round" stroke-miterlimit="10" stroke-width="0.75"/>
          <path id="Path_2476" data-name="Path 2476" d="M97.293,91.7s-2.238,1.134-5.211,2.653-5.7.448-5.487-1.143,3.779-3.618,6.449-3.788,4.34.455,4.861,1.141-.612,1.138-.612,1.138" transform="translate(73.582 75.972)" fill="#1a1818"/>
          <path id="Path_2477" data-name="Path 2477" d="M69.7,95s2.445.56,5.7,1.321,5.638-.94,5.05-2.431-4.539-2.6-7.17-2.125-4.1,1.485-4.443,2.279S69.7,95,69.7,95" transform="translate(58.443 77.893)" fill="#1a1818"/>
          <path id="Path_2478" data-name="Path 2478" d="M93.776,108.376c.485,3.97,5.429,6.632,11.042,5.947s9.771-4.46,9.286-8.432-5.429-6.632-11.044-5.945-9.769,4.46-9.284,8.43" transform="translate(79.661 84.846)" fill="#f49d9f"/>
          <path id="Path_2479" data-name="Path 2479" d="M59.815,114.319c.485,3.97,6.132,6.547,12.614,5.755s11.343-4.652,10.859-8.622S77.154,104.9,70.672,105.7s-11.341,4.652-10.857,8.622" transform="translate(50.805 89.703)" fill="#f49d9f"/>
          <path id="Path_2480" data-name="Path 2480" d="M69.184,103.45a6.084,6.084,0,1,0,5.3-6.776,6.081,6.081,0,0,0-5.3,6.776" transform="translate(58.756 82.118)" fill="#1a1818"/>
          <path id="Path_2481" data-name="Path 2481" d="M92.116,96.5A1.241,1.241,0,1,0,93.2,95.118,1.242,1.242,0,0,0,92.116,96.5" transform="translate(78.276 80.827)" fill="#fff"/>
          <path id="Path_2482" data-name="Path 2482" d="M72.809,98.776a1.241,1.241,0,1,0,1.082-1.384,1.242,1.242,0,0,0-1.082,1.384" transform="translate(61.868 82.759)" fill="#fff"/>
        </g>
      </g>
      <g id="Group_1321" data-name="Group 1321" transform="translate(169.935 137.842)">
        <g id="Group_1320" data-name="Group 1320" clip-path="url(#clip-path-37)">
          <path id="Path_2483" data-name="Path 2483" d="M102.372,74.538s23.191-1.469,33.415,19.281-18.417,20.073-27.326,15.032S79.638,74.8,102.372,74.538" transform="translate(-91.865 -74.516)" fill="#d3df8d"/>
          <path id="Path_2484" data-name="Path 2484" d="M101.932,75.814s23.191-1.469,33.415,19.281-18.417,20.071-27.326,15.032S79.2,76.079,101.932,75.814" transform="translate(-92.239 -73.432)" fill="#83b92b"/>
          <path id="Path_2485" data-name="Path 2485" d="M97.521,74.86s7.446,21.641,16.65,28.9,22.093,6.646,22.093,6.646L107.88,117.93,88.309,85.489Z" transform="translate(-94.887 -74.224)" fill="#70a02e"/>
        </g>
      </g>
      <g id="Group_1323" data-name="Group 1323" transform="translate(60.944 145.157)">
        <g id="Group_1322" data-name="Group 1322" clip-path="url(#clip-path-38)">
          <path id="Path_2487" data-name="Path 2487" d="M81.944,89.65s.969,25.99-22.505,31.157c-16.356,3.6-27.857-2.344-26.362-10.736,0,0,.141-2.07,6.46-6.454a24.5,24.5,0,0,0,6.443-6.905,67.056,67.056,0,0,1,7.455-10.222,34.358,34.358,0,0,1,5.742-4.732c4.271-3.017,20.79-8.284,22.768,7.893" transform="translate(-32.945 -78.469)" fill="#d3df8d"/>
          <path id="Path_2488" data-name="Path 2488" d="M82,90.861s.969,25.99-22.505,31.157c-16.356,3.6-27.857-2.344-26.362-10.736,0,0,.141-2.07,6.46-6.454a24.5,24.5,0,0,0,6.443-6.905A70.269,70.269,0,0,1,53.488,87.7a31.487,31.487,0,0,1,5.742-4.732C63.5,79.949,80.021,74.683,82,90.861" transform="translate(-32.899 -77.441)" fill="#83b92b"/>
          <path id="Path_2489" data-name="Path 2489" d="M84.08,82.509s-7.527,28.608-30.171,33.319-23.737,4.761-23.737,4.761l40.637,6.626L94.968,104.33Z" transform="translate(-35.302 -75.038)" fill="#70a02e"/>
        </g>
      </g>
      <g id="Group_1325" data-name="Group 1325" transform="translate(148.703 113.225)">
        <g id="Group_1324" data-name="Group 1324" clip-path="url(#clip-path-39)">
          <path id="Path_2491" data-name="Path 2491" d="M92.307,64.96s13.544-13.668,20.084,9.7S99.835,109.641,86.2,103.527s.3-14.926,1.2-25.3c.609-7.033,4.9-13.263,4.9-13.263" transform="translate(-80.507 -61.395)" fill="#d3df8d"/>
          <path id="Path_2492" data-name="Path 2492" d="M91.232,66.174s13.544-13.668,20.086,9.7-12.557,34.977-26.194,28.863.3-14.926,1.2-25.3c.61-7.033,4.9-13.263,4.9-13.263" transform="translate(-81.419 -60.364)" fill="#83b92b"/>
          <path id="Path_2493" data-name="Path 2493" d="M83.045,67.31s13.545-13.668,20.086,9.7-12.557,34.977-26.194,28.863.3-14.926,1.2-25.3c.61-7.033,4.9-13.263,4.9-13.263" transform="translate(-88.377 -59.398)" fill="#70a02e"/>
        </g>
      </g>
      <g id="Group_1327" data-name="Group 1327" transform="translate(89.852 125.382)">
        <g id="Group_1326" data-name="Group 1326" clip-path="url(#clip-path-40)">
          <path id="Path_2495" data-name="Path 2495" d="M52.171,70.253s13.352-9.282,25.851,8.117.063,29.248-9.728,27.106S60.962,94.769,54.563,89.83s-8.4-15.028-2.392-19.577" transform="translate(-48.573 -67.78)" fill="#d3df8d"/>
          <path id="Path_2496" data-name="Path 2496" d="M52.289,71.225s13.354-9.282,25.851,8.117.065,29.248-9.728,27.106S61.079,95.741,54.681,90.8s-8.395-15.028-2.392-19.577" transform="translate(-48.473 -66.954)" fill="#83b92b"/>
          <path id="Path_2497" data-name="Path 2497" d="M48.073,77.6s13.354-9.282,25.851,8.117.065,29.248-9.728,27.106-7.333-10.707-13.731-15.646S42.07,82.151,48.073,77.6" transform="translate(-52.056 -61.535)" fill="#70a02e"/>
        </g>
      </g>
      <g id="Group_1329" data-name="Group 1329" transform="translate(111.401 103.617)">
        <g id="Group_1328" data-name="Group 1328" clip-path="url(#clip-path-41)">
          <path id="Path_2499" data-name="Path 2499" d="M67.784,86.8S66.645,79.89,62.74,75.615C58.589,71.07,59.519,61.7,65.914,57.853s20.23-2.164,28.665,9.886,12.449,35.271.57,40.763C80.676,115.191,69.8,105.72,67.784,86.8" transform="translate(-60.222 -56.015)" fill="#d3df8d"/>
          <path id="Path_2500" data-name="Path 2500" d="M67,88.234s.211-3.023-3.694-7.3c-4.153-4.545-4.571-17.8,1.824-21.652s20.23-2.164,28.665,9.886,12.449,35.271.57,40.763c-14.473,6.689-25.348-2.782-27.365-21.7" transform="translate(-60.205 -54.798)" fill="#83b92b"/>
          <path id="Path_2501" data-name="Path 2501" d="M59.933,94.875a79.72,79.72,0,0,0-1.361-8.794c-1.193-6.04-4.552-15.244,1.841-19.092S79,65.621,87.435,77.673s11.632,28.589-.246,34.079c-14.475,6.691-25.239,2.039-27.255-16.878" transform="translate(-63.283 -48.109)" fill="#70a02e"/>
        </g>
      </g>
      <g id="Group_1331" data-name="Group 1331">
        <g id="Group_1330" data-name="Group 1330" clip-path="url(#clip-path)">
          <path id="Path_2503" data-name="Path 2503" d="M52.617,144.114c-5.635,10.827-8.644,13.794-14.727,10.629S25.367,142.912,31,132.085s21.375-20,27.457-16.833-.205,18.036-5.84,28.863" transform="translate(24.503 97.406)" fill="#f99f7d"/>
        </g>
      </g>
      <g id="Group_1333" data-name="Group 1333" transform="translate(53.336 212.024)">
        <g id="Group_1332" data-name="Group 1332" clip-path="url(#clip-path-43)">
          <path id="Path_2504" data-name="Path 2504" d="M52.617,144.114c-5.635,10.827-8.644,13.794-14.727,10.629S25.367,142.912,31,132.085s21.375-20,27.457-16.833-.205,18.036-5.84,28.863" transform="translate(-28.833 -114.619)" fill="#f99f7d"/>
          <path id="Path_2505" data-name="Path 2505" d="M53.733,145.919c-5.635,10.827-8.644,13.794-14.727,10.629s-12.523-11.832-6.891-22.659S53.187,111.7,59.269,114.864s.1,20.228-5.537,31.055" transform="translate(-27.884 -114.866)" fill="#f26b39"/>
          <path id="Path_2506" data-name="Path 2506" d="M68.6,112.848s-7.7,46.342-38,44.006C1.756,154.628,67.351,174.4,67.351,174.4s11.63-60.07,1.247-61.553" transform="translate(-33.563 -116.122)" fill="#d44e26"/>
        </g>
      </g>
    </g>
  </g>
</svg>
